Inter-UI-Black.ufo
<glyph name="exclam" format="2">
  <advance width="800"/>
  <unicode hex="0021"/>
  <guideline x="0" y="1238.875" angle="0" identifier="djgdauL7U4"/>
  <guideline x="0" y="763.125" angle="0" identifier="QruTKxWbN9"/>
  <guideline x="154" y="0" angle="90" identifier="DFvJSzYMjt"/>
  <outline>
    <contour>
      <point x="640" y="2048" type="line"/>
      <point x="168" y="2048" type="line"/>
      <point x="224" y="636" type="line"/>
      <point x="584" y="636" type="line"/>
    </contour>
    <contour>
      <point x="400" y="-24" type="curve" smooth="yes"/>
      <point x="548" y="-24"/>
      <point x="648" y="76"/>
      <point x="648" y="208" type="curve" smooth="yes"/>
      <point x="648" y="340"/>
      <point x="548" y="440"/>
      <point x="400" y="440" type="curve" smooth="yes"/>
      <point x="252" y="440"/>
      <point x="156" y="340"/>
      <point x="156" y="208" type="curve" smooth="yes"/>
      <point x="156" y="76"/>
      <point x="252" y="-24"/>
    </contour>
  </outline>
</glyph>
<glyph name="numbersign" format="2">
  <advance width="1824"/>
  <unicode hex="0023"/>
  <outline>
    <contour>
      <point x="360" y="0" type="line"/>
      <point x="624" y="0" type="line"/>
      <point x="960" y="2004" type="line"/>
      <point x="696" y="2004" type="line"/>
    </contour>
    <contour>
      <point x="860" y="0" type="line"/>
      <point x="1128" y="0" type="line"/>
      <point x="1464" y="2004" type="line"/>
      <point x="1196" y="2004" type="line"/>
    </contour>
    <contour>
      <point x="1680" y="1180" type="line"/>
      <point x="1680" y="1432" type="line"/>
      <point x="248" y="1432" type="line"/>
      <point x="248" y="1180" type="line"/>
    </contour>
    <contour>
      <point x="1576" y="564" type="line"/>
      <point x="1576" y="816" type="line"/>
      <point x="144" y="816" type="line"/>
      <point x="144" y="564" type="line"/>
    </contour>
  </outline>
</glyph>
<glyph name="dollar" format="2">
  <advance width="1824"/>
  <unicode hex="0024"/>
  <guideline x="0" y="2279.75" angle="0" identifier="WXQIbUHqUy"/>
  <guideline x="0" y="763.125" angle="0" identifier="8A5LT2feKG"/>
  <outline>
    <contour>
      <point x="816" y="-256" type="line"/>
      <point x="1000" y="-256" type="line"/>
      <point x="1032" y="2304" type="line"/>
      <point x="848" y="2304" type="line"/>
    </contour>
    <component base="S"/>
  </outline>
</glyph>
<glyph name="quotesingle" format="2">
  <advance width="544"/>
  <unicode hex="0027"/>
  <guideline x="0" y="1238.875" angle="0" identifier="2f7cj8B0WF"/>
  <guideline x="0" y="763.125" angle="0" identifier="1wCLUmr8pQ"/>
  <outline>
    <contour>
      <point x="428" y="2048" type="line"/>
      <point x="112" y="2048" type="line"/>
      <point x="112" y="1256" type="line"/>
      <point x="428" y="1256" type="line"/>
    </contour>
  </outline>
</glyph>
<glyph name="parenleft" format="2">
  <advance width="1072"/>
  <unicode hex="0028"/>
  <guideline x="1096" y="1640" angle="0" identifier="Lt3GxObDDi"/>
  <guideline x="804" y="1752" angle="0" identifier="KGPmfKZc9t"/>
  <guideline x="364" y="1692" angle="90" identifier="ip1bkwbAiN"/>
  <guideline x="656" y="1584" angle="90" identifier="jnk4cNgTGu"/>
  <outline>
    <contour>
      <point x="992" y="-384" type="line"/>
      <point x="756" y="24"/>
      <point x="656" y="404"/>
      <point x="656" y="832" type="curve" smooth="yes"/>
      <point x="656" y="1276"/>
      <point x="756" y="1640"/>
      <point x="996" y="2048" type="curve"/>
      <point x="632" y="2048" type="line"/>
      <point x="400" y="1752"/>
      <point x="236" y="1304"/>
      <point x="236" y="832" type="curve" smooth="yes"/>
      <point x="236" y="360"/>
      <point x="400" y="-88"/>
      <point x="628" y="-384" type="curve"/>
    </contour>
  </outline>
</glyph>
<glyph name="asterisk" format="2">
  <advance width="1568"/>
  <unicode hex="002A"/>
  <guideline x="0" y="1238.875" angle="0" identifier="Vf8Fg8OWof"/>
  <guideline x="0" y="763.125" angle="0" identifier="By02kH9401"/>
  <outline>
    <contour>
      <point x="292" y="940" type="line"/>
      <point x="524" y="784" type="line"/>
      <point x="776" y="1176" type="line"/>
      <point x="1028" y="772" type="line"/>
      <point x="1260" y="936" type="line"/>
      <point x="960" y="1300" type="line"/>
      <point x="1412" y="1424" type="line"/>
      <point x="1324" y="1684" type="line"/>
      <point x="900" y="1508" type="line"/>
      <point x="936" y="2004" type="line"/>
      <point x="648" y="2004" type="line"/>
      <point x="680" y="1520" type="line"/>
      <point x="244" y="1700" type="line"/>
      <point x="160" y="1440" type="line"/>
      <point x="600" y="1316" type="line"/>
    </contour>
  </outline>
</glyph>
<glyph name="plus" format="2">
  <advance width="1568"/>
  <unicode hex="002B"/>
  <guideline x="516" y="896" angle="0" identifier="geFjCJcDmw"/>
  <outline>
    <contour>
      <point x="1424" y="1072" type="line"/>
      <point x="144" y="1072" type="line"/>
      <point x="144" y="720" type="line"/>
      <point x="1424" y="720" type="line"/>
    </contour>
    <contour>
      <point x="960" y="1536" type="line"/>
      <point x="608" y="1536" type="line"/>
      <point x="608" y="256" type="line"/>
      <point x="960" y="256" type="line"/>
    </contour>
  </outline>
</glyph>
<glyph name="hyphen" format="2">
  <advance width="1312"/>
  <unicode hex="002D"/>
  <outline>
    <contour>
      <point x="1168" y="1028" type="line"/>
      <point x="144" y="1028" type="line"/>
      <point x="144" y="700" type="line"/>
      <point x="1168" y="700" type="line"/>
    </contour>
  </outline>
</glyph>
<glyph name="slash" format="2">
  <advance width="1184"/>
  <unicode hex="002F"/>
  <guideline x="0" y="1238.875" angle="0" identifier="KDeLN4XSrE"/>
  <guideline x="0" y="763.125" angle="0" identifier="G6lYBjKqMu"/>
  <outline>
    <contour>
      <point x="1088" y="2048" type="line"/>
      <point x="692" y="2048" type="line"/>
      <point x="96" y="-308" type="line"/>
      <point x="492" y="-308" type="line"/>
    </contour>
  </outline>
</glyph>
<glyph name="zero" format="2">
  <advance width="1712"/>
  <unicode hex="0030"/>
  <guideline x="0" y="1238.875" angle="0" identifier="p9dKSS9uiD"/>
  <guideline x="0" y="763.125" angle="0" identifier="k8uxsbOsTi"/>
  <outline>
    <contour>
      <point x="1584" y="1204" type="line" smooth="yes"/>
      <point x="1584" y="1776"/>
      <point x="1272" y="2076"/>
      <point x="856" y="2076" type="curve" smooth="yes"/>
      <point x="440" y="2076"/>
      <point x="128" y="1776"/>
      <point x="128" y="1204" type="curve" smooth="yes"/>
      <point x="128" y="864" type="line" smooth="yes"/>
      <point x="128" y="260"/>
      <point x="436" y="-28"/>
      <point x="856" y="-28" type="curve" smooth="yes"/>
      <point x="1272" y="-28"/>
      <point x="1584" y="260"/>
      <point x="1584" y="864" type="curve" smooth="yes"/>
    </contour>
    <contour>
      <point x="1132" y="804" type="line" smooth="yes"/>
      <point x="1132" y="464"/>
      <point x="1012" y="352"/>
      <point x="856" y="352" type="curve" smooth="yes"/>
      <point x="696" y="352"/>
      <point x="580" y="464"/>
      <point x="580" y="804" type="curve" smooth="yes"/>
      <point x="580" y="1264" type="line" smooth="yes"/>
      <point x="580" y="1572"/>
      <point x="696" y="1700"/>
      <point x="856" y="1700" type="curve" smooth="yes"/>
      <point x="1016" y="1700"/>
      <point x="1132" y="1572"/>
      <point x="1132" y="1264" type="curve" smooth="yes"/>
    </contour>
  </outline>
</glyph>
<glyph name="one" format="2">
  <advance width="1408"/>
  <unicode hex="0031"/>
  <guideline x="0" y="1238.875" angle="0" identifier="6eZQZY8qpk"/>
  <guideline x="0" y="763.125" angle="0" identifier="GmsRaIZvrb"/>
  <outline>
    <contour>
      <point x="996" y="2048" type="line"/>
      <point x="580" y="2048" type="line"/>
      <point x="580" y="2032"/>
      <point x="540" y="1704"/>
      <point x="160" y="1704" type="curve"/>
      <point x="160" y="1336" type="line"/>
      <point x="376" y="1336"/>
      <point x="512" y="1384"/>
      <point x="560" y="1464" type="curve"/>
      <point x="576" y="1464" type="line"/>
      <point x="576" y="0" type="line"/>
      <point x="996" y="0" type="line"/>
    </contour>
  </outline>
</glyph>
<glyph name="two" format="2">
  <advance width="1696"/>
  <unicode hex="0032"/>
  <guideline x="0" y="2279.75" angle="0" identifier="iYPwONaHYN"/>
  <guideline x="0" y="763.125" angle="0" identifier="Tiwdkxcrhm"/>
  <outline>
    <contour>
      <point x="1552" y="384" type="line"/>
      <point x="780" y="384" type="line"/>
      <point x="780" y="396" type="line"/>
      <point x="1040" y="664" type="line" smooth="yes"/>
      <point x="1324" y="960"/>
      <point x="1496" y="1184"/>
      <point x="1496" y="1468" type="curve" smooth="yes"/>
      <point x="1496" y="1828"/>
      <point x="1216" y="2076"/>
      <point x="828" y="2076" type="curve" smooth="yes"/>
      <point x="392" y="2076"/>
      <point x="120" y="1764"/>
      <point x="120" y="1388" type="curve"/>
      <point x="564" y="1388" type="line"/>
      <point x="564" y="1572"/>
      <point x="660" y="1712"/>
      <point x="820" y="1712" type="curve" smooth="yes"/>
      <point x="968" y="1712"/>
      <point x="1056" y="1592"/>
      <point x="1056" y="1452" type="curve" smooth="yes"/>
      <point x="1056" y="1336"/>
      <point x="996" y="1192"/>
      <point x="808" y="1000" type="curve" smooth="yes"/>
      <point x="144" y="336" type="line"/>
      <point x="144" y="0" type="line"/>
      <point x="1552" y="0" type="line"/>
    </contour>
  </outline>
</glyph>
<glyph name="three" format="2">
  <advance width="1696"/>
  <unicode hex="0033"/>
  <guideline x="0" y="2279.75" angle="0" identifier="e6TGsnv89H"/>
  <guideline x="0" y="763.125" angle="0" identifier="Iumouj7vhD"/>
  <outline>
    <contour>
      <point x="608" y="1216" type="line"/>
      <point x="608" y="968" type="line"/>
      <point x="900" y="968" type="line"/>
      <point x="1284" y="968"/>
      <point x="1536" y="1228"/>
      <point x="1536" y="1504" type="curve"/>
      <point x="1536" y="1876"/>
      <point x="1252" y="2076"/>
      <point x="832" y="2076" type="curve" smooth="yes"/>
      <point x="472" y="2076"/>
      <point x="164" y="1872"/>
      <point x="164" y="1532" type="curve"/>
      <point x="608" y="1532" type="line"/>
      <point x="608" y="1648"/>
      <point x="724" y="1716"/>
      <point x="848" y="1716" type="curve" smooth="yes"/>
      <point x="1016" y="1716"/>
      <point x="1096" y="1612"/>
      <point x="1096" y="1492" type="curve"/>
      <point x="1096" y="1336"/>
      <point x="1008" y="1216"/>
      <point x="828" y="1216" type="curve" smooth="yes"/>
    </contour>
    <contour>
      <point x="608" y="832" type="line"/>
      <point x="828" y="832" type="line" smooth="yes"/>
      <point x="1016" y="832"/>
      <point x="1128" y="776"/>
      <point x="1128" y="572" type="curve" smooth="yes"/>
      <point x="1128" y="436"/>
      <point x="1024" y="332"/>
      <point x="848" y="332" type="curve" smooth="yes"/>
      <point x="700" y="332"/>
      <point x="580" y="428"/>
      <point x="580" y="556" type="curve"/>
      <point x="136" y="556" type="line"/>
      <point x="136" y="148"/>
      <point x="500" y="-28"/>
      <point x="832" y="-28" type="curve" smooth="yes"/>
      <point x="1252" y="-28"/>
      <point x="1568" y="188"/>
      <point x="1568" y="564" type="curve" smooth="yes"/>
      <point x="1568" y="896"/>
      <point x="1312" y="1080"/>
      <point x="900" y="1080" type="curve" smooth="yes"/>
      <point x="608" y="1080" type="line"/>
    </contour>
  </outline>
</glyph>
<glyph name="four" format="2">
  <advance width="1756"/>
  <unicode hex="0034"/>
  <guideline x="0" y="1238.875" angle="0" identifier="0rawJXLAHR"/>
  <guideline x="0" y="895.125" angle="0" identifier="wJ4u6Fcs9Y"/>
  <outline>
    <contour>
      <point x="1680" y="784" type="line"/>
      <point x="560" y="784" type="line"/>
      <point x="948" y="1456" type="line"/>
      <point x="1136" y="1456" type="line"/>
      <point x="1136" y="2048" type="line"/>
      <point x="916" y="2048" type="line"/>
      <point x="100" y="708" type="line"/>
      <point x="100" y="400" type="line"/>
      <point x="1680" y="400" type="line"/>
    </contour>
    <contour>
      <point x="1376" y="2048" type="line"/>
      <point x="964" y="2048" type="line"/>
      <point x="964" y="0" type="line"/>
      <point x="1376" y="0" type="line"/>
    </contour>
  </outline>
</glyph>
<glyph name="five" format="2">
  <advance width="1696"/>
  <unicode hex="0035"/>
  <guideline x="0" y="2279.75" angle="0" identifier="KEXYFNjpT3"/>
  <guideline x="0" y="2396.625" angle="0" identifier="CEFw0SS20h"/>
  <guideline x="317.625" y="0" angle="90" identifier="WdFD8Mji70"/>
  <outline>
    <contour>
      <point x="548" y="916" type="line"/>
      <point x="588" y="964"/>
      <point x="660" y="1020"/>
      <point x="796" y="1020" type="curve" smooth="yes"/>
      <point x="1004" y="1020"/>
      <point x="1096" y="888"/>
      <point x="1096" y="676" type="curve" smooth="yes"/>
      <point x="1096" y="504"/>
      <point x="1036" y="332"/>
      <point x="844" y="332" type="curve" smooth="yes"/>
      <point x="660" y="332"/>
      <point x="608" y="488"/>
      <point x="596" y="632" type="curve"/>
      <point x="152" y="632" type="line"/>
      <point x="152" y="264"/>
      <point x="412" y="-28"/>
      <point x="848" y="-28" type="curve" smooth="yes"/>
      <point x="1320" y="-28"/>
      <point x="1536" y="312"/>
      <point x="1536" y="672" type="curve" smooth="yes"/>
      <point x="1536" y="1068"/>
      <point x="1280" y="1340"/>
      <point x="940" y="1340" type="curve" smooth="yes"/>
      <point x="776" y="1340"/>
      <point x="672" y="1276"/>
      <point x="636" y="1224" type="curve"/>
      <point x="628" y="1224" type="line"/>
      <point x="676" y="1664" type="line"/>
      <point x="1472" y="1664" type="line"/>
      <point x="1472" y="2048" type="line"/>
      <point x="316" y="2048" type="line"/>
      <point x="196" y="1004" type="line"/>
    </contour>
  </outline>
</glyph>
<glyph name="seven" format="2">
  <advance width="1696"/>
  <unicode hex="0037"/>
  <outline>
    <contour>
      <point x="1552" y="2048" type="line"/>
      <point x="144" y="2048" type="line"/>
      <point x="144" y="1664" type="line"/>
      <point x="1052" y="1664" type="line"/>
      <point x="352" y="0" type="line"/>
      <point x="820" y="0" type="line"/>
      <point x="1552" y="1800" type="line"/>
    </contour>
  </outline>
</glyph>
<glyph name="eight" format="2">
  <advance width="1672"/>
  <unicode hex="0038"/>
  <guideline x="0" y="1238.875" angle="0" identifier="5IshGJq5m8"/>
  <guideline x="0" y="763.125" angle="0" identifier="Z7LAPRckh6"/>
  <outline>
    <contour>
      <point x="1528" y="564" type="curve" smooth="yes"/>
      <point x="1528" y="920"/>
      <point x="1236" y="1136"/>
      <point x="836" y="1136" type="curve" smooth="yes"/>
      <point x="444" y="1136"/>
      <point x="144" y="920"/>
      <point x="144" y="564" type="curve" smooth="yes"/>
      <point x="144" y="172"/>
      <point x="444" y="-28"/>
      <point x="840" y="-28" type="curve" smooth="yes"/>
      <point x="1236" y="-28"/>
      <point x="1528" y="172"/>
    </contour>
    <contour>
      <point x="1084" y="600" type="curve" smooth="yes"/>
      <point x="1084" y="436"/>
      <point x="988" y="340"/>
      <point x="840" y="340" type="curve" smooth="yes"/>
      <point x="692" y="340"/>
      <point x="588" y="436"/>
      <point x="588" y="600" type="curve" smooth="yes"/>
      <point x="588" y="768"/>
      <point x="692" y="868"/>
      <point x="836" y="868" type="curve" smooth="yes"/>
      <point x="984" y="868"/>
      <point x="1084" y="768"/>
    </contour>
    <contour>
      <point x="1488" y="1500" type="curve" smooth="yes"/>
      <point x="1488" y="1876"/>
      <point x="1220" y="2076"/>
      <point x="836" y="2076" type="curve" smooth="yes"/>
      <point x="460" y="2076"/>
      <point x="188" y="1876"/>
      <point x="188" y="1500" type="curve" smooth="yes"/>
      <point x="188" y="1180"/>
      <point x="460" y="964"/>
      <point x="840" y="964" type="curve" smooth="yes"/>
      <point x="1220" y="964"/>
      <point x="1488" y="1180"/>
    </contour>
    <contour>
      <point x="1044" y="1476" type="curve" smooth="yes"/>
      <point x="1044" y="1328"/>
      <point x="976" y="1232"/>
      <point x="840" y="1232" type="curve" smooth="yes"/>
      <point x="704" y="1232"/>
      <point x="632" y="1328"/>
      <point x="632" y="1476" type="curve" smooth="yes"/>
      <point x="632" y="1624"/>
      <point x="704" y="1708"/>
      <point x="836" y="1708" type="curve" smooth="yes"/>
      <point x="972" y="1708"/>
      <point x="1044" y="1620"/>
    </contour>
  </outline>
</glyph>
<glyph name="nine" format="2">
  <advance width="1684"/>
  <unicode hex="0039"/>
  <guideline x="0" y="763.125" angle="0" identifier="g6gG0md7zW"/>
  <guideline x="0" y="1238.875" angle="0" identifier="N3LnCWySll"/>
  <outline>
    <contour>
      <point x="580" y="544" type="curve"/>
      <point x="148" y="544" type="line"/>
      <point x="216" y="192"/>
      <point x="440" y="-36"/>
      <point x="840" y="-36" type="curve" smooth="yes"/>
      <point x="1408" y="-36"/>
      <point x="1552" y="412"/>
      <point x="1552" y="1100" type="curve" smooth="yes"/>
      <point x="1552" y="1180" type="line" smooth="yes"/>
      <point x="1552" y="1756"/>
      <point x="1248" y="2076"/>
      <point x="824" y="2076" type="curve" smooth="yes"/>
      <point x="416" y="2076"/>
      <point x="132" y="1780"/>
      <point x="132" y="1384" type="curve" smooth="yes"/>
      <point x="132" y="1016"/>
      <point x="376" y="696"/>
      <point x="756" y="696" type="curve" smooth="yes"/>
      <point x="1116" y="696"/>
      <point x="1252" y="980"/>
      <point x="1252" y="1200" type="curve"/>
      <point x="1136" y="1312" type="line"/>
      <point x="1136" y="1176"/>
      <point x="1032" y="1052"/>
      <point x="860" y="1052" type="curve" smooth="yes"/>
      <point x="684" y="1052"/>
      <point x="576" y="1184"/>
      <point x="576" y="1384" type="curve" smooth="yes"/>
      <point x="576" y="1584"/>
      <point x="684" y="1716"/>
      <point x="848" y="1716" type="curve" smooth="yes"/>
      <point x="1004" y="1716"/>
      <point x="1136" y="1596"/>
      <point x="1136" y="1336" type="curve" smooth="yes"/>
      <point x="1136" y="988" type="line" smooth="yes"/>
      <point x="1136" y="516"/>
      <point x="1040" y="332"/>
      <point x="832" y="332" type="curve" smooth="yes"/>
      <point x="696" y="332"/>
      <point x="612" y="412"/>
    </contour>
  </outline>
</glyph>
<glyph name="less" format="2">
  <advance width="1312"/>
  <unicode hex="003C"/>
  <guideline x="0" y="1238.875" angle="0" identifier="UIZ4pMAjvB"/>
  <guideline x="256" y="896" angle="0" identifier="bAiPltekmr"/>
  <guideline x="1036" y="1620" angle="90" identifier="uD4KeTh10s"/>
  <outline>
    <contour>
      <point x="1172" y="416" type="line"/>
      <point x="640" y="892" type="line"/>
      <point x="640" y="900" type="line"/>
      <point x="1172" y="1376" type="line"/>
      <point x="908" y="1620" type="line"/>
      <point x="104" y="896" type="line"/>
      <point x="908" y="172" type="line"/>
    </contour>
  </outline>
</glyph>
<glyph name="equal" format="2">
  <advance width="1568"/>
  <unicode hex="003D"/>
  <guideline x="532" y="896" angle="0" identifier="yQGrHRbg72"/>
  <outline>
    <contour>
      <point x="208" y="748" type="line"/>
      <point x="208" y="396" type="line"/>
      <point x="1360" y="396" type="line"/>
      <point x="1360" y="748" type="line"/>
    </contour>
    <contour>
      <point x="208" y="1396" type="line"/>
      <point x="208" y="1044" type="line"/>
      <point x="1360" y="1044" type="line"/>
      <point x="1360" y="1396" type="line"/>
    </contour>
  </outline>
</glyph>
<glyph name="question" format="2">
  <advance width="1568"/>
  <unicode hex="003F"/>
  <guideline x="0" y="2351.25" angle="0" identifier="STnCzOjCpC"/>
  <guideline x="0" y="834.625" angle="0" identifier="e0npxyEZaI"/>
  <guideline x="459.25" y="0" angle="90" identifier="htpfPSLiZn"/>
  <outline>
    <contour>
      <point x="952" y="636" type="line"/>
      <point x="964" y="1032"/>
      <point x="1424" y="1092"/>
      <point x="1424" y="1528" type="curve" smooth="yes"/>
      <point x="1424" y="1884"/>
      <point x="1184" y="2076"/>
      <point x="788" y="2076" type="curve" smooth="yes"/>
      <point x="432" y="2076"/>
      <point x="152" y="1904"/>
      <point x="148" y="1492" type="curve"/>
      <point x="592" y="1492" type="line"/>
      <point x="596" y="1652"/>
      <point x="688" y="1716"/>
      <point x="788" y="1716" type="curve" smooth="yes"/>
      <point x="916" y="1716"/>
      <point x="980" y="1652"/>
      <point x="980" y="1508" type="curve" smooth="yes"/>
      <point x="980" y="1224"/>
      <point x="572" y="1228"/>
      <point x="572" y="636" type="curve"/>
    </contour>
    <contour>
      <point x="768" y="-16" type="curve" smooth="yes"/>
      <point x="912" y="-16"/>
      <point x="1012" y="84"/>
      <point x="1012" y="216" type="curve" smooth="yes"/>
      <point x="1012" y="348"/>
      <point x="912" y="448"/>
      <point x="768" y="448" type="curve" smooth="yes"/>
      <point x="620" y="448"/>
      <point x="520" y="348"/>
      <point x="520" y="216" type="curve" smooth="yes"/>
      <point x="520" y="84"/>
      <point x="620" y="-16"/>
    </contour>
  </outline>
</glyph>
<glyph name="A" format="2">
  <advance width="2168"/>
  <unicode hex="0041"/>
  <guideline x="0" y="1894.75" angle="0" identifier="pG9SXZt1SE"/>
  <guideline x="1084" y="964" angle="90" identifier="NpIyPfUXL3"/>
  <anchor x="1084" y="2200" name="top"/>
  <anchor x="1084" y="12" name="bottom"/>
  <anchor x="2088" y="0" name="right"/>
  <anchor x="568" y="2000" name="tonos"/>
  <anchor x="1952" y="0" name="ogonek"/>
  <anchor x="2096" y="2200" name="top_dd"/>
  <anchor x="1968" y="-560" name="bottom_dd"/>
  <anchor x="2096" y="2200" name="top0315"/>
  <outline>
    <contour>
      <point x="1676" y="756" type="line"/>
      <point x="492" y="756" type="line"/>
      <point x="492" y="384" type="line"/>
      <point x="1676" y="384" type="line"/>
    </contour>
    <component base="Lambda"/>
  </outline>
</glyph>
<glyph name="B" format="2">
  <advance width="1784"/>
  <unicode hex="0042"/>
  <anchor x="876" y="2260" name="top"/>
  <anchor x="928" y="24" name="bottom"/>
  <anchor x="1920" y="2244" name="top_dd"/>
  <anchor x="1920" y="-560" name="bottom_dd"/>
  <anchor x="1920" y="2260" name="top0315"/>
  <outline>
    <contour>
      <point x="964" y="876" type="line"/>
      <point x="1096" y="1040" type="line"/>
      <point x="1488" y="1044"/>
      <point x="1648" y="1220"/>
      <point x="1648" y="1488" type="curve"/>
      <point x="1648" y="1816"/>
      <point x="1408" y="2048"/>
      <point x="912" y="2048" type="curve"/>
      <point x="144" y="2048" type="line"/>
      <point x="144" y="0" type="line"/>
      <point x="608" y="0" type="line"/>
      <point x="608" y="1664" type="line"/>
      <point x="900" y="1664" type="line"/>
      <point x="1128" y="1664"/>
      <point x="1188" y="1548"/>
      <point x="1188" y="1424" type="curve"/>
      <point x="1188" y="1268"/>
      <point x="1096" y="1196"/>
      <point x="872" y="1196" type="curve"/>
      <point x="436" y="1196" type="line"/>
      <point x="436" y="876" type="line"/>
    </contour>
    <contour>
      <point x="984" y="0" type="line"/>
      <point x="1440" y="0"/>
      <point x="1688" y="224"/>
      <point x="1688" y="556" type="curve" smooth="yes"/>
      <point x="1688" y="820"/>
      <point x="1532" y="1012"/>
      <point x="1288" y="1044" type="curve"/>
      <point x="1288" y="1196" type="line"/>
      <point x="548" y="1196" type="line"/>
      <point x="548" y="876" type="line"/>
      <point x="964" y="876" type="line" smooth="yes"/>
      <point x="1156" y="876"/>
      <point x="1232" y="760"/>
      <point x="1232" y="620" type="curve" smooth="yes"/>
      <point x="1232" y="472"/>
      <point x="1148" y="384"/>
      <point x="948" y="384" type="curve" smooth="yes"/>
      <point x="380" y="384" type="line"/>
      <point x="380" y="0" type="line"/>
    </contour>
  </outline>
</glyph>
<glyph name="C" format="2">
  <advance width="1984"/>
  <unicode hex="0043"/>
  <guideline x="1364" y="1340" angle="8.0272375104" identifier="CSgVt1nIED"/>
  <guideline x="1360" y="696" angle="351.9642892895" identifier="5qfqUlf1SY"/>
  <guideline x="1024" y="2104" angle="90" identifier="fWT5h07KBe"/>
  <anchor x="1024" y="2200" name="top"/>
  <anchor x="1024" y="0" name="bottom"/>
  <anchor x="1932" y="2200" name="top_dd"/>
  <anchor x="1932" y="-560" name="bottom_dd"/>
  <anchor x="1932" y="2200" name="top0315"/>
  <outline>
    <contour>
      <point x="1876" y="1404" type="line"/>
      <point x="1764" y="1836"/>
      <point x="1432" y="2076"/>
      <point x="1024" y="2076" type="curve" smooth="yes"/>
      <point x="504" y="2076"/>
      <point x="120" y="1688"/>
      <point x="120" y="1020" type="curve"/>
      <point x="120" y="356"/>
      <point x="504" y="-28"/>
      <point x="1024" y="-28" type="curve" smooth="yes"/>
      <point x="1432" y="-28"/>
      <point x="1760" y="208"/>
      <point x="1872" y="632" type="curve"/>
      <point x="1420" y="696" type="line"/>
      <point x="1360" y="488"/>
      <point x="1216" y="388"/>
      <point x="1024" y="388" type="curve" smooth="yes"/>
      <point x="764" y="388"/>
      <point x="588" y="568"/>
      <point x="588" y="1020" type="curve"/>
      <point x="588" y="1472"/>
      <point x="764" y="1660"/>
      <point x="1024" y="1660" type="curve" smooth="yes"/>
      <point x="1216" y="1660"/>
      <point x="1368" y="1556"/>
      <point x="1428" y="1340" type="curve"/>
    </contour>
  </outline>
</glyph>
<glyph name="D" format="2">
  <advance width="1960"/>
  <unicode hex="0044"/>
  <guideline x="1908" y="1024" angle="0" identifier="9qNUvnxCub"/>
  <guideline x="0" y="763.125" angle="0" identifier="QwCVddIpBc"/>
  <guideline x="0" y="1549.625" angle="0" identifier="Vd0rxViCbP"/>
  <guideline x="1872" y="1696" angle="0" identifier="P3rkpaYZYo"/>
  <guideline x="1872" y="348" angle="0" identifier="GV4yvnjLoc"/>
  <guideline x="1408" y="1480" angle="0" identifier="7HCKVNymdb"/>
  <guideline x="1472" y="560" angle="0" identifier="7LAvHUiaSH"/>
  <anchor x="784" y="2200" name="top"/>
  <anchor x="552" y="1000" name="cross"/>
  <anchor x="784" y="16" name="bottom"/>
  <anchor x="1924" y="2200" name="top_dd"/>
  <anchor x="1924" y="-560" name="bottom_dd"/>
  <anchor x="1924" y="2200" name="top0315"/>
  <outline>
    <contour>
      <point x="868" y="0" type="line"/>
      <point x="1468" y="0"/>
      <point x="1840" y="384"/>
      <point x="1840" y="1024" type="curve"/>
      <point x="1840" y="1664"/>
      <point x="1468" y="2048"/>
      <point x="868" y="2048" type="curve"/>
      <point x="336" y="2048" type="line"/>
      <point x="336" y="1648" type="line"/>
      <point x="844" y="1648" type="line"/>
      <point x="1188" y="1648"/>
      <point x="1372" y="1472"/>
      <point x="1372" y="1024" type="curve"/>
      <point x="1372" y="576"/>
      <point x="1188" y="400"/>
      <point x="848" y="400" type="curve"/>
      <point x="344" y="400" type="line"/>
      <point x="344" y="0" type="line"/>
    </contour>
    <contour>
      <point x="608" y="2048" type="line"/>
      <point x="144" y="2048" type="line"/>
      <point x="144" y="0" type="line"/>
      <point x="608" y="0" type="line"/>
    </contour>
  </outline>
</glyph>
<glyph name="E" format="2">
  <advance width="1656"/>
  <unicode hex="0045"/>
  <guideline x="0" y="1358.5" angle="0" identifier="EuBouBrhNs"/>
  <anchor x="848" y="2200" name="top"/>
  <anchor x="900" y="16" name="bottom"/>
  <anchor x="-72" y="2004" name="tonos"/>
  <anchor x="1292" y="0" name="ogonek"/>
  <anchor x="1584" y="2200" name="top_dd"/>
  <anchor x="1648" y="-560" name="bottom_dd"/>
  <anchor x="1584" y="2200" name="top0315"/>
  <outline>
    <contour>
      <point x="1512" y="384" type="line"/>
      <point x="448" y="384" type="line"/>
      <point x="448" y="0" type="line"/>
      <point x="1512" y="0" type="line"/>
    </contour>
    <contour>
      <point x="608" y="2048" type="line"/>
      <point x="144" y="2048" type="line"/>
      <point x="144" y="0" type="line"/>
      <point x="608" y="0" type="line"/>
    </contour>
    <contour>
      <point x="1372" y="1216" type="line"/>
      <point x="448" y="1216" type="line"/>
      <point x="448" y="832" type="line"/>
      <point x="1372" y="832" type="line"/>
    </contour>
    <contour>
      <point x="1512" y="2048" type="line"/>
      <point x="448" y="2048" type="line"/>
      <point x="448" y="1664" type="line"/>
      <point x="1512" y="1664" type="line"/>
    </contour>
  </outline>
</glyph>
<glyph name="F" format="2">
  <advance width="1656"/>
  <unicode hex="0046"/>
  <guideline x="0" y="1320" angle="0" identifier="NlOxXuypob"/>
  <anchor x="540" y="400" name="cross"/>
  <anchor x="968" y="2216" name="top"/>
  <anchor x="816" y="16" name="bottom"/>
  <anchor x="1628" y="2200" name="top_dd"/>
  <anchor x="1628" y="-560" name="bottom_dd"/>
  <anchor x="1628" y="2216" name="top0315"/>
  <outline>
    <contour>
      <point x="608" y="2048" type="line"/>
      <point x="144" y="2048" type="line"/>
      <point x="144" y="0" type="line"/>
      <point x="608" y="0" type="line"/>
    </contour>
    <contour>
      <point x="1372" y="1216" type="line"/>
      <point x="460" y="1216" type="line"/>
      <point x="460" y="832" type="line"/>
      <point x="1372" y="832" type="line"/>
    </contour>
    <contour>
      <point x="1512" y="2048" type="line"/>
      <point x="476" y="2048" type="line"/>
      <point x="476" y="1664" type="line"/>
      <point x="1512" y="1664" type="line"/>
    </contour>
  </outline>
</glyph>
<glyph name="G" format="2">
  <advance width="2000"/>
  <unicode hex="0047"/>
  <guideline x="1024" y="1320" angle="7.9575252269" identifier="4e0tJfVnFB"/>
  <guideline x="1024" y="528" angle="90" identifier="kKwwdmJ0JZ"/>
  <guideline x="1360" y="756" angle="0" identifier="XAOLHIIX9A"/>
  <anchor x="1024" y="2200" name="top"/>
  <anchor x="1024" y="0" name="bottom"/>
  <anchor x="2012" y="2200" name="top_dd"/>
  <anchor x="2012" y="-560" name="bottom_dd"/>
  <anchor x="2012" y="2200" name="top0315"/>
  <outline>
    <contour>
      <point x="1872" y="1096" type="line"/>
      <point x="1024" y="1096" type="line"/>
      <point x="1024" y="756" type="line"/>
      <point x="1872" y="756" type="line"/>
    </contour>
    <contour>
      <point x="1864" y="1436" type="line"/>
      <point x="1736" y="1852"/>
      <point x="1408" y="2076"/>
      <point x="1016" y="2076" type="curve" smooth="yes"/>
      <point x="504" y="2076"/>
      <point x="120" y="1696"/>
      <point x="120" y="1020" type="curve"/>
      <point x="120" y="348"/>
      <point x="508" y="-28"/>
      <point x="1024" y="-28" type="curve" smooth="yes"/>
      <point x="1492" y="-28"/>
      <point x="1872" y="284"/>
      <point x="1872" y="756" type="curve"/>
      <point x="1420" y="756" type="line"/>
      <point x="1420" y="524"/>
      <point x="1244" y="388"/>
      <point x="1024" y="388" type="curve" smooth="yes"/>
      <point x="776" y="388"/>
      <point x="588" y="560"/>
      <point x="588" y="1020" type="curve"/>
      <point x="588" y="1480"/>
      <point x="772" y="1660"/>
      <point x="1016" y="1660" type="curve" smooth="yes"/>
      <point x="1184" y="1660"/>
      <point x="1336" y="1576"/>
      <point x="1396" y="1372" type="curve"/>
    </contour>
  </outline>
</glyph>
<glyph name="H" format="2">
  <advance width="1952"/>
  <unicode hex="0048"/>
  <guideline x="0" y="1651.375" angle="0" identifier="iw0CQ5B2aw"/>
  <anchor x="1048" y="2200" name="top"/>
  <anchor x="1868" y="0" name="right"/>
  <anchor x="-88" y="1996" name="tonos"/>
  <anchor x="1052" y="16" name="bottom"/>
  <anchor x="2032" y="2200" name="top_dd"/>
  <anchor x="2032" y="-560" name="bottom_dd"/>
  <anchor x="2032" y="2200" name="top0315"/>
  <outline>
    <contour>
      <point x="1484" y="1216" type="line"/>
      <point x="456" y="1216" type="line"/>
      <point x="456" y="832" type="line"/>
      <point x="1484" y="832" type="line"/>
    </contour>
    <contour>
      <point x="608" y="2048" type="line"/>
      <point x="144" y="2048" type="line"/>
      <point x="144" y="0" type="line"/>
      <point x="608" y="0" type="line"/>
    </contour>
    <contour>
      <point x="1808" y="2048" type="line"/>
      <point x="1344" y="2048" type="line"/>
      <point x="1344" y="0" type="line"/>
      <point x="1808" y="0" type="line"/>
    </contour>
  </outline>
</glyph>
<glyph name="I" format="2">
  <advance width="752"/>
  <unicode hex="0049"/>
  <guideline x="0" y="1238.875" angle="0" identifier="nKhjRkc22Y"/>
  <guideline x="0" y="763.125" angle="0" identifier="t9iArfoTUb"/>
  <guideline x="0" y="292.875" angle="0" identifier="PHFwTFsReZ"/>
  <anchor x="376" y="2200" name="top"/>
  <anchor x="376" y="0" name="bottom"/>
  <anchor x="-184" y="2004" name="tonos"/>
  <anchor x="596" y="0" name="right"/>
  <anchor x="516" y="0" name="ogonek"/>
  <anchor x="800" y="2200" name="top_dd"/>
  <anchor x="800" y="-560" name="bottom_dd"/>
  <anchor x="800" y="2200" name="top0315"/>
  <outline>
    <contour>
      <point x="608" y="2048" type="line"/>
      <point x="144" y="2048" type="line"/>
      <point x="144" y="0" type="line"/>
      <point x="608" y="0" type="line"/>
    </contour>
  </outline>
</glyph>
<glyph name="J" format="2">
  <advance width="1612"/>
  <unicode hex="004A"/>
  <guideline x="0" y="1238.875" angle="0" identifier="vGApMaIHaE"/>
  <guideline x="0" y="763.125" angle="0" identifier="7KkfyxuE2p"/>
  <guideline x="0" y="1358.5" angle="0" identifier="kfJjC1HP6u"/>
  <anchor x="1228" y="2200" name="top"/>
  <anchor x="752" y="-16" name="bottom"/>
  <anchor x="1628" y="2200" name="top_dd"/>
  <anchor x="1628" y="-560" name="bottom_dd"/>
  <anchor x="1628" y="2200" name="top0315"/>
  <outline>
    <contour>
      <point x="1008" y="628" type="line"/>
      <point x="1008" y="452"/>
      <point x="924" y="344"/>
      <point x="784" y="344" type="curve" smooth="yes"/>
      <point x="652" y="344"/>
      <point x="568" y="436"/>
      <point x="564" y="604" type="curve"/>
      <point x="100" y="604" type="line"/>
      <point x="100" y="172"/>
      <point x="388" y="-28"/>
      <point x="784" y="-28" type="curve" smooth="yes"/>
      <point x="1172" y="-28"/>
      <point x="1468" y="228"/>
      <point x="1468" y="628" type="curve"/>
      <point x="1468" y="2048" type="line"/>
      <point x="1008" y="2048" type="line"/>
    </contour>
  </outline>
</glyph>
<glyph name="K" format="2">
  <advance width="2048"/>
  <unicode hex="004B"/>
  <guideline x="0" y="1651.375" angle="0" identifier="Ghn8L6fcQP"/>
  <guideline x="2016" y="2048" angle="227.713409445" identifier="yoqxK1OGYN"/>
  <anchor x="940" y="2" name="bottom"/>
  <anchor x="1824" y="0" name="right"/>
  <anchor x="388" y="1684" name="cross"/>
  <anchor x="864" y="2200" name="top"/>
  <anchor x="1972" y="2200" name="top_dd"/>
  <anchor x="1972" y="-560" name="bottom_dd"/>
  <anchor x="1972" y="2200" name="top0315"/>
  <outline>
    <contour>
      <point x="608" y="2048" type="line"/>
      <point x="144" y="2048" type="line"/>
      <point x="144" y="0" type="line"/>
      <point x="608" y="0" type="line"/>
    </contour>
    <contour>
      <point x="2016" y="2048" type="line"/>
      <point x="1408" y="2048" type="line"/>
      <point x="636" y="1192" type="line"/>
      <point x="564" y="1192" type="line"/>
      <point x="564" y="452" type="line"/>
      <point x="892" y="812" type="line"/>
      <point x="996" y="940" type="line"/>
    </contour>
    <contour>
      <point x="1400" y="0" type="line"/>
      <point x="1956" y="0" type="line"/>
      <point x="1084" y="1180" type="line"/>
      <point x="744" y="904" type="line"/>
    </contour>
  </outline>
</glyph>
<glyph name="L" format="2">
  <advance width="1568"/>
  <unicode hex="004C"/>
  <guideline x="0" y="1304.875" angle="0" identifier="7Rn1t3t8ft"/>
  <anchor x="372" y="2200" name="top"/>
  <anchor x="784" y="16" name="bottom"/>
  <anchor x="896" y="2004" name="caron"/>
  <anchor x="792" y="1168" name="dot"/>
  <anchor x="1492" y="2200" name="top_dd"/>
  <anchor x="1492" y="-560" name="bottom_dd"/>
  <anchor x="1492" y="2200" name="top0315"/>
  <outline>
    <contour>
      <point x="1436" y="384" type="line"/>
      <point x="448" y="384" type="line"/>
      <point x="448" y="0" type="line"/>
      <point x="1436" y="0" type="line"/>
    </contour>
    <contour>
      <point x="608" y="2048" type="line"/>
      <point x="144" y="2048" type="line"/>
      <point x="144" y="0" type="line"/>
      <point x="608" y="0" type="line"/>
    </contour>
  </outline>
</glyph>
<glyph name="M" format="2">
  <advance width="2560"/>
  <unicode hex="004D"/>
  <guideline x="0" y="1219.625" angle="0" identifier="jvp16GhbQN"/>
  <guideline x="1280" y="1848" angle="90" identifier="Xx0sx6iK54"/>
  <guideline x="744" y="2164" angle="90" identifier="n9ClIyYsl4"/>
  <guideline x="1816" y="2040" angle="90" identifier="2uqxGvd1Yb"/>
  <anchor x="1280" y="2200" name="top"/>
  <anchor x="2364" y="0" name="right"/>
  <anchor x="1280" y="4" name="bottom"/>
  <anchor x="2532" y="2200" name="top_dd"/>
  <anchor x="2532" y="-560" name="bottom_dd"/>
  <anchor x="2532" y="2200" name="top0315"/>
  <outline>
    <contour>
      <point x="144" y="2048" type="line"/>
      <point x="144" y="0" type="line"/>
      <point x="608" y="0" type="line"/>
      <point x="608" y="1340" type="line"/>
      <point x="624" y="1340" type="line"/>
      <point x="1124" y="32" type="line"/>
      <point x="1436" y="32" type="line"/>
      <point x="1936" y="1332" type="line"/>
      <point x="1952" y="1332" type="line"/>
      <point x="1952" y="0" type="line"/>
      <point x="2416" y="0" type="line"/>
      <point x="2416" y="2048" type="line"/>
      <point x="1816" y="2048" type="line"/>
      <point x="1292" y="736" type="line"/>
      <point x="1268" y="736" type="line"/>
      <point x="744" y="2048" type="line"/>
    </contour>
  </outline>
</glyph>
<glyph name="N" format="2">
  <advance width="1952"/>
  <unicode hex="004E"/>
  <guideline x="0" y="1650" angle="0" identifier="XhlpkgOvH6"/>
  <anchor x="1048" y="2200" name="top"/>
  <anchor x="1048" y="0" name="bottom"/>
  <anchor x="1868" y="0" name="right"/>
  <anchor x="2032" y="2200" name="top_dd"/>
  <anchor x="2032" y="-560" name="bottom_dd"/>
  <anchor x="2032" y="2200" name="top0315"/>
  <outline>
    <contour>
      <point x="1808" y="2048" type="line"/>
      <point x="1344" y="2048" type="line"/>
      <point x="1344" y="788" type="line"/>
      <point x="1328" y="788" type="line"/>
      <point x="604" y="2048" type="line"/>
      <point x="144" y="2048" type="line"/>
      <point x="144" y="0" type="line"/>
      <point x="608" y="0" type="line"/>
      <point x="608" y="1260" type="line"/>
      <point x="624" y="1260" type="line"/>
      <point x="1352" y="0" type="line"/>
      <point x="1808" y="0" type="line"/>
    </contour>
  </outline>
</glyph>
<glyph name="O" format="2">
  <advance width="2040"/>
  <unicode hex="004F"/>
  <guideline x="1024" y="2104" angle="90" identifier="O6huv0Lktm"/>
  <anchor x="1024" y="2200" name="top"/>
  <anchor x="1024" y="0" name="bottom"/>
  <anchor x="188" y="2000" name="tonos"/>
  <anchor x="1992" y="2200" name="top_dd"/>
  <anchor x="1992" y="-560" name="bottom_dd"/>
  <anchor x="1992" y="2200" name="top0315"/>
  <outline>
    <contour>
      <point x="1920" y="1020" type="curve"/>
      <point x="1920" y="1696"/>
      <point x="1532" y="2076"/>
      <point x="1024" y="2076" type="curve" smooth="yes"/>
      <point x="512" y="2076"/>
      <point x="120" y="1696"/>
      <point x="120" y="1020" type="curve"/>
      <point x="120" y="348"/>
      <point x="512" y="-28"/>
      <point x="1024" y="-28" type="curve" smooth="yes"/>
      <point x="1532" y="-28"/>
      <point x="1920" y="348"/>
    </contour>
    <contour>
      <point x="1452" y="1020" type="curve"/>
      <point x="1452" y="560"/>
      <point x="1276" y="388"/>
      <point x="1024" y="388" type="curve" smooth="yes"/>
      <point x="772" y="388"/>
      <point x="588" y="560"/>
      <point x="588" y="1020" type="curve"/>
      <point x="588" y="1480"/>
      <point x="772" y="1660"/>
      <point x="1024" y="1660" type="curve" smooth="yes"/>
      <point x="1276" y="1660"/>
      <point x="1452" y="1480"/>
    </contour>
  </outline>
</glyph>
<glyph name="P" format="2">
  <advance width="1796"/>
  <unicode hex="0050"/>
  <guideline x="0" y="1238.875" angle="0" identifier="6dOIZ6Ag1s"/>
  <guideline x="0" y="763.125" angle="0" identifier="GEoqjHLodl"/>
  <guideline x="0" y="1552.375" angle="0" identifier="WHOKmxUll2"/>
  <guideline x="808" y="1372" angle="0" identifier="KeJDqzA8or"/>
  <anchor x="28" y="2000" name="tonos"/>
  <anchor x="920" y="2216" name="top"/>
  <anchor x="828" y="16" name="bottom"/>
  <anchor x="1928" y="2200" name="top_dd"/>
  <anchor x="1928" y="-560" name="bottom_dd"/>
  <anchor x="1928" y="2216" name="top0315"/>
  <outline>
    <contour>
      <point x="936" y="704" type="line"/>
      <point x="1448" y="704"/>
      <point x="1668" y="960"/>
      <point x="1668" y="1372" type="curve"/>
      <point x="1668" y="1776"/>
      <point x="1460" y="2048"/>
      <point x="936" y="2048" type="curve"/>
      <point x="144" y="2048" type="line"/>
      <point x="144" y="0" type="line"/>
      <point x="608" y="0" type="line"/>
      <point x="608" y="1664" type="line"/>
      <point x="936" y="1664" type="line"/>
      <point x="1136" y="1664"/>
      <point x="1208" y="1532"/>
      <point x="1208" y="1372" type="curve"/>
      <point x="1208" y="1212"/>
      <point x="1136" y="1084"/>
      <point x="936" y="1084" type="curve"/>
      <point x="436" y="1084" type="line"/>
      <point x="436" y="704" type="line"/>
    </contour>
  </outline>
</glyph>
<glyph name="Q" format="2">
  <advance width="2040"/>
  <unicode hex="0051"/>
  <guideline x="1024" y="1432" angle="90" identifier="AaBO3B6S7d"/>
  <anchor x="1024" y="2200" name="top"/>
  <anchor x="1024" y="-16" name="bottom"/>
  <anchor x="2012" y="2200" name="top_dd"/>
  <anchor x="2012" y="-560" name="bottom_dd"/>
  <anchor x="2012" y="2200" name="top0315"/>
  <outline>
    <contour>
      <point x="840" y="704" type="line"/>
      <point x="1112" y="316" type="line"/>
      <point x="1228" y="124" type="line"/>
      <point x="1448" y="-192" type="line"/>
      <point x="1876" y="-192" type="line"/>
      <point x="1556" y="264" type="line"/>
      <point x="1364" y="500" type="line"/>
      <point x="1220" y="704" type="line"/>
    </contour>
    <component base="O"/>
  </outline>
</glyph>
<glyph name="S" format="2">
  <advance width="1776"/>
  <unicode hex="0053"/>
  <guideline x="0" y="2279.75" angle="0" identifier="eLojgHgKXq"/>
  <guideline x="0" y="763.125" angle="0" identifier="oh2Wp10dD0"/>
  <guideline x="0" y="1552.375" angle="0" identifier="LJkreBewTu"/>
  <anchor x="912" y="2200" name="top"/>
  <anchor x="912" y="0" name="bottom"/>
  <anchor x="1760" y="2200" name="top_dd"/>
  <anchor x="1760" y="-560" name="bottom_dd"/>
  <anchor x="1760" y="2200" name="top0315"/>
  <outline>
    <contour>
      <point x="1208" y="1440" type="curve"/>
      <point x="1648" y="1440" type="line"/>
      <point x="1648" y="1828"/>
      <point x="1344" y="2076"/>
      <point x="904" y="2076" type="curve" smooth="yes"/>
      <point x="464" y="2076"/>
      <point x="144" y="1844"/>
      <point x="144" y="1500" type="curve"/>
      <point x="144" y="1196"/>
      <point x="396" y="1000"/>
      <point x="736" y="896" type="curve" smooth="yes"/>
      <point x="776" y="884" type="line" smooth="yes"/>
      <point x="1092" y="784"/>
      <point x="1200" y="696"/>
      <point x="1200" y="572" type="curve" smooth="yes" name="hr00"/>
      <point x="1200" y="464"/>
      <point x="1108" y="356"/>
      <point x="892" y="356" type="curve" smooth="yes"/>
      <point x="676" y="356"/>
      <point x="540" y="464"/>
      <point x="532" y="664" type="curve"/>
      <point x="84" y="664" type="line"/>
      <point x="84" y="180"/>
      <point x="484" y="-28"/>
      <point x="892" y="-28" type="curve" smooth="yes"/>
      <point x="1336" y="-28"/>
      <point x="1648" y="188"/>
      <point x="1648" y="576" type="curve"/>
      <point x="1648" y="908"/>
      <point x="1420" y="1076"/>
      <point x="1036" y="1212" type="curve" smooth="yes"/>
      <point x="980" y="1236" type="line" smooth="yes"/>
      <point x="760" y="1316"/>
      <point x="596" y="1368"/>
      <point x="596" y="1496" type="curve"/>
      <point x="596" y="1612"/>
      <point x="724" y="1688"/>
      <point x="904" y="1688" type="curve" smooth="yes"/>
      <point x="1104" y="1688"/>
      <point x="1200" y="1592"/>
    </contour>
  </outline>
</glyph>
<glyph name="T" format="2">
  <advance width="1820"/>
  <unicode hex="0054"/>
  <anchor x="900" y="2200" name="top"/>
  <anchor x="900" y="16" name="bottom"/>
  <anchor x="1076" y="0" name="right"/>
  <anchor x="860" y="1120" name="cross"/>
  <anchor x="1792" y="2200" name="top_dd"/>
  <anchor x="1792" y="-560" name="bottom_dd"/>
  <anchor x="1792" y="2200" name="top0315"/>
  <outline>
    <contour>
      <point x="1140" y="2048" type="line"/>
      <point x="680" y="2048" type="line"/>
      <point x="680" y="0" type="line"/>
      <point x="1140" y="0" type="line"/>
    </contour>
    <contour>
      <point x="1740" y="2048" type="line"/>
      <point x="80" y="2048" type="line"/>
      <point x="80" y="1664" type="line"/>
      <point x="1740" y="1664" type="line"/>
    </contour>
  </outline>
</glyph>
<glyph name="U" format="2">
  <advance width="1952"/>
  <unicode hex="0055"/>
  <guideline x="0" y="1238.875" angle="0" identifier="NMFChpHilJ"/>
  <guideline x="0" y="763.125" angle="0" identifier="O14U3qk3u6"/>
  <guideline x="0" y="1552.375" angle="0" identifier="b7jK8NALJc"/>
  <anchor x="976" y="2200" name="top"/>
  <anchor x="908" y="0" name="bottom"/>
  <anchor x="1132" y="0" name="right"/>
  <anchor x="1412" y="104" name="ogonek"/>
  <anchor x="1864" y="2200" name="top_dd"/>
  <anchor x="1848" y="-560" name="bottom_dd"/>
  <anchor x="1864" y="2200" name="top0315"/>
  <outline>
    <contour>
      <point x="1344" y="2048" type="line"/>
      <point x="1344" y="712" type="line" smooth="yes"/>
      <point x="1344" y="512"/>
      <point x="1200" y="388"/>
      <point x="980" y="388" type="curve" smooth="yes"/>
      <point x="760" y="388"/>
      <point x="608" y="512"/>
      <point x="608" y="712" type="curve" smooth="yes"/>
      <point x="608" y="2048" type="line"/>
      <point x="144" y="2048" type="line"/>
      <point x="144" y="696" type="line"/>
      <point x="144" y="228"/>
      <point x="484" y="-28"/>
      <point x="980" y="-28" type="curve" smooth="yes"/>
      <point x="1472" y="-28"/>
      <point x="1808" y="228"/>
      <point x="1808" y="696" type="curve"/>
      <point x="1808" y="2048" type="line"/>
    </contour>
  </outline>
</glyph>
<glyph name="V" format="2">
  <advance width="2168"/>
  <unicode hex="0056"/>
  <guideline x="1104" y="1048" angle="90" identifier="StOB5Eh6BZ"/>
  <anchor x="1080" y="2216" name="top"/>
  <anchor x="1080" y="16" name="bottom"/>
  <anchor x="2012" y="2200" name="top_dd"/>
  <anchor x="2012" y="-560" name="bottom_dd"/>
  <anchor x="2012" y="2216" name="top0315"/>
  <outline>
    <contour>
      <point x="568" y="2048" type="line"/>
      <point x="80" y="2048" type="line"/>
      <point x="836" y="0" type="line"/>
      <point x="1332" y="0" type="line"/>
      <point x="2088" y="2048" type="line"/>
      <point x="1600" y="2048" type="line"/>
      <point x="1096" y="580" type="line"/>
      <point x="1072" y="580" type="line"/>
    </contour>
  </outline>
</glyph>
<glyph name="W" format="2">
  <advance width="2896"/>
  <unicode hex="0057"/>
  <guideline x="0" y="2512.125" angle="0" identifier="WW9oEoAd61"/>
  <guideline x="1448" y="2076" angle="90" identifier="1xe9gzJlPp"/>
  <guideline x="880" y="988" angle="90" identifier="gnVa8KeAl7"/>
  <guideline x="2016" y="852" angle="90" identifier="wN0SdA3TNp"/>
  <guideline x="2368" y="2120" angle="90" identifier="1GCZ6RWtnF"/>
  <guideline x="528" y="2084" angle="90" identifier="5oJOpMnmn2"/>
  <anchor x="1448" y="2200" name="top"/>
  <anchor x="1448" y="16" name="bottom"/>
  <anchor x="2612" y="2200" name="top_dd"/>
  <anchor x="2612" y="-560" name="bottom_dd"/>
  <anchor x="2612" y="2200" name="top0315"/>
  <outline>
    <contour>
      <point x="528" y="2048" type="line"/>
      <point x="108" y="2048" type="line"/>
      <point x="628" y="0" type="line"/>
      <point x="1100" y="0" type="line"/>
      <point x="1440" y="1284" type="line"/>
      <point x="1456" y="1284" type="line"/>
      <point x="1796" y="0" type="line"/>
      <point x="2268" y="0" type="line"/>
      <point x="2788" y="2048" type="line"/>
      <point x="2368" y="2048" type="line"/>
      <point x="2024" y="668" type="line"/>
      <point x="2008" y="668" type="line"/>
      <point x="1652" y="2048" type="line"/>
      <point x="1244" y="2048" type="line"/>
      <point x="888" y="672" type="line"/>
      <point x="872" y="672" type="line"/>
    </contour>
  </outline>
</glyph>
<glyph name="X" format="2">
  <advance width="1976"/>
  <unicode hex="0058"/>
  <guideline x="988" y="2152" angle="90" identifier="dqsBAIP54O"/>
  <guideline x="88" y="2084" angle="90" identifier="URGfYlujhg"/>
  <guideline x="1888" y="2080" angle="90" identifier="eJDRlxnBS3"/>
  <guideline x="1148" y="1024" angle="0" identifier="NDSDfOk4Em"/>
  <anchor x="988" y="0" name="bottom"/>
  <anchor x="1652" y="0" name="right"/>
  <anchor x="988" y="1024" name="cross"/>
  <anchor x="988" y="2216" name="top"/>
  <anchor x="1888" y="2200" name="top_dd"/>
  <anchor x="1888" y="-560" name="bottom_dd"/>
  <anchor x="1888" y="2216" name="top0315"/>
  <outline>
    <contour>
      <point x="612" y="2048" type="line"/>
      <point x="88" y="2048" type="line"/>
      <point x="684" y="1024" type="line"/>
      <point x="72" y="0" type="line"/>
      <point x="604" y="0" type="line"/>
      <point x="980" y="672" type="line"/>
      <point x="996" y="672" type="line"/>
      <point x="1372" y="0" type="line"/>
      <point x="1904" y="0" type="line"/>
      <point x="1292" y="1024" type="line"/>
      <point x="1888" y="2048" type="line"/>
      <point x="1364" y="2048" type="line"/>
      <point x="996" y="1380" type="line"/>
      <point x="980" y="1380" type="line"/>
    </contour>
  </outline>
</glyph>
<glyph name="Y" format="2">
  <advance width="2152"/>
  <unicode hex="0059"/>
  <guideline x="1076" y="1724" angle="90" identifier="kpJWPXU8QZ"/>
  <anchor x="1076" y="2200" name="top"/>
  <anchor x="944" y="64" name="bottom"/>
  <anchor x="956" y="832" name="cross"/>
  <anchor x="-32" y="2000" name="tonos"/>
  <anchor x="1972" y="2200" name="top_dd"/>
  <anchor x="1828" y="-560" name="bottom_dd"/>
  <anchor x="1972" y="2200" name="top0315"/>
  <outline>
    <contour>
      <point x="568" y="2048" type="line"/>
      <point x="64" y="2048" type="line"/>
      <point x="844" y="780" type="line"/>
      <point x="844" y="0" type="line"/>
      <point x="1308" y="0" type="line"/>
      <point x="1308" y="780" type="line"/>
      <point x="2088" y="2048" type="line"/>
      <point x="1584" y="2048" type="line"/>
      <point x="1076" y="1160" type="line"/>
    </contour>
    <contour>
      <point x="1052" y="1132" type="line"/>
      <point x="1100" y="1132" type="line"/>
      <point x="1100" y="1180" type="line"/>
      <point x="1052" y="1180" type="line"/>
    </contour>
  </outline>
</glyph>
<glyph name="Z" format="2">
  <advance width="1824"/>
  <unicode hex="005A"/>
  <guideline x="0" y="1553.75" angle="0" identifier="IMeYdGyB7U"/>
  <guideline x="1680" y="1788" angle="55.0453303695" identifier="Nsgw2TUVIV"/>
  <guideline x="124" y="276" angle="55.0342662866" identifier="LfzedukbdD"/>
  <guideline x="120" y="1664" angle="90" identifier="ZxthpCClNm"/>
  <guideline x="1672" y="384" angle="90" identifier="1VGCjhQbxd"/>
  <anchor x="916" y="2200" name="top"/>
  <anchor x="916" y="16" name="bottom"/>
  <anchor x="1760" y="2200" name="top_dd"/>
  <anchor x="1760" y="-560" name="bottom_dd"/>
  <anchor x="1760" y="2200" name="top0315"/>
  <outline>
    <contour>
      <point x="1688" y="384" type="line"/>
      <point x="316" y="384" type="line"/>
      <point x="316" y="0" type="line"/>
      <point x="1688" y="0" type="line"/>
    </contour>
    <contour>
      <point x="1688" y="1776" type="line"/>
      <point x="1688" y="2048" type="line"/>
      <point x="1380" y="2048" type="line"/>
      <point x="136" y="272" type="line"/>
      <point x="136" y="0" type="line"/>
      <point x="444" y="0" type="line"/>
    </contour>
    <contour>
      <point x="1500" y="2048" type="line"/>
      <point x="136" y="2048" type="line"/>
      <point x="136" y="1664" type="line"/>
      <point x="1500" y="1664" type="line"/>
    </contour>
  </outline>
</glyph>
<glyph name="bracketleft" format="2">
  <advance width="1072"/>
  <unicode hex="005B"/>
  <outline>
    <contour>
      <point x="976" y="2348" type="line"/>
      <point x="272" y="2348" type="line"/>
      <point x="272" y="-480" type="line"/>
      <point x="976" y="-480" type="line"/>
      <point x="976" y="-144" type="line"/>
      <point x="680" y="-144" type="line"/>
      <point x="680" y="2008" type="line"/>
      <point x="976" y="2008" type="line"/>
    </contour>
  </outline>
</glyph>
<glyph name="backslash" format="2">
  <advance width="1184"/>
  <unicode hex="005C"/>
  <guideline x="0" y="1238.875" angle="0" identifier="0rj89hAumy"/>
  <guideline x="0" y="763.125" angle="0" identifier="EFBgAp3j5C"/>
  <outline>
    <contour>
      <point x="96" y="2048" type="line"/>
      <point x="692" y="-308" type="line"/>
      <point x="1088" y="-308" type="line"/>
      <point x="492" y="2048" type="line"/>
    </contour>
  </outline>
</glyph>
<glyph name="bracketright" format="2">
  <advance width="1072"/>
  <unicode hex="005D"/>
  <outline>
    <contour>
      <point x="96" y="2348" type="line"/>
      <point x="96" y="2008" type="line"/>
      <point x="392" y="2008" type="line"/>
      <point x="392" y="-144" type="line"/>
      <point x="96" y="-144" type="line"/>
      <point x="96" y="-480" type="line"/>
      <point x="800" y="-480" type="line"/>
      <point x="800" y="2348" type="line"/>
    </contour>
  </outline>
</glyph>
<glyph name="asciicircum" format="2">
  <advance width="1312"/>
  <unicode hex="005E"/>
  <guideline x="0" y="248.875" angle="0" identifier="99hy9VR7zK"/>
  <guideline x="0" y="723.25" angle="0" identifier="p8ecsBu2Cr"/>
  <outline>
    <contour>
      <point x="668" y="1652" type="line"/>
      <point x="740" y="2004" type="line"/>
      <point x="492" y="2004" type="line"/>
      <point x="84" y="1004" type="line"/>
      <point x="420" y="1004" type="line"/>
    </contour>
    <contour>
      <point x="892" y="1004" type="line"/>
      <point x="1232" y="1004" type="line"/>
      <point x="820" y="2004" type="line"/>
      <point x="572" y="2004" type="line"/>
      <point x="644" y="1652" type="line"/>
    </contour>
  </outline>
</glyph>
<glyph name="underscore" format="2">
  <advance width="1312"/>
  <unicode hex="005F"/>
  <anchor x="632" y="184" name="_bottom"/>
  <outline>
    <contour>
      <point x="1280" y="0" type="line"/>
      <point x="32" y="0" type="line"/>
      <point x="32" y="-344" type="line"/>
      <point x="1280" y="-344" type="line"/>
    </contour>
  </outline>
</glyph>
<glyph name="grave" format="2">
  <advance width="1056"/>
  <unicode hex="0060"/>
  <anchor x="688" y="1776" name="_top"/>
  <anchor x="688" y="2296" name="mkmktop_acc"/>
  <outline>
    <contour>
      <point x="628" y="2112" type="line"/>
      <point x="156" y="2112" type="line"/>
      <point x="540" y="1680" type="line"/>
      <point x="900" y="1680" type="line"/>
    </contour>
  </outline>
</glyph>
<glyph name="a" format="2">
  <advance width="1552"/>
  <unicode hex="0061"/>
  <guideline x="0" y="2279.75" angle="0" identifier="GqpZ8WRnvM"/>
  <anchor x="780" y="1776" name="top"/>
  <anchor x="776" y="0" name="bottom"/>
  <anchor x="1396" y="0" name="ogonek"/>
  <anchor x="780" y="1776" name="rhalfring"/>
  <anchor x="1544" y="2200" name="top_dd"/>
  <anchor x="1544" y="-560" name="bottom_dd"/>
  <anchor x="1220" y="900" name="rhotichook"/>
  <anchor x="1552" y="1776" name="top0315"/>
  <outline>
    <contour>
      <point x="944" y="492" type="line" smooth="yes"/>
      <point x="944" y="384"/>
      <point x="824" y="304"/>
      <point x="704" y="304" type="curve" smooth="yes"/>
      <point x="604" y="304"/>
      <point x="540" y="360"/>
      <point x="540" y="444" type="curve" smooth="yes"/>
      <point x="540" y="556"/>
      <point x="600" y="620"/>
      <point x="784" y="640" type="curve" smooth="yes"/>
      <point x="840" y="648"/>
      <point x="920" y="664"/>
      <point x="944" y="688" type="curve"/>
    </contour>
    <contour>
      <point x="968" y="0" type="line"/>
      <point x="1408" y="0" type="line"/>
      <point x="1408" y="1040" type="line" smooth="yes"/>
      <point x="1408" y="1384"/>
      <point x="1144" y="1556"/>
      <point x="788" y="1556" type="curve" smooth="yes"/>
      <point x="416" y="1556"/>
      <point x="168" y="1368"/>
      <point x="120" y="1084" type="curve"/>
      <point x="552" y="1044" type="line"/>
      <point x="568" y="1144"/>
      <point x="664" y="1208"/>
      <point x="768" y="1208" type="curve" smooth="yes"/>
      <point x="880" y="1208"/>
      <point x="944" y="1132"/>
      <point x="944" y="1052" type="curve" smooth="yes"/>
      <point x="944" y="1020" type="line"/>
      <point x="944" y="948"/>
      <point x="824" y="936"/>
      <point x="724" y="928" type="curve" smooth="yes"/>
      <point x="288" y="892"/>
      <point x="96" y="704"/>
      <point x="96" y="432" type="curve" smooth="yes"/>
      <point x="96" y="136"/>
      <point x="320" y="-28"/>
      <point x="584" y="-28" type="curve" smooth="yes"/>
      <point x="776" y="-28"/>
      <point x="892" y="60"/>
      <point x="948" y="156" type="curve"/>
      <point x="968" y="156" type="line"/>
    </contour>
  </outline>
</glyph>
<glyph name="b" format="2">
  <advance width="1652"/>
  <unicode hex="0062"/>
  <anchor x="1064" y="2200" name="top"/>
  <anchor x="932" y="0" name="bottom"/>
  <anchor x="1720" y="2200" name="top_dd"/>
  <anchor x="1720" y="-560" name="bottom_dd"/>
  <anchor x="1720" y="2200" name="top0315"/>
  <outline>
    <contour>
      <point x="144" y="2048" type="line"/>
      <point x="144" y="0" type="line"/>
      <point x="600" y="0" type="line"/>
      <point x="600" y="304" type="line"/>
      <point x="436" y="744" type="line"/>
      <point x="604" y="1272" type="line"/>
      <point x="604" y="2048" type="line"/>
    </contour>
    <component base="rightloop.cn" xOffset="-36"/>
  </outline>
</glyph>
<glyph name="c" format="2">
  <advance width="1588"/>
  <unicode hex="0063"/>
  <anchor x="816" y="1776" name="top"/>
  <anchor x="820" y="0" name="bottom"/>
  <anchor x="816" y="1776" name="marktop"/>
  <anchor x="1512" y="2200" name="top_dd"/>
  <anchor x="1512" y="-560" name="bottom_dd"/>
  <anchor x="1512" y="1776" name="top0315"/>
  <outline>
    <contour>
      <point x="1500" y="1032" type="line"/>
      <point x="1436" y="1352"/>
      <point x="1180" y="1556"/>
      <point x="820" y="1556" type="curve" smooth="yes"/>
      <point x="368" y="1556"/>
      <point x="96" y="1232"/>
      <point x="96" y="768" type="curve" smooth="yes"/>
      <point x="96" y="304"/>
      <point x="368" y="-28"/>
      <point x="820" y="-28" type="curve" smooth="yes"/>
      <point x="1168" y="-28"/>
      <point x="1424" y="168"/>
      <point x="1496" y="472" type="curve"/>
      <point x="1072" y="548" type="line"/>
      <point x="1036" y="424"/>
      <point x="960" y="340"/>
      <point x="820" y="340" type="curve" smooth="yes"/>
      <point x="612" y="340"/>
      <point x="532" y="512"/>
      <point x="532" y="768" type="curve" smooth="yes"/>
      <point x="532" y="1024"/>
      <point x="612" y="1192"/>
      <point x="820" y="1192" type="curve" smooth="yes"/>
      <point x="972" y="1192"/>
      <point x="1044" y="1100"/>
      <point x="1080" y="952" type="curve"/>
    </contour>
  </outline>
</glyph>
<glyph name="d" format="2">
  <advance width="1652"/>
  <unicode hex="0064"/>
  <anchor x="1696" y="2112" name="caron"/>
  <anchor x="1228" y="1796" name="cross"/>
  <anchor x="756" y="0" name="bottom"/>
  <anchor x="748" y="2200" name="top"/>
  <anchor x="1672" y="2200" name="top_dd"/>
  <anchor x="1672" y="-560" name="bottom_dd"/>
  <anchor x="1672" y="2200" name="top0315"/>
  <outline>
    <contour>
      <point x="1508" y="0" type="line"/>
      <point x="1508" y="2048" type="line"/>
      <point x="1048" y="2048" type="line"/>
      <point x="1048" y="1256" type="line"/>
      <point x="1204" y="732" type="line"/>
      <point x="1052" y="308" type="line"/>
      <point x="1052" y="0" type="line"/>
    </contour>
    <component base="leftloop.cn"/>
  </outline>
</glyph>
<glyph name="e" format="2">
  <advance width="1636"/>
  <unicode hex="0065"/>
  <guideline x="1054.625" y="0" angle="90" identifier="skDQS4w9xV"/>
  <guideline x="196" y="724" angle="0" identifier="to3ruA6agL"/>
  <guideline x="788" y="1004" angle="90" identifier="OZsSD3X8aI"/>
  <anchor x="804" y="1776" name="top"/>
  <anchor x="812" y="0" name="bottom"/>
  <anchor x="1204" y="48" name="ogonek"/>
  <anchor x="1536" y="2200" name="top_dd"/>
  <anchor x="1536" y="-560" name="bottom_dd"/>
  <anchor x="1272" y="900" name="rhotichook"/>
  <anchor x="1536" y="1776" name="top0315"/>
  <outline>
    <contour>
      <point x="852" y="-28" type="curve"/>
      <point x="1292" y="-28"/>
      <point x="1480" y="232"/>
      <point x="1528" y="432" type="curve"/>
      <point x="1124" y="540" type="line"/>
      <point x="1092" y="448"/>
      <point x="1032" y="340"/>
      <point x="848" y="340" type="curve" smooth="yes"/>
      <point x="620" y="340"/>
      <point x="528" y="504"/>
      <point x="528" y="744" type="curve"/>
      <point x="528" y="1020"/>
      <point x="632" y="1192"/>
      <point x="836" y="1192" type="curve" smooth="yes"/>
      <point x="1016" y="1192"/>
      <point x="1112" y="1080"/>
      <point x="1112" y="936" type="curve"/>
      <point x="268" y="936" type="line"/>
      <point x="268" y="640" type="line"/>
      <point x="1540" y="640" type="line"/>
      <point x="1540" y="832" type="line" smooth="yes"/>
      <point x="1540" y="1288"/>
      <point x="1264" y="1556"/>
      <point x="840" y="1556" type="curve" smooth="yes"/>
      <point x="360" y="1556"/>
      <point x="96" y="1212"/>
      <point x="96" y="744" type="curve"/>
      <point x="96" y="260"/>
      <point x="384" y="-28"/>
    </contour>
  </outline>
</glyph>
<glyph name="f" format="2">
  <advance width="1104"/>
  <unicode hex="0066"/>
  <guideline x="0" y="1229.25" angle="0" identifier="vPm8gximIk"/>
  <guideline x="0" y="257.125" angle="0" identifier="5cTf515wrJ"/>
  <anchor x="644" y="2284" name="top"/>
  <anchor x="492" y="0" name="bottom"/>
  <anchor x="1048" y="2200" name="top_dd"/>
  <anchor x="1048" y="-560" name="bottom_dd"/>
  <anchor x="1048" y="2284" name="top0315"/>
  <outline>
    <contour>
      <point x="1008" y="1536" type="line"/>
      <point x="76" y="1536" type="line"/>
      <point x="76" y="1216" type="line"/>
      <point x="1008" y="1216" type="line"/>
    </contour>
    <contour>
      <point x="264" y="0" type="line"/>
      <point x="724" y="0" type="line" name="hr00"/>
      <point x="724" y="1560" type="line" smooth="yes"/>
      <point x="724" y="1664"/>
      <point x="768" y="1712"/>
      <point x="872" y="1712" type="curve" smooth="yes"/>
      <point x="916" y="1712"/>
      <point x="964" y="1704"/>
      <point x="1004" y="1692" type="curve"/>
      <point x="1080" y="2032" type="line"/>
      <point x="1024" y="2048"/>
      <point x="908" y="2076"/>
      <point x="768" y="2076" type="curve" smooth="yes"/>
      <point x="472" y="2076"/>
      <point x="264" y="1908"/>
      <point x="264" y="1560" type="curve" smooth="yes"/>
    </contour>
  </outline>
</glyph>
<glyph name="g" format="2">
  <advance width="1652"/>
  <unicode hex="0067"/>
  <anchor x="776" y="1776" name="top"/>
  <anchor x="764" y="-576" name="bottom"/>
  <anchor x="1628" y="2200" name="top_dd"/>
  <anchor x="1628" y="-560" name="bottom_dd"/>
  <anchor x="1628" y="1776" name="top0315"/>
  <outline>
    <contour>
      <point x="1052" y="1528" type="line"/>
      <point x="1052" y="1240" type="line"/>
      <point x="1232" y="740" type="line"/>
      <point x="1060" y="264" type="line"/>
      <point x="1060" y="148" type="line"/>
      <point x="1060" y="92" type="line"/>
      <point x="1060" y="-132"/>
      <point x="940" y="-216"/>
      <point x="748" y="-216" type="curve" smooth="yes"/>
      <point x="588" y="-216"/>
      <point x="460" y="-156"/>
      <point x="364" y="-84" type="curve"/>
      <point x="172" y="-396" type="line"/>
      <point x="256" y="-480"/>
      <point x="488" y="-588"/>
      <point x="764" y="-588" type="curve" smooth="yes"/>
      <point x="1208" y="-588"/>
      <point x="1508" y="-356"/>
      <point x="1508" y="68" type="curve" smooth="yes"/>
      <point x="1508" y="1528" type="line"/>
    </contour>
    <contour>
      <point x="1232" y="1372" type="line"/>
      <point x="1032" y="1372" type="line"/>
      <point x="980" y="1488"/>
      <point x="848" y="1556"/>
      <point x="688" y="1556" type="curve" smooth="yes"/>
      <point x="380" y="1556"/>
      <point x="96" y="1304"/>
      <point x="96" y="780" type="curve" smooth="yes"/>
      <point x="96" y="256"/>
      <point x="380" y="32"/>
      <point x="688" y="32" type="curve" smooth="yes"/>
      <point x="872" y="32"/>
      <point x="996" y="112"/>
      <point x="1036" y="192" type="curve"/>
      <point x="1232" y="192" type="line"/>
    </contour>
    <contour>
      <point x="528" y="780" type="curve" smooth="yes"/>
      <point x="528" y="1032"/>
      <point x="628" y="1192"/>
      <point x="824" y="1192" type="curve" smooth="yes"/>
      <point x="1028" y="1192"/>
      <point x="1100" y="1004"/>
      <point x="1100" y="780" type="curve" smooth="yes"/>
      <point x="1100" y="548"/>
      <point x="1024" y="388"/>
      <point x="824" y="388" type="curve" smooth="yes"/>
      <point x="644" y="388"/>
      <point x="528" y="512"/>
    </contour>
  </outline>
</glyph>
<glyph name="h" format="2">
  <advance width="1612"/>
  <unicode hex="0068"/>
  <guideline x="0" y="1238.875" angle="0" identifier="q5B0nD260I"/>
  <guideline x="0" y="763.125" angle="0" identifier="2ivEL7S9ZW"/>
  <anchor x="912" y="2328" name="top"/>
  <anchor x="420" y="1792" name="cross"/>
  <anchor x="812" y="0" name="bottom"/>
  <anchor x="1468" y="0" name="right"/>
  <anchor x="1600" y="2200" name="top_dd"/>
  <anchor x="1600" y="-560" name="bottom_dd"/>
  <anchor x="1600" y="2328" name="top0315"/>
  <outline>
    <contour>
      <point x="604" y="816" type="line" smooth="yes"/>
      <point x="604" y="1028"/>
      <point x="664" y="1192"/>
      <point x="836" y="1192" type="curve" smooth="yes"/>
      <point x="964" y="1192"/>
      <point x="1008" y="1100"/>
      <point x="1008" y="964" type="curve" smooth="yes"/>
      <point x="1008" y="0" type="line"/>
      <point x="1468" y="0" type="line"/>
      <point x="1468" y="960" type="line" smooth="yes"/>
      <point x="1468" y="1368"/>
      <point x="1276" y="1556"/>
      <point x="1000" y="1556" type="curve" smooth="yes"/>
      <point x="832" y="1556"/>
      <point x="692" y="1488"/>
      <point x="604" y="1372" type="curve"/>
      <point x="588" y="1372" type="line"/>
      <point x="588" y="2048" type="line"/>
      <point x="144" y="2048" type="line"/>
      <point x="144" y="0" type="line"/>
      <point x="604" y="0" type="line"/>
    </contour>
  </outline>
</glyph>
<glyph name="i" format="2">
  <advance width="780"/>
  <unicode hex="0069"/>
  <guideline x="0" y="1238.875" angle="0" identifier="Akh14AkAbl"/>
  <guideline x="0" y="763.125" angle="0" identifier="gAKHxzFN7g"/>
  <anchor x="388" y="0" name="bottom"/>
  <anchor x="540" y="0" name="ogonek"/>
  <anchor x="392" y="2200" name="top"/>
  <anchor x="772" y="2200" name="top_dd"/>
  <anchor x="772" y="-560" name="bottom_dd"/>
  <anchor x="492" y="900" name="rhotichook"/>
  <anchor x="772" y="2200" name="top0315"/>
  <outline>
    <contour>
      <point x="392" y="1620" type="curve" smooth="yes"/>
      <point x="528" y="1620"/>
      <point x="636" y="1724"/>
      <point x="636" y="1848" type="curve" smooth="yes"/>
      <point x="636" y="1972"/>
      <point x="528" y="2076"/>
      <point x="392" y="2076" type="curve" smooth="yes"/>
      <point x="256" y="2076"/>
      <point x="144" y="1972"/>
      <point x="144" y="1848" type="curve" smooth="yes"/>
      <point x="144" y="1724"/>
      <point x="256" y="1620"/>
    </contour>
    <component base="dotlessi"/>
  </outline>
</glyph>
<glyph name="j" format="2">
  <advance width="948"/>
  <unicode hex="006A"/>
  <guideline x="0" y="906.125" angle="0" identifier="IUeYyCcbbh"/>
  <guideline x="0" y="1381.875" angle="0" identifier="i9ao68M2Xp"/>
  <guideline x="548" y="1564" angle="90" identifier="E6q7Kq4w8I"/>
  <anchor x="564" y="2200" name="top"/>
  <anchor x="488" y="-572" name="bottom"/>
  <anchor x="916" y="2200" name="top_dd"/>
  <anchor x="916" y="-560" name="bottom_dd"/>
  <anchor x="916" y="2200" name="top0315"/>
  <outline>
    <contour>
      <point x="564" y="1620" type="curve" smooth="yes"/>
      <point x="700" y="1620"/>
      <point x="808" y="1724"/>
      <point x="808" y="1848" type="curve" smooth="yes"/>
      <point x="808" y="1972"/>
      <point x="700" y="2076"/>
      <point x="564" y="2076" type="curve" smooth="yes"/>
      <point x="428" y="2076"/>
      <point x="316" y="1972"/>
      <point x="316" y="1848" type="curve" smooth="yes"/>
      <point x="316" y="1724"/>
      <point x="428" y="1620"/>
    </contour>
    <component base="dotlessj"/>
  </outline>
</glyph>
<glyph name="k" format="2">
  <advance width="1588"/>
  <unicode hex="006B"/>
  <anchor x="784" y="0" name="bottom"/>
  <anchor x="292" y="1784" name="cross"/>
  <anchor x="876" y="2200" name="top"/>
  <anchor x="876" y="2200" name="marktop"/>
  <anchor x="1460" y="2200" name="top_dd"/>
  <anchor x="1460" y="-560" name="bottom_dd"/>
  <anchor x="1280" y="2200" name="top0315"/>
  <outline>
    <contour>
      <point x="604" y="2048" type="line"/>
      <point x="144" y="2048" type="line"/>
      <point x="144" y="0" type="line"/>
      <point x="604" y="0" type="line"/>
    </contour>
    <contour>
      <point x="1564" y="1536" type="line"/>
      <point x="1032" y="1536" type="line"/>
      <point x="624" y="1028" type="line"/>
      <point x="560" y="1028" type="line"/>
      <point x="560" y="408" type="line"/>
      <point x="864" y="756" type="line"/>
      <point x="908" y="756" type="line"/>
    </contour>
    <contour>
      <point x="1092" y="0" type="line"/>
      <point x="1588" y="0" type="line"/>
      <point x="988" y="920" type="line"/>
      <point x="676" y="648" type="line"/>
    </contour>
  </outline>
</glyph>
<glyph name="l" format="2">
  <advance width="748"/>
  <unicode hex="006C"/>
  <anchor x="376" y="2308" name="top"/>
  <anchor x="376" y="0" name="bottom"/>
  <anchor x="748" y="2112" name="caron"/>
  <anchor x="732" y="1072" name="dot"/>
  <anchor x="940" y="2044" name="marktop"/>
  <anchor x="760" y="2200" name="top_dd"/>
  <anchor x="760" y="-560" name="bottom_dd"/>
  <anchor x="760" y="2308" name="top0315"/>
  <outline>
    <contour>
      <point x="604" y="2048" type="line"/>
      <point x="144" y="2048" type="line"/>
      <point x="144" y="0" type="line"/>
      <point x="604" y="0" type="line"/>
    </contour>
  </outline>
</glyph>
<glyph name="m" format="2">
  <advance width="2440"/>
  <unicode hex="006D"/>
  <guideline x="1204" y="-220" angle="90" identifier="7HeEXtrNeC"/>
  <anchor x="1220" y="1776" name="top"/>
  <anchor x="1220" y="0" name="bottom"/>
  <anchor x="1220" y="1776" name="marktop"/>
  <anchor x="2380" y="2200" name="top_dd"/>
  <anchor x="2380" y="-560" name="bottom_dd"/>
  <anchor x="2380" y="1776" name="top0315"/>
  <outline>
    <contour>
      <point x="1444" y="952" type="line" smooth="yes"/>
      <point x="1444" y="1120"/>
      <point x="1520" y="1192"/>
      <point x="1644" y="1192" type="curve" smooth="yes"/>
      <point x="1752" y="1192"/>
      <point x="1836" y="1136"/>
      <point x="1836" y="960" type="curve" smooth="yes"/>
      <point x="1836" y="0" type="line"/>
      <point x="2296" y="0" type="line"/>
      <point x="2296" y="960" type="line" smooth="yes"/>
      <point x="2296" y="1404"/>
      <point x="2088" y="1556"/>
      <point x="1828" y="1556" type="curve" smooth="yes"/>
      <point x="1632" y="1556"/>
      <point x="1480" y="1468"/>
      <point x="1396" y="1344" type="curve"/>
      <point x="1380" y="1344" type="line"/>
      <point x="1316" y="1480"/>
      <point x="1188" y="1556"/>
      <point x="1004" y="1556" type="curve" smooth="yes"/>
      <point x="816" y="1556"/>
      <point x="692" y="1480"/>
      <point x="604" y="1372" type="curve"/>
      <point x="592" y="1372" type="line"/>
      <point x="592" y="1536" type="line"/>
      <point x="144" y="1536" type="line"/>
      <point x="144" y="0" type="line"/>
      <point x="604" y="0" type="line"/>
      <point x="604" y="968" type="line"/>
      <point x="604" y="1132"/>
      <point x="688" y="1192"/>
      <point x="792" y="1192" type="curve" smooth="yes"/>
      <point x="908" y="1192"/>
      <point x="1000" y="1124"/>
      <point x="1000" y="960" type="curve" smooth="yes"/>
      <point x="1000" y="0" type="line"/>
      <point x="1444" y="0" type="line"/>
    </contour>
  </outline>
</glyph>
<glyph name="n" format="2">
  <advance width="1656"/>
  <unicode hex="006E"/>
  <guideline x="816" y="-164" angle="90" identifier="g2M8Ek15kL"/>
  <anchor x="832" y="1776" name="top"/>
  <anchor x="832" y="0" name="bottom"/>
  <anchor x="-136" y="2108" name="caron"/>
  <anchor x="1448" y="0" name="right"/>
  <anchor x="832" y="1776" name="marktop"/>
  <anchor x="1576" y="2200" name="top_dd"/>
  <anchor x="1576" y="-560" name="bottom_dd"/>
  <anchor x="1576" y="1776" name="top0315"/>
  <outline>
    <contour>
      <point x="604" y="816" type="line" smooth="yes"/>
      <point x="604" y="1032"/>
      <point x="660" y="1192"/>
      <point x="832" y="1192" type="curve" smooth="yes"/>
      <point x="956" y="1192"/>
      <point x="1052" y="1108"/>
      <point x="1052" y="944" type="curve" smooth="yes"/>
      <point x="1052" y="0" type="line"/>
      <point x="1512" y="0" type="line"/>
      <point x="1512" y="960" type="line" smooth="yes"/>
      <point x="1512" y="1404"/>
      <point x="1256" y="1556"/>
      <point x="996" y="1556" type="curve" smooth="yes"/>
      <point x="820" y="1556"/>
      <point x="672" y="1484"/>
      <point x="584" y="1372" type="curve"/>
      <point x="568" y="1372" type="line"/>
      <point x="568" y="1536" type="line"/>
      <point x="144" y="1536" type="line"/>
      <point x="144" y="0" type="line"/>
      <point x="604" y="0" type="line"/>
    </contour>
  </outline>
</glyph>
<glyph name="o" format="2">
  <advance width="1640"/>
  <unicode hex="006F"/>
  <guideline x="0" y="2858.625" angle="0" identifier="JUbpUg3VIF"/>
  <guideline x="772" y="768" angle="0" identifier="fcaItK9Iut"/>
  <guideline x="804" y="540" angle="90" identifier="uZjWHMB05R"/>
  <guideline x="1256" y="1684" angle="90" identifier="t0g150QmkI"/>
  <guideline x="352" y="1504" angle="90" identifier="DM01gkuh2K"/>
  <guideline x="1540" y="1232" angle="0" identifier="yi5zrJA292"/>
  <guideline x="1672" y="304" angle="0" identifier="ztxsGfix7l"/>
  <anchor x="788" y="1776" name="top"/>
  <anchor x="792" y="0" name="bottom"/>
  <anchor x="1580" y="2200" name="top_dd"/>
  <anchor x="1708" y="-560" name="bottom_dd"/>
  <anchor x="1448" y="900" name="rhotichook"/>
  <anchor x="1580" y="1776" name="top0315"/>
  <outline>
    <contour>
      <point x="820" y="-28" type="curve" smooth="yes"/>
      <point x="1272" y="-28"/>
      <point x="1544" y="304"/>
      <point x="1544" y="768" type="curve" smooth="yes"/>
      <point x="1544" y="1232"/>
      <point x="1272" y="1556"/>
      <point x="820" y="1556" type="curve" smooth="yes"/>
      <point x="368" y="1556"/>
      <point x="96" y="1232"/>
      <point x="96" y="768" type="curve" smooth="yes"/>
      <point x="96" y="304"/>
      <point x="368" y="-28"/>
    </contour>
    <contour>
      <point x="820" y="340" type="curve" smooth="yes"/>
      <point x="612" y="340"/>
      <point x="532" y="512"/>
      <point x="532" y="768" type="curve" smooth="yes"/>
      <point x="532" y="1024"/>
      <point x="612" y="1192"/>
      <point x="820" y="1192" type="curve" smooth="yes"/>
      <point x="1028" y="1192"/>
      <point x="1108" y="1024"/>
      <point x="1108" y="768" type="curve" smooth="yes"/>
      <point x="1108" y="512"/>
      <point x="1028" y="340"/>
    </contour>
  </outline>
</glyph>
<glyph name="p" format="2">
  <advance width="1652"/>
  <unicode hex="0070"/>
  <anchor x="1060" y="1760" name="top"/>
  <anchor x="376" y="-560" name="bottom"/>
  <anchor x="1060" y="1760" name="marktop"/>
  <anchor x="1716" y="2200" name="top_dd"/>
  <anchor x="1716" y="-560" name="bottom_dd"/>
  <anchor x="1716" y="1760" name="top0315"/>
  <outline>
    <contour>
      <point x="144" y="-576" type="line"/>
      <point x="604" y="-576" type="line"/>
      <point x="604" y="292" type="line"/>
      <point x="436" y="736" type="line"/>
      <point x="600" y="1192" type="line"/>
      <point x="600" y="1244" type="line"/>
      <point x="600" y="1536" type="line"/>
      <point x="144" y="1536" type="line"/>
    </contour>
    <component base="rightloop.cn" xOffset="-36"/>
  </outline>
</glyph>
<glyph name="q" format="2">
  <advance width="1652"/>
  <unicode hex="0071"/>
  <anchor x="760" y="1776" name="top"/>
  <anchor x="1240" y="-560" name="bottom"/>
  <anchor x="760" y="1776" name="marktop"/>
  <anchor x="1608" y="2200" name="top_dd"/>
  <anchor x="1608" y="-560" name="bottom_dd"/>
  <anchor x="1608" y="1776" name="top0315"/>
  <outline>
    <contour>
      <point x="1508" y="1536" type="line"/>
      <point x="1052" y="1536" type="line"/>
      <point x="1052" y="1264" type="line"/>
      <point x="1052" y="1196" type="line"/>
      <point x="1200" y="748" type="line"/>
      <point x="1048" y="276" type="line"/>
      <point x="1048" y="-576" type="line"/>
      <point x="1508" y="-576" type="line"/>
    </contour>
    <component base="leftloop.cn"/>
  </outline>
</glyph>
<glyph name="r" format="2">
  <advance width="1196"/>
  <unicode hex="0072"/>
  <guideline x="0" y="1238.875" angle="0" identifier="Do210DW7c8"/>
  <guideline x="0" y="763.125" angle="0" identifier="K9pZiEN2Wn"/>
  <anchor x="620" y="1776" name="top"/>
  <anchor x="376" y="0" name="bottom"/>
  <anchor x="1108" y="2200" name="top_dd"/>
  <anchor x="1108" y="-560" name="bottom_dd"/>
  <anchor x="1108" y="1776" name="top0315"/>
  <outline>
    <contour>
      <point x="1164" y="1508" type="line"/>
      <point x="1116" y="1536"/>
      <point x="1028" y="1556"/>
      <point x="948" y="1556" type="curve"/>
      <point x="812" y="1556"/>
      <point x="660" y="1500"/>
      <point x="616" y="1340" type="curve"/>
      <point x="592" y="1340" type="line"/>
      <point x="592" y="1536" type="line"/>
      <point x="144" y="1536" type="line"/>
      <point x="144" y="0" type="line"/>
      <point x="604" y="0" type="line"/>
      <point x="604" y="872" type="line"/>
      <point x="604" y="1024"/>
      <point x="724" y="1148"/>
      <point x="876" y="1148" type="curve"/>
      <point x="936" y="1148"/>
      <point x="1004" y="1128"/>
      <point x="1024" y="1116" type="curve"/>
    </contour>
  </outline>
</glyph>
<glyph name="s" format="2">
  <advance width="1552"/>
  <unicode hex="0073"/>
  <guideline x="0" y="2279.75" angle="0" identifier="Ip9IdLZAvF"/>
  <guideline x="0" y="763.125" angle="0" identifier="5muyrxDbdk"/>
  <guideline x="80" y="472" angle="3.0393995689" identifier="NGIRONpwG8"/>
  <guideline x="788" y="1664" angle="90" identifier="Dag3jZqnHt"/>
  <guideline x="1444" y="1084" angle="183.0127875042" identifier="443GXkeCXw"/>
  <anchor x="788" y="1776" name="top"/>
  <anchor x="788" y="-12" name="bottom"/>
  <anchor x="1496" y="2200" name="top_dd"/>
  <anchor x="1496" y="-560" name="bottom_dd"/>
  <anchor x="1524" y="1776" name="top0315"/>
  <outline>
    <contour>
      <point x="1444" y="1084" type="line"/>
      <point x="1408" y="1388"/>
      <point x="1208" y="1556"/>
      <point x="812" y="1556" type="curve" smooth="yes"/>
      <point x="396" y="1556"/>
      <point x="124" y="1376"/>
      <point x="124" y="1060" type="curve" smooth="yes"/>
      <point x="124" y="788"/>
      <point x="328" y="672"/>
      <point x="560" y="620" type="curve" smooth="yes"/>
      <point x="836" y="560" type="line" smooth="yes"/>
      <point x="908" y="544"/>
      <point x="1008" y="532"/>
      <point x="1008" y="424" type="curve" smooth="yes"/>
      <point x="1008" y="352"/>
      <point x="904" y="300"/>
      <point x="788" y="300" type="curve" smooth="yes"/>
      <point x="672" y="300"/>
      <point x="552" y="356"/>
      <point x="524" y="496" type="curve"/>
      <point x="80" y="472" type="line"/>
      <point x="132" y="136"/>
      <point x="368" y="-28"/>
      <point x="760" y="-28" type="curve" smooth="yes"/>
      <point x="1144" y="-28"/>
      <point x="1480" y="128"/>
      <point x="1480" y="484" type="curve" smooth="yes"/>
      <point x="1480" y="764"/>
      <point x="1276" y="860"/>
      <point x="1060" y="904" type="curve" smooth="yes"/>
      <point x="748" y="968" type="line" smooth="yes"/>
      <point x="664" y="984"/>
      <point x="580" y="1012"/>
      <point x="580" y="1092" type="curve" smooth="yes"/>
      <point x="580" y="1176"/>
      <point x="684" y="1224"/>
      <point x="788" y="1224" type="curve" smooth="yes"/>
      <point x="896" y="1224"/>
      <point x="1008" y="1176"/>
      <point x="1024" y="1060" type="curve"/>
    </contour>
  </outline>
</glyph>
<glyph name="t" format="2">
  <advance width="1048"/>
  <unicode hex="0074"/>
  <anchor x="620" y="0" name="bottom"/>
  <anchor x="884" y="2296" name="caron"/>
  <anchor x="476" y="824" name="cross"/>
  <anchor x="504" y="2032" name="top"/>
  <anchor x="1000" y="1756" name="marktop"/>
  <anchor x="996" y="2200" name="top_dd"/>
  <anchor x="996" y="-560" name="bottom_dd"/>
  <anchor x="996" y="2032" name="top0315"/>
  <outline>
    <contour>
      <point x="940" y="1536" type="line"/>
      <point x="68" y="1536" type="line"/>
      <point x="68" y="1216" type="line"/>
      <point x="940" y="1216" type="line"/>
    </contour>
    <contour>
      <point x="240" y="1864" type="line"/>
      <point x="240" y="428" type="line"/>
      <point x="240" y="156"/>
      <point x="436" y="-20"/>
      <point x="684" y="-20" type="curve" smooth="yes"/>
      <point x="852" y="-20"/>
      <point x="968" y="12"/>
      <point x="996" y="24" type="curve"/>
      <point x="928" y="364" type="line"/>
      <point x="900" y="356"/>
      <point x="860" y="352"/>
      <point x="832" y="352" type="curve" smooth="yes"/>
      <point x="756" y="352"/>
      <point x="700" y="368"/>
      <point x="700" y="484" type="curve"/>
      <point x="700" y="1864" type="line"/>
    </contour>
  </outline>
</glyph>
<glyph name="u" format="2">
  <advance width="1656"/>
  <unicode hex="0075"/>
  <guideline x="0" y="277.75" angle="0" identifier="zzCVLdG0AS"/>
  <guideline x="0" y="752.125" angle="0" identifier="m2beSfJCcw"/>
  <anchor x="804" y="1776" name="top"/>
  <anchor x="1412" y="0" name="ogonek"/>
  <anchor x="660" y="0" name="bottomu"/>
  <anchor x="1600" y="2200" name="top_dd"/>
  <anchor x="1600" y="-560" name="bottom_dd"/>
  <anchor x="1292" y="900" name="rhotichook"/>
  <anchor x="1600" y="1776" name="top0315"/>
  <anchor x="828" y="0" name="bottom"/>
  <outline>
    <contour>
      <point x="1052" y="720" type="line" smooth="yes"/>
      <point x="1052" y="504"/>
      <point x="996" y="344"/>
      <point x="824" y="344" type="curve" smooth="yes"/>
      <point x="700" y="344"/>
      <point x="604" y="428"/>
      <point x="604" y="592" type="curve" smooth="yes"/>
      <point x="604" y="1536" type="line"/>
      <point x="144" y="1536" type="line"/>
      <point x="144" y="576" type="line" smooth="yes"/>
      <point x="144" y="132"/>
      <point x="400" y="-20"/>
      <point x="660" y="-20" type="curve" smooth="yes"/>
      <point x="836" y="-20"/>
      <point x="984" y="52"/>
      <point x="1072" y="164" type="curve"/>
      <point x="1088" y="164" type="line"/>
      <point x="1088" y="0" type="line"/>
      <point x="1512" y="0" type="line"/>
      <point x="1512" y="1536" type="line"/>
      <point x="1052" y="1536" type="line"/>
    </contour>
  </outline>
</glyph>
<glyph name="v" format="2">
  <advance width="1668"/>
  <unicode hex="0076"/>
  <guideline x="0" y="1238.875" angle="0" identifier="plWpz9NOEw"/>
  <guideline x="0" y="763.125" angle="0" identifier="XvWPxGCJWn"/>
  <guideline x="836" y="652" angle="90" identifier="10q3LXVd9W"/>
  <anchor x="856" y="1760" name="top"/>
  <anchor x="856" y="0" name="bottom"/>
  <anchor x="1580" y="2200" name="top_dd"/>
  <anchor x="1580" y="-560" name="bottom_dd"/>
  <anchor x="1580" y="1760" name="top0315"/>
  <outline>
    <contour>
      <point x="1612" y="1536" type="line"/>
      <point x="1140" y="1536" type="line"/>
      <point x="844" y="580" type="line"/>
      <point x="828" y="580" type="line"/>
      <point x="528" y="1536" type="line"/>
      <point x="56" y="1536" type="line"/>
      <point x="616" y="0" type="line"/>
      <point x="1048" y="0" type="line"/>
    </contour>
  </outline>
</glyph>
<glyph name="w" format="2">
  <advance width="2204"/>
  <unicode hex="0077"/>
  <guideline x="1084" y="776" angle="90" identifier="0zmcxFHwtO"/>
  <anchor x="1100" y="1776" name="top"/>
  <anchor x="1100" y="0" name="bottom"/>
  <anchor x="1100" y="1776" name="marktop"/>
  <anchor x="2196" y="2200" name="top_dd"/>
  <anchor x="2196" y="-560" name="bottom_dd"/>
  <anchor x="2196" y="1776" name="top0315"/>
  <outline>
    <contour>
      <point x="2108" y="1536" type="line"/>
      <point x="1668" y="1536" type="line"/>
      <point x="1512" y="624" type="line"/>
      <point x="1492" y="624" type="line"/>
      <point x="1256" y="1536" type="line"/>
      <point x="944" y="1536" type="line"/>
      <point x="708" y="616" type="line"/>
      <point x="688" y="616" type="line"/>
      <point x="536" y="1536" type="line"/>
      <point x="96" y="1536" type="line"/>
      <point x="472" y="0" type="line"/>
      <point x="844" y="0" type="line"/>
      <point x="1088" y="852" type="line"/>
      <point x="1112" y="852" type="line"/>
      <point x="1360" y="0" type="line"/>
      <point x="1732" y="0" type="line"/>
    </contour>
  </outline>
</glyph>
<glyph name="x" format="2">
  <advance width="1568"/>
  <unicode hex="0078"/>
  <guideline x="768" y="960" angle="90" identifier="3uKkvYoIQ6"/>
  <anchor x="784" y="0" name="bottom"/>
  <anchor x="1252" y="0" name="right"/>
  <anchor x="784" y="760" name="cross"/>
  <anchor x="784" y="1760" name="top"/>
  <anchor x="1500" y="2200" name="top_dd"/>
  <anchor x="1500" y="-560" name="bottom_dd"/>
  <anchor x="1500" y="1760" name="top0315"/>
  <outline>
    <contour>
      <point x="564" y="1536" type="line"/>
      <point x="96" y="1536" type="line"/>
      <point x="496" y="768" type="line"/>
      <point x="76" y="0" type="line"/>
      <point x="544" y="0" type="line"/>
      <point x="784" y="436" type="line"/>
      <point x="1028" y="0" type="line"/>
      <point x="1492" y="0" type="line"/>
      <point x="1072" y="768" type="line"/>
      <point x="1476" y="1536" type="line"/>
      <point x="1012" y="1536" type="line"/>
      <point x="784" y="1096" type="line"/>
    </contour>
  </outline>
</glyph>
<glyph name="y" format="2">
  <advance width="1668"/>
  <unicode hex="0079"/>
  <guideline x="836" y="316" angle="90" identifier="N2ZWINL2ZM"/>
  <anchor x="796" y="1776" name="top"/>
  <anchor x="748" y="-576" name="bottom"/>
  <anchor x="796" y="1776" name="marktop"/>
  <anchor x="1504" y="2200" name="top_dd"/>
  <anchor x="1504" y="-560" name="bottom_dd"/>
  <anchor x="1184" y="900" name="rhotichook"/>
  <anchor x="1504" y="1776" name="top0315"/>
  <outline>
    <contour>
      <point x="592" y="-24" type="line" smooth="yes"/>
      <point x="532" y="-184"/>
      <point x="496" y="-264"/>
      <point x="296" y="-204" type="curve"/>
      <point x="196" y="-556" type="line"/>
      <point x="272" y="-584"/>
      <point x="340" y="-600"/>
      <point x="428" y="-600" type="curve" smooth="yes"/>
      <point x="760" y="-600"/>
      <point x="912" y="-372"/>
      <point x="968" y="-220" type="curve" smooth="yes"/>
      <point x="1612" y="1536" type="line"/>
      <point x="1140" y="1536" type="line"/>
      <point x="820" y="552" type="line"/>
      <point x="632" y="84" type="line"/>
    </contour>
    <contour>
      <point x="528" y="1536" type="line"/>
      <point x="56" y="1536" type="line"/>
      <point x="616" y="4" type="line"/>
      <point x="968" y="192" type="line"/>
    </contour>
    <contour>
      <point x="816" y="588" type="line"/>
      <point x="856" y="588" type="line"/>
      <point x="856" y="624" type="line"/>
      <point x="816" y="624" type="line"/>
    </contour>
  </outline>
</glyph>
<glyph name="z" format="2">
  <advance width="1544"/>
  <unicode hex="007A"/>
  <guideline x="748" y="656" angle="90" identifier="cSpmCcO0qx"/>
  <anchor x="764" y="1776" name="top"/>
  <anchor x="764" y="0" name="bottom"/>
  <anchor x="1496" y="2200" name="top_dd"/>
  <anchor x="1496" y="-560" name="bottom_dd"/>
  <anchor x="1496" y="1776" name="top0315"/>
  <outline>
    <contour>
      <point x="1400" y="360" type="line"/>
      <point x="256" y="360" type="line"/>
      <point x="256" y="0" type="line"/>
      <point x="1400" y="0" type="line"/>
    </contour>
    <contour>
      <point x="1384" y="1276" type="line"/>
      <point x="1384" y="1536" type="line"/>
      <point x="1080" y="1536" type="line"/>
      <point x="144" y="260" type="line"/>
      <point x="144" y="0" type="line"/>
      <point x="448" y="0" type="line"/>
    </contour>
    <contour>
      <point x="1236" y="1536" type="line"/>
      <point x="172" y="1536" type="line"/>
      <point x="172" y="1176" type="line"/>
      <point x="1236" y="1176" type="line"/>
    </contour>
  </outline>
</glyph>
<glyph name="bar" format="2">
  <advance width="952"/>
  <unicode hex="007C"/>
  <guideline x="0" y="1238.875" angle="0" identifier="N4xi7w8mKs"/>
  <guideline x="0" y="763.125" angle="0" identifier="hawP7Zu57x"/>
  <outline>
    <contour>
      <point x="680" y="2048" type="line"/>
      <point x="272" y="2048" type="line"/>
      <point x="272" y="-384" type="line"/>
      <point x="680" y="-384" type="line"/>
    </contour>
  </outline>
</glyph>
<glyph name="cent" format="2">
  <advance width="1588"/>
  <unicode hex="00A2"/>
  <outline>
    <contour>
      <point x="964" y="1812" type="line"/>
      <point x="688" y="1812" type="line"/>
      <point x="688" y="1412" type="line"/>
      <point x="964" y="1412" type="line"/>
    </contour>
    <contour>
      <point x="964" y="64" type="line"/>
      <point x="688" y="64" type="line"/>
      <point x="688" y="-336" type="line"/>
      <point x="964" y="-336" type="line"/>
    </contour>
    <component base="c"/>
  </outline>
</glyph>
<glyph name="yen" format="2">
  <advance width="1564"/>
  <unicode hex="00A5"/>
  <outline>
    <contour>
      <point x="1384" y="1064" type="line"/>
      <point x="128" y="1064" type="line"/>
      <point x="128" y="804" type="line"/>
      <point x="1384" y="804" type="line"/>
    </contour>
    <contour>
      <point x="1384" y="668" type="line"/>
      <point x="128" y="668" type="line"/>
      <point x="128" y="408" type="line"/>
      <point x="1384" y="408" type="line"/>
    </contour>
    <contour>
      <point x="680" y="1048" type="line"/>
      <point x="736" y="788" type="line"/>
      <point x="980" y="788" type="line"/>
      <point x="1528" y="2048" type="line"/>
      <point x="1056" y="2048" type="line"/>
    </contour>
    <contour>
      <point x="508" y="2048" type="line"/>
      <point x="36" y="2048" type="line"/>
      <point x="580" y="788" type="line"/>
      <point x="828" y="788" type="line"/>
      <point x="888" y="1036" type="line"/>
    </contour>
    <contour>
      <point x="1004" y="1080" type="line"/>
      <point x="544" y="1080" type="line"/>
      <point x="544" y="0" type="line"/>
      <point x="1004" y="0" type="line"/>
    </contour>
  </outline>
</glyph>
<glyph name="brokenbar" format="2">
  <advance width="952"/>
  <unicode hex="00A6"/>
  <guideline x="800" y="1092" angle="0" identifier="TPUjAA3kCa"/>
  <guideline x="836" y="576" angle="0" identifier="HNaJ1O0wXU"/>
  <outline>
    <contour>
      <point x="272" y="576" type="line"/>
      <point x="272" y="-384" type="line"/>
      <point x="680" y="-384" type="line"/>
      <point x="680" y="576" type="line"/>
    </contour>
    <contour>
      <point x="680" y="2048" type="line"/>
      <point x="272" y="2048" type="line"/>
      <point x="272" y="1092" type="line"/>
      <point x="680" y="1092" type="line"/>
    </contour>
  </outline>
</glyph>
<glyph name="section" format="2">
  <advance width="1616"/>
  <unicode hex="00A7"/>
  <guideline x="0" y="2373.25" angle="0" identifier="D1nb6GMkHr"/>
  <guideline x="0" y="858" angle="0" identifier="hewqBzEEY8"/>
  <guideline x="1676.125" y="0" angle="90" identifier="PeC8JHrnTV"/>
  <guideline x="222.75" y="0" angle="90" identifier="naYPUHEBLY"/>
  <outline>
    <contour>
      <point x="1376" y="1536" type="line"/>
      <point x="1376" y="1848"/>
      <point x="1140" y="2076"/>
      <point x="792" y="2076" type="curve"/>
      <point x="452" y="2076"/>
      <point x="216" y="1860"/>
      <point x="216" y="1564" type="curve"/>
      <point x="216" y="1404"/>
      <point x="284" y="1284"/>
      <point x="384" y="1184" type="curve"/>
      <point x="384" y="1180" type="line"/>
      <point x="304" y="1156"/>
      <point x="164" y="1088"/>
      <point x="148" y="916" type="curve" smooth="yes"/>
      <point x="116" y="616"/>
      <point x="356" y="496"/>
      <point x="460" y="448" type="curve" smooth="yes"/>
      <point x="828" y="284" type="line" smooth="yes"/>
      <point x="896" y="252"/>
      <point x="1000" y="192"/>
      <point x="1000" y="100" type="curve" smooth="yes"/>
      <point x="1000" y="12"/>
      <point x="904" y="-24"/>
      <point x="816" y="-28" type="curve" smooth="yes"/>
      <point x="684" y="-36"/>
      <point x="592" y="28"/>
      <point x="592" y="144" type="curve"/>
      <point x="192" y="144" type="line"/>
      <point x="192" y="-196"/>
      <point x="444" y="-412"/>
      <point x="812" y="-412" type="curve" smooth="yes"/>
      <point x="1156" y="-412"/>
      <point x="1404" y="-220"/>
      <point x="1404" y="100" type="curve" smooth="yes"/>
      <point x="1404" y="256"/>
      <point x="1344" y="380"/>
      <point x="1232" y="480" type="curve"/>
      <point x="1236" y="484" type="line"/>
      <point x="1312" y="508"/>
      <point x="1452" y="576"/>
      <point x="1472" y="748" type="curve" smooth="yes"/>
      <point x="1504" y="1048"/>
      <point x="1264" y="1164"/>
      <point x="1160" y="1212" type="curve" smooth="yes"/>
      <point x="792" y="1380" type="line"/>
      <point x="720" y="1408"/>
      <point x="616" y="1472"/>
      <point x="616" y="1564" type="curve" smooth="yes"/>
      <point x="616" y="1660"/>
      <point x="708" y="1692"/>
      <point x="792" y="1692" type="curve" smooth="yes"/>
      <point x="916" y="1692"/>
      <point x="976" y="1624"/>
      <point x="976" y="1536" type="curve"/>
    </contour>
    <contour>
      <point x="1100" y="720" type="curve" smooth="yes"/>
      <point x="1088" y="652"/>
      <point x="1032" y="616"/>
      <point x="976" y="640" type="curve" smooth="yes"/>
      <point x="664" y="776" type="line" smooth="yes"/>
      <point x="552" y="824"/>
      <point x="504" y="884"/>
      <point x="516" y="944" type="curve"/>
      <point x="528" y="1012"/>
      <point x="584" y="1052"/>
      <point x="644" y="1024" type="curve" smooth="yes"/>
      <point x="952" y="888" type="line" smooth="yes"/>
      <point x="1068" y="836"/>
      <point x="1112" y="780"/>
    </contour>
  </outline>
</glyph>
<glyph name="dieresis" format="2">
  <advance width="1312"/>
  <unicode hex="00A8"/>
  <anchor x="656" y="1772" name="_top"/>
  <anchor x="660" y="2216" name="mkmktop_acc"/>
  <outline>
    <contour>
      <point x="372" y="1712" type="curve" smooth="yes"/>
      <point x="484" y="1712"/>
      <point x="564" y="1792"/>
      <point x="564" y="1892" type="curve" smooth="yes"/>
      <point x="564" y="1996"/>
      <point x="484" y="2076"/>
      <point x="372" y="2076" type="curve" smooth="yes"/>
      <point x="256" y="2076"/>
      <point x="176" y="1996"/>
      <point x="176" y="1892" type="curve" smooth="yes"/>
      <point x="176" y="1792"/>
      <point x="256" y="1712"/>
    </contour>
    <contour>
      <point x="944" y="1712" type="curve" smooth="yes"/>
      <point x="1056" y="1712"/>
      <point x="1136" y="1792"/>
      <point x="1136" y="1892" type="curve" smooth="yes"/>
      <point x="1136" y="1996"/>
      <point x="1056" y="2076"/>
      <point x="944" y="2076" type="curve" smooth="yes"/>
      <point x="828" y="2076"/>
      <point x="748" y="1996"/>
      <point x="748" y="1892" type="curve" smooth="yes"/>
      <point x="748" y="1792"/>
      <point x="828" y="1712"/>
    </contour>
  </outline>
</glyph>
<glyph name="copyright" format="2">
  <advance width="2336"/>
  <unicode hex="00A9"/>
  <guideline x="0" y="1238.875" angle="0" identifier="z26tDFddL2"/>
  <guideline x="0" y="763.125" angle="0" identifier="T22nr4KB6q"/>
  <outline>
    <contour>
      <point x="1396" y="820" type="line"/>
      <point x="1396" y="640"/>
      <point x="1312" y="572"/>
      <point x="1148" y="572" type="curve" smooth="yes"/>
      <point x="972" y="572"/>
      <point x="884" y="716"/>
      <point x="884" y="920" type="curve" smooth="yes"/>
      <point x="884" y="1084" type="line" smooth="yes"/>
      <point x="884" y="1288"/>
      <point x="972" y="1432"/>
      <point x="1148" y="1432" type="curve" smooth="yes"/>
      <point x="1312" y="1432"/>
      <point x="1396" y="1360"/>
      <point x="1396" y="1184" type="curve"/>
      <point x="1612" y="1184" type="line"/>
      <point x="1612" y="1472"/>
      <point x="1432" y="1616"/>
      <point x="1148" y="1616" type="curve" smooth="yes"/>
      <point x="856" y="1616"/>
      <point x="668" y="1400"/>
      <point x="668" y="1084" type="curve"/>
      <point x="668" y="920" type="line"/>
      <point x="668" y="604"/>
      <point x="856" y="388"/>
      <point x="1148" y="388" type="curve" smooth="yes"/>
      <point x="1432" y="388"/>
      <point x="1612" y="532"/>
      <point x="1612" y="820" type="curve"/>
    </contour>
    <contour>
      <point x="360" y="1004" type="curve"/>
      <point x="360" y="1488"/>
      <point x="724" y="1860"/>
      <point x="1168" y="1860" type="curve" smooth="yes"/>
      <point x="1616" y="1860"/>
      <point x="1976" y="1488"/>
      <point x="1976" y="1004" type="curve" smooth="yes"/>
      <point x="1976" y="516"/>
      <point x="1616" y="144"/>
      <point x="1168" y="144" type="curve" smooth="yes"/>
      <point x="724" y="144"/>
      <point x="360" y="516"/>
    </contour>
    <contour>
      <point x="192" y="1004" type="curve"/>
      <point x="192" y="420"/>
      <point x="632" y="-28"/>
      <point x="1168" y="-28" type="curve" smooth="yes"/>
      <point x="1708" y="-28"/>
      <point x="2144" y="420"/>
      <point x="2144" y="1004" type="curve" smooth="yes"/>
      <point x="2144" y="1584"/>
      <point x="1708" y="2032"/>
      <point x="1168" y="2032" type="curve" smooth="yes"/>
      <point x="632" y="2032"/>
      <point x="192" y="1584"/>
    </contour>
  </outline>
</glyph>
<glyph name="logicalnot" format="2">
  <advance width="1568"/>
  <unicode hex="00AC"/>
  <outline>
    <contour>
      <point x="1360" y="1108" type="line"/>
      <point x="212" y="1108" type="line"/>
      <point x="212" y="872" type="line"/>
      <point x="1360" y="872" type="line"/>
    </contour>
    <contour>
      <point x="1360" y="1000" type="line"/>
      <point x="1084" y="1000" type="line"/>
      <point x="1084" y="516" type="line"/>
      <point x="1360" y="516" type="line"/>
    </contour>
  </outline>
</glyph>
<glyph name="macron" format="2">
  <advance width="1568"/>
  <unicode hex="00AF"/>
  <anchor x="784" y="1784" name="_top"/>
  <anchor x="784" y="2216" name="mkmktop_acc"/>
  <outline>
    <contour>
      <point x="1260" y="2004" type="line"/>
      <point x="308" y="2004" type="line"/>
      <point x="308" y="1768" type="line"/>
      <point x="1260" y="1768" type="line"/>
    </contour>
  </outline>
</glyph>
<glyph name="degree" format="2">
  <advance width="1056"/>
  <unicode hex="00B0"/>
  <outline>
    <contour>
      <point x="532" y="1228" type="curve" smooth="yes"/>
      <point x="760" y="1228"/>
      <point x="944" y="1412"/>
      <point x="944" y="1644" type="curve" smooth="yes"/>
      <point x="944" y="1876"/>
      <point x="760" y="2072"/>
      <point x="532" y="2072" type="curve" smooth="yes"/>
      <point x="304" y="2072"/>
      <point x="108" y="1876"/>
      <point x="108" y="1644" type="curve"/>
      <point x="108" y="1412"/>
      <point x="304" y="1228"/>
    </contour>
    <contour>
      <point x="532" y="1472" type="curve" smooth="yes"/>
      <point x="440" y="1472"/>
      <point x="360" y="1548"/>
      <point x="360" y="1644" type="curve"/>
      <point x="360" y="1744"/>
      <point x="440" y="1820"/>
      <point x="532" y="1820" type="curve" smooth="yes"/>
      <point x="624" y="1820"/>
      <point x="700" y="1744"/>
      <point x="700" y="1644" type="curve" smooth="yes"/>
      <point x="700" y="1544"/>
      <point x="624" y="1472"/>
    </contour>
  </outline>
</glyph>
<glyph name="plusminus" format="2">
  <advance width="1568"/>
  <unicode hex="00B1"/>
  <outline>
    <contour>
      <point x="1420" y="352" type="line"/>
      <point x="148" y="352" type="line"/>
      <point x="148" y="0" type="line"/>
      <point x="1420" y="0" type="line"/>
    </contour>
    <contour>
      <point x="1424" y="1280" type="line"/>
      <point x="960" y="1280" type="line"/>
      <point x="960" y="1744" type="line"/>
      <point x="608" y="1744" type="line"/>
      <point x="608" y="1280" type="line"/>
      <point x="140" y="1280" type="line"/>
      <point x="140" y="928" type="line"/>
      <point x="608" y="928" type="line"/>
      <point x="608" y="512" type="line"/>
      <point x="960" y="512" type="line"/>
      <point x="960" y="928" type="line"/>
      <point x="1424" y="928" type="line"/>
    </contour>
  </outline>
</glyph>
<glyph name="acute" format="2">
  <advance width="1056"/>
  <unicode hex="00B4"/>
  <anchor x="364" y="1776" name="_top"/>
  <anchor x="364" y="2296" name="mkmktop_acc"/>
  <outline>
    <contour>
      <point x="156" y="1680" type="line"/>
      <point x="520" y="1680" type="line"/>
      <point x="900" y="2112" type="line"/>
      <point x="428" y="2112" type="line"/>
    </contour>
  </outline>
</glyph>
<glyph name="mu" format="2">
  <advance width="1664"/>
  <unicode hex="00B5"/>
  <guideline x="0" y="277.75" angle="0" identifier="FRM1hmmpSV"/>
  <guideline x="0" y="752.125" angle="0" identifier="8ja6QBhWv1"/>
  <outline>
    <contour>
      <point x="1076" y="1536" type="line"/>
      <point x="1076" y="344" type="line"/>
      <point x="1104" y="0" type="line"/>
      <point x="1520" y="0" type="line"/>
      <point x="1520" y="1536" type="line"/>
    </contour>
    <contour>
      <point x="1076" y="692" type="line"/>
      <point x="1076" y="492"/>
      <point x="1016" y="336"/>
      <point x="820" y="336" type="curve" smooth="yes"/>
      <point x="668" y="336"/>
      <point x="588" y="432"/>
      <point x="588" y="684" type="curve"/>
      <point x="356" y="684" type="line"/>
      <point x="412" y="108"/>
      <point x="608" y="-28"/>
      <point x="804" y="-28" type="curve" smooth="yes"/>
      <point x="1140" y="-28"/>
      <point x="1312" y="280"/>
      <point x="1312" y="696" type="curve"/>
    </contour>
    <contour>
      <point x="144" y="1536" type="line"/>
      <point x="144" y="-572" type="line"/>
      <point x="588" y="-572" type="line"/>
      <point x="588" y="1536" type="line"/>
    </contour>
  </outline>
</glyph>
<glyph name="paragraph" format="2">
  <advance width="1312"/>
  <unicode hex="00B6"/>
  <guideline x="0" y="1238.875" angle="0" identifier="OBt7CGj3OM"/>
  <guideline x="0" y="763.125" angle="0" identifier="smIkOevbAn"/>
  <outline>
    <contour>
      <point x="1208" y="0" type="line"/>
      <point x="1208" y="2004" type="line"/>
      <point x="784" y="2004" type="line" smooth="yes"/>
      <point x="344" y="2004"/>
      <point x="108" y="1728"/>
      <point x="108" y="1360" type="curve" smooth="yes"/>
      <point x="108" y="988"/>
      <point x="344" y="716"/>
      <point x="784" y="716" type="curve" smooth="yes"/>
      <point x="896" y="716" type="line"/>
      <point x="896" y="0" type="line"/>
    </contour>
  </outline>
</glyph>
<glyph name="cedilla" format="2">
  <advance width="1056"/>
  <unicode hex="00B8"/>
  <anchor x="452" y="0" name="_bottom"/>
  <anchor x="452" y="-648" name="mkmkbottom_acc"/>
  <outline>
    <contour>
      <point x="288" y="16" type="line"/>
      <point x="244" y="-188" type="line"/>
      <point x="376" y="-196"/>
      <point x="432" y="-216"/>
      <point x="432" y="-288" type="curve" smooth="yes"/>
      <point x="432" y="-364"/>
      <point x="376" y="-392"/>
      <point x="300" y="-392" type="curve"/>
      <point x="312" y="-648" type="line"/>
      <point x="640" y="-648"/>
      <point x="812" y="-512"/>
      <point x="812" y="-308" type="curve" smooth="yes"/>
      <point x="812" y="-152"/>
      <point x="708" y="-88"/>
      <point x="608" y="-72" type="curve"/>
      <point x="624" y="16" type="line"/>
    </contour>
  </outline>
</glyph>
<glyph name="multiply" format="2">
  <advance width="1568"/>
  <unicode hex="00D7"/>
  <guideline x="232" y="896" angle="0" identifier="n1fl18giR2"/>
  <outline>
    <contour>
      <point x="392" y="240" type="line"/>
      <point x="1432" y="1300" type="line"/>
      <point x="1176" y="1552" type="line"/>
      <point x="136" y="492" type="line"/>
    </contour>
    <contour>
      <point x="1176" y="240" type="line"/>
      <point x="1432" y="492" type="line"/>
      <point x="392" y="1552" type="line"/>
      <point x="136" y="1300" type="line"/>
    </contour>
  </outline>
</glyph>
<glyph name="Oslash" format="2">
  <advance width="2040"/>
  <unicode hex="00D8"/>
  <guideline x="1024" y="1588" angle="90" identifier="jdXuyESmK5"/>
  <guideline x="1292" y="1024" angle="0" identifier="CvL0oIUS0W"/>
  <guideline x="1024" y="1024" angle="55.9722402378" identifier="V5YUK5E6Nf"/>
  <anchor x="1024" y="2304" name="top"/>
  <anchor x="1972" y="2200" name="top_dd"/>
  <anchor x="1972" y="2304" name="top0315"/>
  <outline>
    <contour>
      <point x="424" y="-100" type="line"/>
      <point x="1848" y="2008" type="line"/>
      <point x="1648" y="2144" type="line"/>
      <point x="224" y="36" type="line"/>
    </contour>
    <component base="O"/>
  </outline>
</glyph>
<glyph name="Thorn" format="2">
  <advance width="1824"/>
  <unicode hex="00DE"/>
  <guideline x="0" y="1238.875" angle="0" identifier="SsmeRNb2wN"/>
  <guideline x="0" y="763.125" angle="0" identifier="2Qez3nkx7q"/>
  <outline>
    <contour>
      <point x="144" y="2048" type="line"/>
      <point x="144" y="0" type="line"/>
      <point x="608" y="0" type="line"/>
      <point x="608" y="2048" type="line"/>
    </contour>
    <contour>
      <point x="360" y="1680" type="line"/>
      <point x="360" y="1324" type="line"/>
      <point x="872" y="1324" type="line" smooth="yes"/>
      <point x="1100" y="1324"/>
      <point x="1188" y="1192"/>
      <point x="1188" y="1044" type="curve" smooth="yes"/>
      <point x="1188" y="900"/>
      <point x="1100" y="772"/>
      <point x="872" y="772" type="curve" smooth="yes"/>
      <point x="360" y="772" type="line"/>
      <point x="360" y="416" type="line"/>
      <point x="872" y="416" type="line" smooth="yes"/>
      <point x="1364" y="416"/>
      <point x="1632" y="680"/>
      <point x="1632" y="1048" type="curve" smooth="yes"/>
      <point x="1632" y="1416"/>
      <point x="1364" y="1680"/>
      <point x="872" y="1680" type="curve" smooth="yes"/>
    </contour>
  </outline>
</glyph>
<glyph name="germandbls" format="2">
  <advance width="1768"/>
  <unicode hex="00DF"/>
  <outline>
    <contour>
      <point x="588" y="1440" type="line"/>
      <point x="588" y="1636"/>
      <point x="676" y="1700"/>
      <point x="792" y="1700" type="curve" smooth="yes"/>
      <point x="908" y="1700"/>
      <point x="992" y="1636"/>
      <point x="992" y="1532" type="curve" smooth="yes"/>
      <point x="992" y="1372"/>
      <point x="856" y="1292"/>
      <point x="856" y="1088" type="curve" smooth="yes" name="hr01"/>
      <point x="856" y="740"/>
      <point x="1248" y="764"/>
      <point x="1248" y="504" type="curve" smooth="yes" name="hr02"/>
      <point x="1248" y="392"/>
      <point x="1164" y="332"/>
      <point x="1044" y="332" type="curve" smooth="yes"/>
      <point x="912" y="332"/>
      <point x="828" y="364"/>
      <point x="776" y="384" type="curve"/>
      <point x="672" y="44" type="line"/>
      <point x="748" y="0"/>
      <point x="900" y="-28"/>
      <point x="1044" y="-28" type="curve" smooth="yes"/>
      <point x="1500" y="-28"/>
      <point x="1688" y="244"/>
      <point x="1688" y="508" type="curve" smooth="yes"/>
      <point x="1688" y="876"/>
      <point x="1320" y="928"/>
      <point x="1320" y="1112" type="curve" smooth="yes" name="hr03"/>
      <point x="1320" y="1268"/>
      <point x="1432" y="1336"/>
      <point x="1432" y="1552" type="curve" smooth="yes" name="hr04"/>
      <point x="1432" y="1884"/>
      <point x="1168" y="2076"/>
      <point x="792" y="2076" type="curve" smooth="yes"/>
      <point x="392" y="2076"/>
      <point x="144" y="1860"/>
      <point x="144" y="1440" type="curve" smooth="yes"/>
      <point x="144" y="0" type="line"/>
      <point x="588" y="0" type="line"/>
    </contour>
  </outline>
</glyph>
<glyph name="eth" format="2">
  <advance width="1536"/>
  <unicode hex="00F0"/>
  <outline>
    <contour>
      <point x="1212" y="1864" type="line"/>
      <point x="1088" y="2092" type="line"/>
      <point x="252" y="1648" type="line"/>
      <point x="376" y="1420" type="line"/>
    </contour>
    <contour>
      <point x="768" y="-32" type="curve" smooth="yes"/>
      <point x="1172" y="-32"/>
      <point x="1440" y="256"/>
      <point x="1440" y="752" type="curve" smooth="yes"/>
      <point x="1440" y="1452"/>
      <point x="960" y="1944"/>
      <point x="512" y="2176" type="curve"/>
      <point x="308" y="1892" type="line"/>
      <point x="636" y="1696"/>
      <point x="776" y="1572"/>
      <point x="920" y="1336" type="curve"/>
      <point x="900" y="1336" type="line"/>
      <point x="820" y="1428"/>
      <point x="672" y="1444"/>
      <point x="560" y="1420" type="curve" smooth="yes"/>
      <point x="332" y="1368"/>
      <point x="96" y="1116"/>
      <point x="96" y="704" type="curve" smooth="yes"/>
      <point x="96" y="276"/>
      <point x="356" y="-32"/>
    </contour>
    <contour>
      <point x="788" y="324" type="curve" smooth="yes"/>
      <point x="632" y="324"/>
      <point x="532" y="440"/>
      <point x="532" y="708" type="curve" smooth="yes"/>
      <point x="532" y="980"/>
      <point x="636" y="1084"/>
      <point x="788" y="1084" type="curve" smooth="yes"/>
      <point x="940" y="1084"/>
      <point x="1044" y="980"/>
      <point x="1044" y="708" type="curve" smooth="yes"/>
      <point x="1044" y="440"/>
      <point x="944" y="324"/>
    </contour>
  </outline>
</glyph>
<glyph name="divide" format="2">
  <advance width="1568"/>
  <unicode hex="00F7"/>
  <guideline x="584" y="896" angle="0" identifier="JIvd2BTs5u"/>
  <outline>
    <contour>
      <point x="1424" y="1072" type="line"/>
      <point x="144" y="1072" type="line"/>
      <point x="144" y="720" type="line"/>
      <point x="1424" y="720" type="line"/>
    </contour>
    <contour>
      <point x="536" y="1448" type="curve" smooth="yes"/>
      <point x="536" y="1316"/>
      <point x="636" y="1224"/>
      <point x="784" y="1224" type="curve" smooth="yes"/>
      <point x="932" y="1224"/>
      <point x="1032" y="1316"/>
      <point x="1032" y="1448" type="curve" smooth="yes"/>
      <point x="1032" y="1580"/>
      <point x="932" y="1676"/>
      <point x="784" y="1676" type="curve" smooth="yes"/>
      <point x="636" y="1676"/>
      <point x="536" y="1580"/>
    </contour>
    <contour>
      <point x="536" y="336" type="curve" smooth="yes"/>
      <point x="536" y="204"/>
      <point x="636" y="112"/>
      <point x="784" y="112" type="curve" smooth="yes"/>
      <point x="932" y="112"/>
      <point x="1032" y="204"/>
      <point x="1032" y="336" type="curve" smooth="yes"/>
      <point x="1032" y="468"/>
      <point x="932" y="564"/>
      <point x="784" y="564" type="curve" smooth="yes"/>
      <point x="636" y="564"/>
      <point x="536" y="468"/>
    </contour>
  </outline>
</glyph>
<glyph name="oslash" format="2">
  <advance width="1640"/>
  <unicode hex="00F8"/>
  <guideline x="988" y="768" angle="0" identifier="N9Oro9zaL4"/>
  <guideline x="772" y="1444" angle="90" identifier="pWK7v0q1EC"/>
  <guideline x="772" y="768" angle="56.0234559637" identifier="lXM2gxbqrZ"/>
  <guideline x="1444" y="1460" angle="325.5391837286" identifier="w3odxCzII2"/>
  <anchor x="660" y="1768" name="top"/>
  <anchor x="1504" y="2200" name="top_dd"/>
  <anchor x="1504" y="1768" name="top0315"/>
  <outline>
    <contour>
      <point x="380" y="-100" type="line"/>
      <point x="1452" y="1488" type="line"/>
      <point x="1252" y="1624" type="line"/>
      <point x="180" y="36" type="line"/>
    </contour>
    <component base="o"/>
  </outline>
</glyph>
<glyph name="Hbar" format="2">
  <advance width="1952"/>
  <unicode hex="0126"/>
  <anchor x="976" y="2200" name="top"/>
  <anchor x="976" y="16" name="bottom"/>
  <anchor x="1992" y="2200" name="top0315"/>
  <outline>
    <contour>
      <point x="1960" y="1708" type="line"/>
      <point x="-8" y="1708" type="line"/>
      <point x="-8" y="1460" type="line"/>
      <point x="1960" y="1460" type="line"/>
    </contour>
    <component base="H"/>
  </outline>
</glyph>
<glyph name="dotlessi" format="2">
  <advance width="780"/>
  <unicode hex="0131"/>
  <guideline x="376" y="1504" angle="90" identifier="8Gn1bYKOTJ"/>
  <anchor x="392" y="1744" name="top"/>
  <anchor x="392" y="0" name="bottom"/>
  <anchor x="468" y="900" name="rhotichook"/>
  <anchor x="776" y="1744" name="top0315"/>
  <outline>
    <contour>
      <point x="620" y="1536" type="line"/>
      <point x="160" y="1536" type="line"/>
      <point x="160" y="0" type="line"/>
      <point x="620" y="0" type="line"/>
    </contour>
  </outline>
</glyph>
<glyph name="kgreenlandic" format="2">
  <advance width="1824"/>
  <unicode hex="0138"/>
  <anchor x="832" y="1776" name="top"/>
  <anchor x="832" y="16" name="bottom"/>
  <anchor x="1700" y="1776" name="top0315"/>
  <outline>
    <contour>
      <point x="616" y="1488" type="line"/>
      <point x="172" y="1488" type="line"/>
      <point x="172" y="0" type="line"/>
      <point x="616" y="0" type="line"/>
    </contour>
    <contour>
      <point x="1636" y="1488" type="line"/>
      <point x="1072" y="1488" type="line"/>
      <point x="740" y="952" type="line"/>
      <point x="500" y="952" type="line"/>
      <point x="552" y="520" type="line"/>
      <point x="972" y="520" type="line"/>
    </contour>
    <contour>
      <point x="1084" y="0" type="line"/>
      <point x="1652" y="0" type="line"/>
      <point x="1136" y="800" type="line"/>
      <point x="736" y="608" type="line"/>
    </contour>
  </outline>
</glyph>
<glyph name="L_slash" format="2">
  <advance width="1824"/>
  <unicode hex="0141"/>
  <anchor x="572" y="2200" name="top"/>
  <anchor x="944" y="16" name="bottom"/>
  <anchor x="1716" y="2200" name="top0315"/>
  <outline>
    <contour>
      <point x="1024" y="1332" type="line"/>
      <point x="100" y="1072" type="line"/>
      <point x="100" y="828" type="line"/>
      <point x="1024" y="1084" type="line"/>
    </contour>
    <component base="L" xOffset="172"/>
  </outline>
</glyph>
<glyph name="lslash" format="2">
  <advance width="748"/>
  <unicode hex="0142"/>
  <anchor x="400" y="2308" name="top"/>
  <anchor x="376" y="0" name="bottom"/>
  <anchor x="852" y="2308" name="top0315"/>
  <outline>
    <contour>
      <point x="776" y="1344" type="line"/>
      <point x="-36" y="1084" type="line"/>
      <point x="-36" y="836" type="line"/>
      <point x="776" y="1096" type="line"/>
    </contour>
    <component base="l"/>
  </outline>
</glyph>
<glyph name="eng" format="2">
  <advance width="1656"/>
  <unicode hex="014B"/>
  <anchor x="784" y="1776" name="top"/>
  <anchor x="784" y="16" name="bottom"/>
  <anchor x="1064" y="-424" name="parenthesses.w1"/>
  <anchor x="784" y="16" name="markbottom"/>
  <anchor x="1576" y="1776" name="top0315"/>
  <outline>
    <contour>
      <point x="1052" y="128" type="line"/>
      <point x="1052" y="-20" type="line" smooth="yes"/>
      <point x="1052" y="-160"/>
      <point x="992" y="-224"/>
      <point x="888" y="-224" type="curve" smooth="yes"/>
      <point x="828" y="-224"/>
      <point x="792" y="-216"/>
      <point x="752" y="-208" type="curve"/>
      <point x="716" y="-580" type="line"/>
      <point x="792" y="-596"/>
      <point x="868" y="-600"/>
      <point x="944" y="-600" type="curve" smooth="yes"/>
      <point x="1288" y="-600"/>
      <point x="1512" y="-396"/>
      <point x="1512" y="-20" type="curve" smooth="yes"/>
      <point x="1512" y="128" type="line"/>
    </contour>
    <component base="n"/>
  </outline>
</glyph>
<glyph name="longs" format="2">
  <advance width="800"/>
  <unicode hex="017F"/>
  <anchor x="368" y="2284" name="top"/>
  <anchor x="240" y="16" name="bottom"/>
  <anchor x="596" y="2284" name="top0315"/>
  <outline>
    <contour>
      <point x="444" y="0" type="line" name="hr00"/>
      <point x="444" y="1608" type="line"/>
      <point x="444" y="1724"/>
      <point x="508" y="1784"/>
      <point x="632" y="1784" type="curve" smooth="yes"/>
      <point x="692" y="1784"/>
      <point x="724" y="1780"/>
      <point x="768" y="1772" type="curve"/>
      <point x="800" y="2112" type="line"/>
      <point x="724" y="2128"/>
      <point x="652" y="2140"/>
      <point x="576" y="2140" type="curve" smooth="yes"/>
      <point x="212" y="2140"/>
      <point x="0" y="1956"/>
      <point x="0" y="1608" type="curve"/>
      <point x="0" y="0" type="line"/>
    </contour>
  </outline>
</glyph>
<glyph name="Chook" format="2">
  <advance width="2232"/>
  <unicode hex="0187"/>
  <guideline x="-1571.625" y="0" angle="90" identifier="UY5WXZGO89"/>
  <outline>
    <contour>
      <point x="1876" y="1340" type="line" name="hr00"/>
      <point x="1876" y="1496" type="line" smooth="yes"/>
      <point x="1876" y="1696"/>
      <point x="2032" y="1760"/>
      <point x="2156" y="1760" type="curve"/>
      <point x="2188" y="1760"/>
      <point x="2252" y="1756"/>
      <point x="2284" y="1756" type="curve"/>
      <point x="2284" y="2128" type="line"/>
      <point x="2208" y="2140"/>
      <point x="2144" y="2140"/>
      <point x="2072" y="2140" type="curve" smooth="yes"/>
      <point x="1728" y="2140"/>
      <point x="1428" y="1936"/>
      <point x="1428" y="1560" type="curve" smooth="yes"/>
      <point x="1428" y="1340" type="line"/>
    </contour>
    <component base="C"/>
  </outline>
</glyph>
<glyph name="Ghook" format="2">
  <advance width="2320"/>
  <unicode hex="0193"/>
  <guideline x="1872" y="996" angle="90" identifier="c67biLzu5U"/>
  <outline>
    <contour>
      <point x="1872" y="1372" type="line"/>
      <point x="1872" y="1712" type="line" smooth="yes"/>
      <point x="1872" y="1888"/>
      <point x="2012" y="1912"/>
      <point x="2136" y="1912" type="curve" smooth="yes"/>
      <point x="2180" y="1912"/>
      <point x="2220" y="1904"/>
      <point x="2264" y="1900" type="curve"/>
      <point x="2264" y="2268" type="line"/>
      <point x="2188" y="2284"/>
      <point x="2128" y="2292"/>
      <point x="2052" y="2292" type="curve" smooth="yes"/>
      <point x="1708" y="2292"/>
      <point x="1396" y="2088"/>
      <point x="1396" y="1712" type="curve" smooth="yes"/>
      <point x="1396" y="1372" type="line"/>
    </contour>
    <component base="G"/>
  </outline>
</glyph>
<glyph name="Khook" format="2">
  <advance width="2008"/>
  <unicode hex="0198"/>
  <guideline x="1132" y="1740" angle="227.7472104201" identifier="iTyfV8eXdm"/>
  <guideline x="1520" y="1508" angle="227.9328930427" identifier="BrTHCKRthL"/>
  <outline>
    <contour>
      <point x="1520" y="1508" type="line"/>
      <point x="1584" y="1580" type="line" smooth="yes"/>
      <point x="1672" y="1676"/>
      <point x="1736" y="1708"/>
      <point x="1848" y="1648" type="curve"/>
      <point x="1992" y="1980" type="line"/>
      <point x="1724" y="2136"/>
      <point x="1460" y="2104"/>
      <point x="1248" y="1868" type="curve" smooth="yes"/>
      <point x="1132" y="1740" type="line"/>
    </contour>
    <contour>
      <point x="608" y="2048" type="line"/>
      <point x="144" y="2048" type="line"/>
      <point x="144" y="0" type="line"/>
      <point x="608" y="0" type="line"/>
    </contour>
    <contour>
      <point x="1400" y="0" type="line"/>
      <point x="1956" y="0" type="line"/>
      <point x="1084" y="1180" type="line"/>
      <point x="744" y="904" type="line"/>
    </contour>
    <contour>
      <point x="1132" y="1740" type="line"/>
      <point x="636" y="1192" type="line"/>
      <point x="564" y="1192" type="line"/>
      <point x="564" y="452" type="line"/>
      <point x="892" y="812" type="line"/>
      <point x="996" y="940" type="line"/>
      <point x="1520" y="1508" type="line"/>
    </contour>
  </outline>
</glyph>
<glyph name="khook" format="2">
  <advance width="1588"/>
  <unicode hex="0199"/>
  <guideline x="0" y="2140.875" angle="0" identifier="7iI8ePToeC"/>
  <outline>
    <contour>
      <point x="1092" y="0" type="line"/>
      <point x="1588" y="0" type="line"/>
      <point x="1012" y="880" type="line"/>
      <point x="1564" y="1536" type="line"/>
      <point x="1032" y="1536" type="line"/>
      <point x="624" y="1028" type="line"/>
      <point x="604" y="1028" type="line"/>
      <point x="604" y="1472" type="line"/>
      <point x="144" y="1472" type="line"/>
      <point x="144" y="0" type="line"/>
      <point x="604" y="0" type="line"/>
      <point x="604" y="396" type="line"/>
      <point x="736" y="552" type="line"/>
    </contour>
    <contour>
      <point x="604" y="1316" type="line"/>
      <point x="604" y="1580" type="line" smooth="yes"/>
      <point x="604" y="1692"/>
      <point x="704" y="1720"/>
      <point x="808" y="1720" type="curve" smooth="yes"/>
      <point x="848" y="1720"/>
      <point x="884" y="1716"/>
      <point x="916" y="1712" type="curve"/>
      <point x="916" y="2060" type="line"/>
      <point x="860" y="2068"/>
      <point x="772" y="2076"/>
      <point x="684" y="2076" type="curve" smooth="yes"/>
      <point x="448" y="2076"/>
      <point x="144" y="2016"/>
      <point x="144" y="1580" type="curve" smooth="yes"/>
      <point x="144" y="1316" type="line"/>
    </contour>
  </outline>
</glyph>
<glyph name="lambdabar" format="2">
  <advance width="1824"/>
  <unicode hex="019B"/>
  <anchor x="1476" y="2200" name="top0315"/>
  <outline>
    <contour>
      <point x="1088" y="1876" type="line"/>
      <point x="276" y="1620" type="line"/>
      <point x="276" y="1340" type="line"/>
      <point x="1088" y="1600" type="line"/>
    </contour>
    <component base="lambda"/>
  </outline>
</glyph>
<glyph name="Ohorn" format="2">
  <advance width="2100"/>
  <unicode hex="01A0"/>
  <guideline x="1024" y="1568" angle="90" identifier="sGyiSH1oBj"/>
  <anchor x="1024" y="2212" name="top"/>
  <anchor x="1024" y="0" name="bottom"/>
  <anchor x="2008" y="2212" name="top0315"/>
  <outline>
    <contour>
      <point x="1808" y="2140" type="line"/>
      <point x="1808" y="1888"/>
      <point x="1760" y="1740"/>
      <point x="1576" y="1740" type="curve"/>
      <point x="1576" y="1516" type="line"/>
      <point x="1932" y="1516"/>
      <point x="2084" y="1744"/>
      <point x="2084" y="2140" type="curve"/>
    </contour>
    <component base="O"/>
  </outline>
</glyph>
<glyph name="ohorn" format="2">
  <advance width="1740"/>
  <unicode hex="01A1"/>
  <anchor x="812" y="1776" name="top"/>
  <anchor x="796" y="0" name="bottom"/>
  <anchor x="1664" y="1776" name="top0315"/>
  <outline>
    <contour>
      <point x="1488" y="1620" type="line"/>
      <point x="1488" y="1388"/>
      <point x="1440" y="1248"/>
      <point x="1232" y="1248" type="curve"/>
      <point x="1232" y="1076" type="line"/>
      <point x="1584" y="1076"/>
      <point x="1740" y="1276"/>
      <point x="1740" y="1620" type="curve"/>
    </contour>
    <component base="o"/>
  </outline>
</glyph>
<glyph name="Uhorn" format="2">
  <advance width="2284"/>
  <unicode hex="01AF"/>
  <anchor x="1008" y="2216" name="top"/>
  <anchor x="1008" y="-16" name="bottom"/>
  <anchor x="2036" y="2216" name="top0315"/>
  <outline>
    <contour>
      <point x="1992" y="2112" type="line"/>
      <point x="1992" y="1848"/>
      <point x="1976" y="1684"/>
      <point x="1676" y="1684" type="curve"/>
      <point x="1676" y="1456" type="line"/>
      <point x="2140" y="1456"/>
      <point x="2268" y="1700"/>
      <point x="2268" y="2112" type="curve"/>
    </contour>
    <component base="U"/>
  </outline>
</glyph>
<glyph name="uhorn" format="2">
  <advance width="1884"/>
  <unicode hex="01B0"/>
  <anchor x="808" y="1744" name="top"/>
  <anchor x="1472" y="0" name="right"/>
  <anchor x="1720" y="1744" name="top0315"/>
  <anchor x="660" y="0" name="bottomu"/>
  <anchor x="828" y="0" name="bottom"/>
  <outline>
    <contour>
      <point x="1620" y="1624" type="line"/>
      <point x="1620" y="1392"/>
      <point x="1584" y="1280"/>
      <point x="1308" y="1280" type="curve"/>
      <point x="1308" y="1084" type="line"/>
      <point x="1732" y="1084"/>
      <point x="1868" y="1268"/>
      <point x="1868" y="1624" type="curve"/>
    </contour>
    <component base="u"/>
  </outline>
</glyph>
<glyph name="Yhook" format="2">
  <advance width="2192"/>
  <unicode hex="01B3"/>
  <guideline x="1176" y="1336" angle="240.4177583541" identifier="eA8RfbEp0l"/>
  <guideline x="1436" y="988" angle="238.4455862533" identifier="ZkMOl3Da9g"/>
  <outline>
    <contour>
      <point x="1740" y="1484" type="line"/>
      <point x="1776" y="1544" type="line" smooth="yes"/>
      <point x="1856" y="1680"/>
      <point x="1924" y="1720"/>
      <point x="2064" y="1676" type="curve"/>
      <point x="2160" y="2024" type="line"/>
      <point x="1904" y="2120"/>
      <point x="1604" y="2092"/>
      <point x="1424" y="1772" type="curve" smooth="yes"/>
      <point x="1356" y="1652" type="line"/>
    </contour>
    <contour>
      <point x="1052" y="1132" type="line"/>
      <point x="1100" y="1132" type="line"/>
      <point x="1100" y="1180" type="line"/>
      <point x="1052" y="1180" type="line"/>
    </contour>
    <contour>
      <point x="568" y="2048" type="line"/>
      <point x="64" y="2048" type="line"/>
      <point x="844" y="780" type="line"/>
      <point x="844" y="0" type="line"/>
      <point x="1308" y="0" type="line"/>
      <point x="1308" y="780" type="line"/>
      <point x="1740" y="1484" type="line"/>
      <point x="1356" y="1652" type="line"/>
      <point x="1076" y="1160" type="line"/>
    </contour>
  </outline>
</glyph>
<glyph name="dotlessj" format="2">
  <advance width="948"/>
  <unicode hex="0237"/>
  <guideline x="544" y="1416" angle="90" identifier="hL8yYIbCDJ"/>
  <anchor x="560" y="1744" name="top"/>
  <anchor x="784" y="0" name="_right"/>
  <anchor x="964" y="1744" name="top0315"/>
  <outline>
    <contour>
      <point x="332" y="1536" type="line"/>
      <point x="332" y="-40" type="line"/>
      <point x="332" y="-140"/>
      <point x="296" y="-220"/>
      <point x="116" y="-220" type="curve"/>
      <point x="20" y="-220" type="line"/>
      <point x="20" y="-580" type="line"/>
      <point x="188" y="-580" type="line"/>
      <point x="532" y="-580"/>
      <point x="792" y="-420"/>
      <point x="792" y="-48" type="curve"/>
      <point x="792" y="1536" type="line"/>
    </contour>
  </outline>
</glyph>
<glyph name="uni0244" format="2">
  <advance width="2336"/>
  <unicode hex="0244"/>
  <anchor x="1168" y="2200" name="top"/>
  <anchor x="1168" y="0" name="bottom"/>
  <anchor x="2276" y="2200" name="top0315"/>
  <outline>
    <contour>
      <point x="2220" y="1160" type="line"/>
      <point x="116" y="1160" type="line"/>
      <point x="116" y="896" type="line"/>
      <point x="2220" y="896" type="line"/>
    </contour>
    <component base="U" xOffset="220"/>
  </outline>
</glyph>
<glyph name="Q_rthook" format="2">
  <advance width="2256"/>
  <unicode hex="024A"/>
  <guideline x="100" y="1024" angle="0" identifier="4mEwD2ZBjb"/>
  <outline>
    <contour>
      <point x="1992" y="2052" type="line"/>
      <point x="1532" y="2052" type="line"/>
      <point x="1532" y="1916" type="line"/>
      <point x="1512" y="1916" type="line"/>
      <point x="1412" y="2024"/>
      <point x="1228" y="2076"/>
      <point x="1032" y="2076" type="curve" smooth="yes"/>
      <point x="460" y="2076"/>
      <point x="116" y="1632"/>
      <point x="116" y="1024" type="curve"/>
      <point x="116" y="404"/>
      <point x="444" y="-28"/>
      <point x="1040" y="-28" type="curve"/>
      <point x="1240" y="-28"/>
      <point x="1408" y="20"/>
      <point x="1516" y="128" type="curve"/>
      <point x="1532" y="128" type="line"/>
      <point x="1532" y="8" type="line"/>
      <point x="1992" y="8" type="line"/>
    </contour>
    <contour>
      <point x="564" y="1024" type="curve"/>
      <point x="564" y="1376"/>
      <point x="692" y="1668"/>
      <point x="1040" y="1668" type="curve"/>
      <point x="1400" y="1668"/>
      <point x="1472" y="1388"/>
      <point x="1496" y="1304" type="curve"/>
      <point x="1520" y="1220"/>
      <point x="1528" y="1120"/>
      <point x="1528" y="1032" type="curve"/>
      <point x="1528" y="936"/>
      <point x="1504" y="792"/>
      <point x="1488" y="700" type="curve"/>
      <point x="1452" y="576"/>
      <point x="1356" y="388"/>
      <point x="1056" y="388" type="curve" smooth="yes"/>
      <point x="692" y="388"/>
      <point x="564" y="660"/>
    </contour>
    <contour>
      <point x="1992" y="184" type="line"/>
      <point x="1532" y="184" type="line"/>
      <point x="1532" y="-80" type="line" smooth="yes"/>
      <point x="1532" y="-516"/>
      <point x="1832" y="-576"/>
      <point x="2072" y="-576" type="curve" smooth="yes"/>
      <point x="2172" y="-576"/>
      <point x="2248" y="-568"/>
      <point x="2304" y="-560" type="curve"/>
      <point x="2304" y="-212" type="line"/>
      <point x="2272" y="-216"/>
      <point x="2236" y="-220"/>
      <point x="2196" y="-220" type="curve" smooth="yes"/>
      <point x="2092" y="-220"/>
      <point x="1992" y="-192"/>
      <point x="1992" y="-80" type="curve" smooth="yes"/>
    </contour>
  </outline>
</glyph>
<glyph name="uni024E" format="2">
  <advance width="2152"/>
  <unicode hex="024E"/>
  <anchor x="992" y="2200" name="top"/>
  <anchor x="992" y="64" name="bottom"/>
  <anchor x="2024" y="2200" name="top0315"/>
  <outline>
    <contour>
      <point x="2052" y="1620" type="line"/>
      <point x="100" y="1620" type="line"/>
      <point x="100" y="1388" type="line"/>
      <point x="2052" y="1388" type="line"/>
    </contour>
    <component base="Y"/>
  </outline>
</glyph>
<glyph name="uni024F" format="2">
  <advance width="1824"/>
  <unicode hex="024F"/>
  <anchor x="916" y="1776" name="top"/>
  <anchor x="1328" y="-128" name="bottom"/>
  <anchor x="1744" y="1776" name="top0315"/>
  <outline>
    <contour>
      <point x="1692" y="1024" type="line" name="hr00"/>
      <point x="136" y="1024" type="line"/>
      <point x="136" y="804" type="line"/>
      <point x="1692" y="804" type="line"/>
    </contour>
    <component base="y" xOffset="180"/>
  </outline>
</glyph>
<glyph name="schwa" format="2">
  <advance width="1568"/>
  <unicode hex="0259"/>
  <guideline x="1061.5" y="0" angle="90" identifier="AC1RPgsEi2"/>
  <anchor x="772" y="1776" name="top"/>
  <anchor x="816" y="0" name="bottom"/>
  <anchor x="1376" y="44" name="right"/>
  <anchor x="1248" y="900" name="rhotichook"/>
  <anchor x="1516" y="1776" name="top0315"/>
  <outline>
    <contour>
      <point x="732" y="1516" type="curve"/>
      <point x="476" y="1516"/>
      <point x="268" y="1436"/>
      <point x="152" y="1352" type="curve"/>
      <point x="264" y="1068" type="line"/>
      <point x="384" y="1120"/>
      <point x="476" y="1160"/>
      <point x="676" y="1160" type="curve" smooth="yes"/>
      <point x="900" y="1160"/>
      <point x="1004" y="988"/>
      <point x="1004" y="796" type="curve" smooth="yes"/>
      <point x="1004" y="744" type="line" smooth="yes"/>
      <point x="1004" y="520"/>
      <point x="948" y="332"/>
      <point x="764" y="332" type="curve"/>
      <point x="616" y="332"/>
      <point x="556" y="420"/>
      <point x="556" y="564" type="curve"/>
      <point x="556" y="600" type="line"/>
      <point x="1272" y="600" type="line" name="hr01"/>
      <point x="1272" y="892" type="line"/>
      <point x="124" y="892" type="line"/>
      <point x="124" y="648" type="line" smooth="yes"/>
      <point x="124" y="236"/>
      <point x="356" y="-28"/>
      <point x="764" y="-28" type="curve" smooth="yes"/>
      <point x="1208" y="-28"/>
      <point x="1448" y="308"/>
      <point x="1448" y="744" type="curve" smooth="yes" name="hr02"/>
      <point x="1448" y="796" type="line" smooth="yes"/>
      <point x="1448" y="1200"/>
      <point x="1176" y="1516"/>
    </contour>
  </outline>
</glyph>
<glyph name="iota1" format="2">
  <advance width="1056"/>
  <unicode hex="0269"/>
  <anchor x="356" y="1776" name="top"/>
  <anchor x="356" y="0" name="bottom"/>
  <anchor x="992" y="1776" name="top0315"/>
  <anchor x="380" y="896" name="rhotichook"/>
  <outline>
    <contour>
      <point x="136" y="1488" type="line"/>
      <point x="136" y="468" type="line" smooth="yes"/>
      <point x="136" y="24"/>
      <point x="448" y="-28"/>
      <point x="688" y="-28" type="curve" smooth="yes"/>
      <point x="788" y="-28"/>
      <point x="860" y="-20"/>
      <point x="924" y="-8" type="curve"/>
      <point x="924" y="292" type="line"/>
      <point x="884" y="284"/>
      <point x="852" y="280"/>
      <point x="812" y="280" type="curve" smooth="yes"/>
      <point x="708" y="280"/>
      <point x="580" y="316"/>
      <point x="580" y="468" type="curve" smooth="yes"/>
      <point x="580" y="1488" type="line"/>
    </contour>
  </outline>
</glyph>
<glyph name="Ismallcap" format="2">
  <advance width="1312"/>
  <unicode hex="026A"/>
  <guideline x="537.625" y="0" angle="90" identifier="eHhS1JBzHG"/>
  <anchor x="656" y="1776" name="top"/>
  <anchor x="656" y="0" name="bottom"/>
  <anchor x="1196" y="1776" name="top0315"/>
  <outline>
    <contour>
      <point x="1084" y="1488" type="line" name="hr00"/>
      <point x="228" y="1488" type="line"/>
      <point x="228" y="1132" type="line"/>
      <point x="1084" y="1132" type="line"/>
    </contour>
    <contour>
      <point x="876" y="1488" type="line"/>
      <point x="432" y="1488" type="line"/>
      <point x="432" y="0" type="line"/>
      <point x="876" y="0" type="line"/>
    </contour>
    <contour>
      <point x="1084" y="360" type="line"/>
      <point x="228" y="360" type="line"/>
      <point x="228" y="0" type="line"/>
      <point x="1084" y="0" type="line"/>
    </contour>
  </outline>
</glyph>
<glyph name="lrthook" format="2">
  <advance width="748"/>
  <unicode hex="026D"/>
  <anchor x="352" y="2200" name="top"/>
  <anchor x="352" y="-616" name="bottom"/>
  <anchor x="924" y="2200" name="top0315"/>
  <outline>
    <contour>
      <point x="604" y="184" type="line"/>
      <point x="144" y="184" type="line"/>
      <point x="144" y="-80" type="line" smooth="yes"/>
      <point x="144" y="-516"/>
      <point x="444" y="-576"/>
      <point x="684" y="-576" type="curve" smooth="yes"/>
      <point x="784" y="-576"/>
      <point x="860" y="-568"/>
      <point x="916" y="-560" type="curve"/>
      <point x="916" y="-212" type="line"/>
      <point x="884" y="-216"/>
      <point x="848" y="-220"/>
      <point x="808" y="-220" type="curve" smooth="yes"/>
      <point x="704" y="-220"/>
      <point x="604" y="-192"/>
      <point x="604" y="-80" type="curve" smooth="yes"/>
    </contour>
    <component base="l"/>
  </outline>
</glyph>
<glyph name="mturndescend" format="2">
  <advance width="2440"/>
  <unicode hex="0270"/>
  <anchor x="1176" y="1776" name="top"/>
  <anchor x="1176" y="-616" name="bottom"/>
  <anchor x="2384" y="1776" name="top0315"/>
  <outline>
    <contour>
      <point x="1848" y="-576" type="line"/>
      <point x="2296" y="-576" type="line"/>
      <point x="2296" y="24" type="line"/>
      <point x="1848" y="24" type="line"/>
    </contour>
    <component base="m" xScale="-1" yScale="-1" xOffset="2408" yOffset="1536"/>
  </outline>
</glyph>
<glyph name="mhook" format="2">
  <advance width="2440"/>
  <unicode hex="0271"/>
  <anchor x="1204" y="1776" name="top"/>
  <anchor x="1204" y="-616" name="bottom"/>
  <anchor x="2416" y="1776" name="top0315"/>
  <outline>
    <contour>
      <point x="1836" y="184" type="line"/>
      <point x="1836" y="-80" type="line" smooth="yes"/>
      <point x="1836" y="-192"/>
      <point x="1736" y="-220"/>
      <point x="1632" y="-220" type="curve" smooth="yes"/>
      <point x="1592" y="-220"/>
      <point x="1556" y="-216"/>
      <point x="1524" y="-212" type="curve"/>
      <point x="1524" y="-560" type="line"/>
      <point x="1580" y="-568"/>
      <point x="1656" y="-576"/>
      <point x="1756" y="-576" type="curve" smooth="yes"/>
      <point x="1996" y="-576"/>
      <point x="2296" y="-516"/>
      <point x="2296" y="-80" type="curve" smooth="yes"/>
      <point x="2296" y="184" type="line"/>
    </contour>
    <component base="m"/>
  </outline>
</glyph>
<glyph name="Nsmallcap" format="2">
  <advance width="1568"/>
  <unicode hex="0274"/>
  <anchor x="788" y="1776" name="top"/>
  <anchor x="788" y="0" name="bottom"/>
  <anchor x="1588" y="1776" name="top0315"/>
  <outline>
    <contour>
      <point x="564" y="1488" type="line"/>
      <point x="1252" y="132" type="line"/>
      <point x="1004" y="0" type="line"/>
      <point x="320" y="1356" type="line"/>
    </contour>
    <contour>
      <point x="564" y="0" type="line"/>
      <point x="124" y="0" type="line"/>
      <point x="124" y="1488" type="line"/>
      <point x="564" y="1488" type="line"/>
    </contour>
    <contour>
      <point x="1448" y="0" type="line"/>
      <point x="1004" y="0" type="line"/>
      <point x="1004" y="1488" type="line"/>
      <point x="1448" y="1488" type="line"/>
    </contour>
  </outline>
</glyph>
<glyph name="omegaclosed" format="2">
  <advance width="2592"/>
  <unicode hex="0277"/>
  <guideline x="1061.5" y="0" angle="90" identifier="74cYnQEmbJ"/>
  <anchor x="1296" y="1776" name="top"/>
  <anchor x="1296" y="0" name="bottom"/>
  <anchor x="2452" y="1776" name="top0315"/>
  <outline>
    <contour>
      <point x="1296" y="1516" type="line"/>
      <point x="652" y="1516"/>
      <point x="236" y="1192"/>
      <point x="236" y="660" type="curve" smooth="yes"/>
      <point x="236" y="320"/>
      <point x="384" y="-28"/>
      <point x="852" y="-28" type="curve" smooth="yes"/>
      <point x="1176" y="-28"/>
      <point x="1392" y="244"/>
      <point x="1392" y="736" type="curve" smooth="yes"/>
      <point x="1392" y="952" type="line"/>
      <point x="1060" y="952" type="line"/>
      <point x="1060" y="688" type="line" smooth="yes"/>
      <point x="1060" y="424"/>
      <point x="972" y="332"/>
      <point x="868" y="332" type="curve" smooth="yes"/>
      <point x="720" y="332"/>
      <point x="676" y="444"/>
      <point x="676" y="660" type="curve" smooth="yes"/>
      <point x="676" y="908"/>
      <point x="844" y="1160"/>
      <point x="1296" y="1160" type="curve"/>
    </contour>
    <contour>
      <point x="1296" y="1160" type="line"/>
      <point x="1748" y="1160"/>
      <point x="1916" y="908"/>
      <point x="1916" y="660" type="curve" smooth="yes"/>
      <point x="1916" y="444"/>
      <point x="1872" y="332"/>
      <point x="1724" y="332" type="curve" smooth="yes"/>
      <point x="1620" y="332"/>
      <point x="1532" y="424"/>
      <point x="1532" y="688" type="curve" smooth="yes"/>
      <point x="1532" y="952" type="line"/>
      <point x="1200" y="952" type="line"/>
      <point x="1200" y="736" type="line" smooth="yes"/>
      <point x="1200" y="244"/>
      <point x="1416" y="-28"/>
      <point x="1740" y="-28" type="curve" smooth="yes"/>
      <point x="2208" y="-28"/>
      <point x="2360" y="320"/>
      <point x="2360" y="660" type="curve" smooth="yes"/>
      <point x="2360" y="1192"/>
      <point x="1940" y="1516"/>
      <point x="1296" y="1516" type="curve"/>
    </contour>
  </outline>
</glyph>
<glyph name="philatin" format="2">
  <advance width="2080"/>
  <unicode hex="0278"/>
  <guideline x="930.875" y="0" angle="90" identifier="ofVQhxliO2"/>
  <anchor x="1040" y="2200" name="top"/>
  <anchor x="1040" y="-616" name="bottom"/>
  <anchor x="1972" y="2200" name="top0315"/>
  <outline>
    <contour>
      <point x="188" y="728" type="line"/>
      <point x="188" y="156"/>
      <point x="580" y="-28"/>
      <point x="1040" y="-28" type="curve" smooth="yes"/>
      <point x="1504" y="-28"/>
      <point x="1892" y="156"/>
      <point x="1892" y="728" type="curve" smooth="yes"/>
      <point x="1892" y="760" type="line" smooth="yes"/>
      <point x="1892" y="1332"/>
      <point x="1504" y="1516"/>
      <point x="1040" y="1516" type="curve" smooth="yes"/>
      <point x="580" y="1516"/>
      <point x="188" y="1332"/>
      <point x="188" y="760" type="curve" smooth="yes"/>
    </contour>
    <contour>
      <point x="632" y="760" type="line"/>
      <point x="632" y="1084"/>
      <point x="836" y="1160"/>
      <point x="1040" y="1160" type="curve" smooth="yes"/>
      <point x="1248" y="1160"/>
      <point x="1448" y="1084"/>
      <point x="1448" y="760" type="curve" smooth="yes"/>
      <point x="1448" y="728" type="line" smooth="yes"/>
      <point x="1448" y="396"/>
      <point x="1244" y="332"/>
      <point x="1040" y="332" type="curve" smooth="yes"/>
      <point x="836" y="332"/>
      <point x="632" y="396"/>
      <point x="632" y="728" type="curve" smooth="yes"/>
    </contour>
    <contour>
      <point x="820" y="-572" type="line"/>
      <point x="1260" y="-572" type="line"/>
      <point x="1260" y="2112" type="line"/>
      <point x="820" y="2112" type="line"/>
    </contour>
  </outline>
</glyph>
<glyph name="rdescend" format="2">
  <advance width="1052"/>
  <unicode hex="027C"/>
  <anchor x="812" y="1776" name="top"/>
  <anchor x="812" y="-616" name="bottom"/>
  <anchor x="1128" y="1776" name="top0315"/>
  <outline>
    <contour>
      <point x="144" y="-576" type="line"/>
      <point x="604" y="-576" type="line"/>
      <point x="604" y="56" type="line"/>
      <point x="144" y="56" type="line"/>
    </contour>
    <component base="r"/>
  </outline>
</glyph>
<glyph name="esh" format="2">
  <advance width="1312"/>
  <unicode hex="0283"/>
  <guideline x="0" y="2140.875" angle="0" identifier="8XOrZOd99O"/>
  <guideline x="0" y="-599.5" angle="0" identifier="cthkeoyMtO"/>
  <anchor x="944" y="2340" name="top"/>
  <anchor x="356" y="-616" name="bottom"/>
  <anchor x="1240" y="2340" name="top0315"/>
  <outline>
    <contour>
      <point x="880" y="0" type="line" name="hr00"/>
      <point x="880" y="1608" type="line" smooth="yes"/>
      <point x="880" y="1724"/>
      <point x="956" y="1784"/>
      <point x="1092" y="1784" type="curve" smooth="yes"/>
      <point x="1144" y="1784"/>
      <point x="1176" y="1780"/>
      <point x="1208" y="1772" type="curve"/>
      <point x="1208" y="2112" type="line"/>
      <point x="1144" y="2128"/>
      <point x="1076" y="2140"/>
      <point x="996" y="2140" type="curve" smooth="yes"/>
      <point x="652" y="2140"/>
      <point x="432" y="1956"/>
      <point x="432" y="1608" type="curve" smooth="yes"/>
      <point x="432" y="0" type="line"/>
    </contour>
    <contour>
      <point x="432" y="1540" type="line"/>
      <point x="432" y="-68" type="line" smooth="yes"/>
      <point x="432" y="-180"/>
      <point x="356" y="-244"/>
      <point x="220" y="-244" type="curve" smooth="yes"/>
      <point x="168" y="-244"/>
      <point x="136" y="-240"/>
      <point x="104" y="-232" type="curve"/>
      <point x="104" y="-572" type="line"/>
      <point x="168" y="-588"/>
      <point x="240" y="-600"/>
      <point x="316" y="-600" type="curve" smooth="yes"/>
      <point x="660" y="-600"/>
      <point x="880" y="-412"/>
      <point x="880" y="-68" type="curve" smooth="yes"/>
      <point x="880" y="1540" type="line"/>
    </contour>
  </outline>
</glyph>
<glyph name="eshshortrev" format="2">
  <advance width="1312"/>
  <unicode hex="0285"/>
  <guideline x="0" y="1515.25" angle="0" identifier="oalb2F7Ejt"/>
  <guideline x="0" y="-600.875" angle="0" identifier="BOs9Rw68uD"/>
  <anchor x="364" y="1776" name="top"/>
  <anchor x="940" y="-616" name="bottom"/>
  <anchor x="1240" y="1776" name="top0315"/>
  <outline>
    <contour>
      <point x="880" y="0" type="line" name="hr00"/>
      <point x="880" y="984" type="line" smooth="yes"/>
      <point x="880" y="1328"/>
      <point x="664" y="1516"/>
      <point x="316" y="1516" type="curve" smooth="yes"/>
      <point x="240" y="1516"/>
      <point x="168" y="1504"/>
      <point x="104" y="1488" type="curve"/>
      <point x="104" y="1144" type="line"/>
      <point x="136" y="1156"/>
      <point x="172" y="1160"/>
      <point x="220" y="1160" type="curve" smooth="yes"/>
      <point x="360" y="1160"/>
      <point x="436" y="1096"/>
      <point x="436" y="984" type="curve" smooth="yes"/>
      <point x="436" y="0" type="line"/>
    </contour>
    <contour>
      <point x="436" y="916" type="line"/>
      <point x="436" y="-68" type="line" smooth="yes"/>
      <point x="436" y="-416"/>
      <point x="652" y="-600"/>
      <point x="996" y="-600" type="curve" smooth="yes"/>
      <point x="1076" y="-600"/>
      <point x="1144" y="-588"/>
      <point x="1212" y="-572" type="curve"/>
      <point x="1212" y="-232" type="line"/>
      <point x="1176" y="-240"/>
      <point x="1144" y="-244"/>
      <point x="1092" y="-244" type="curve" smooth="yes"/>
      <point x="956" y="-244"/>
      <point x="880" y="-184"/>
      <point x="880" y="-68" type="curve" smooth="yes"/>
      <point x="880" y="916" type="line"/>
    </contour>
  </outline>
</glyph>
<glyph name="trthook" format="2">
  <advance width="1312"/>
  <unicode hex="0288"/>
  <anchor x="592" y="2200" name="top"/>
  <anchor x="848" y="-616" name="bottom"/>
  <anchor x="1188" y="2200" name="top0315"/>
  <outline>
    <contour>
      <point x="364" y="1860" type="line"/>
      <point x="364" y="-108" type="line" smooth="yes"/>
      <point x="364" y="-548"/>
      <point x="676" y="-600"/>
      <point x="916" y="-600" type="curve" smooth="yes"/>
      <point x="1016" y="-600"/>
      <point x="1084" y="-592"/>
      <point x="1148" y="-580" type="curve"/>
      <point x="1148" y="-284" type="line"/>
      <point x="1112" y="-288"/>
      <point x="1076" y="-292"/>
      <point x="1040" y="-292" type="curve" smooth="yes"/>
      <point x="936" y="-292"/>
      <point x="804" y="-256"/>
      <point x="804" y="-108" type="curve" smooth="yes"/>
      <point x="804" y="1860" type="line"/>
    </contour>
    <contour>
      <point x="1052" y="1536" type="line" name="hr00"/>
      <point x="164" y="1536" type="line"/>
      <point x="164" y="1216" type="line"/>
      <point x="1052" y="1216" type="line"/>
    </contour>
  </outline>
</glyph>
<glyph name="ubar" format="2">
  <advance width="2080"/>
  <unicode hex="0289"/>
  <anchor x="1044" y="1776" name="top"/>
  <anchor x="1044" y="0" name="bottom"/>
  <anchor x="2020" y="1776" name="top0315"/>
  <outline>
    <contour>
      <point x="1976" y="916" type="line"/>
      <point x="104" y="916" type="line"/>
      <point x="104" y="652" type="line"/>
      <point x="1976" y="652" type="line"/>
    </contour>
    <component base="u" xOffset="232"/>
  </outline>
</glyph>
<glyph name="zrthook" format="2">
  <advance width="1544"/>
  <unicode hex="0290"/>
  <anchor x="672" y="1776" name="top"/>
  <anchor x="672" y="-616" name="bottom"/>
  <anchor x="1740" y="1776" name="top0315"/>
  <outline>
    <contour>
      <point x="1096" y="360" type="line"/>
      <point x="1096" y="-108" type="line" smooth="yes"/>
      <point x="1096" y="-424"/>
      <point x="1272" y="-600"/>
      <point x="1564" y="-600" type="curve" smooth="yes"/>
      <point x="1628" y="-600"/>
      <point x="1680" y="-596"/>
      <point x="1744" y="-580" type="curve"/>
      <point x="1744" y="-284" type="line"/>
      <point x="1704" y="-288"/>
      <point x="1672" y="-292"/>
      <point x="1632" y="-292" type="curve" smooth="yes"/>
      <point x="1528" y="-292"/>
      <point x="1400" y="-256"/>
      <point x="1400" y="-108" type="curve" smooth="yes"/>
      <point x="1400" y="360" type="line"/>
    </contour>
    <component base="z"/>
  </outline>
</glyph>
<glyph name="glottalstoprevinv" format="2">
  <advance width="1568"/>
  <unicode hex="0295"/>
  <guideline x="0" y="2140.875" angle="0" identifier="1MRv2RguSw"/>
  <anchor x="808" y="2244" name="top"/>
  <anchor x="808" y="0" name="bottom"/>
  <anchor x="1512" y="2244" name="top0315"/>
  <outline>
    <contour>
      <point x="812" y="780" type="line" name="hr00"/>
      <point x="604" y="780"/>
      <point x="568" y="956"/>
      <point x="568" y="1176" type="curve" smooth="yes"/>
      <point x="568" y="1384" type="line" smooth="yes"/>
      <point x="568" y="1600"/>
      <point x="604" y="1784"/>
      <point x="808" y="1784" type="curve" smooth="yes"/>
      <point x="956" y="1784"/>
      <point x="1028" y="1680"/>
      <point x="1028" y="1544" type="curve"/>
      <point x="1444" y="1544" type="line"/>
      <point x="1444" y="1924"/>
      <point x="1188" y="2140"/>
      <point x="816" y="2140" type="curve" smooth="yes"/>
      <point x="356" y="2140"/>
      <point x="124" y="1816"/>
      <point x="124" y="1384" type="curve" smooth="yes"/>
      <point x="124" y="1176" type="line" smooth="yes"/>
      <point x="124" y="748"/>
      <point x="356" y="424"/>
      <point x="820" y="424" type="curve" smooth="yes"/>
      <point x="976" y="424" type="line"/>
      <point x="976" y="780" type="line"/>
    </contour>
    <contour>
      <point x="580" y="0" type="line"/>
      <point x="1024" y="0" type="line"/>
      <point x="1024" y="780" type="line"/>
      <point x="580" y="780" type="line"/>
    </contour>
  </outline>
</glyph>
<glyph name="glottalstopinv" format="2">
  <advance width="1568"/>
  <unicode hex="0296"/>
  <guideline x="0" y="-27.5" angle="0" identifier="2MprVUiS91"/>
  <anchor x="764" y="2244" name="top"/>
  <anchor x="764" y="0" name="bottom"/>
  <anchor x="1524" y="2244" name="top0315"/>
  <outline>
    <contour>
      <point x="760" y="1336" type="line"/>
      <point x="968" y="1336"/>
      <point x="1000" y="1156"/>
      <point x="1000" y="936" type="curve" smooth="yes"/>
      <point x="1000" y="728" type="line" smooth="yes"/>
      <point x="1000" y="516"/>
      <point x="964" y="332"/>
      <point x="760" y="332" type="curve" smooth="yes"/>
      <point x="612" y="332"/>
      <point x="540" y="436"/>
      <point x="540" y="568" type="curve"/>
      <point x="124" y="568" type="line"/>
      <point x="124" y="192"/>
      <point x="384" y="-28"/>
      <point x="752" y="-28" type="curve" smooth="yes"/>
      <point x="1212" y="-28"/>
      <point x="1444" y="300"/>
      <point x="1444" y="728" type="curve" smooth="yes"/>
      <point x="1444" y="936" type="line" smooth="yes"/>
      <point x="1444" y="1368"/>
      <point x="1212" y="1692"/>
      <point x="748" y="1692" type="curve" smooth="yes"/>
      <point x="596" y="1692" type="line"/>
      <point x="596" y="1336" type="line"/>
    </contour>
    <contour>
      <point x="988" y="2112" type="line"/>
      <point x="544" y="2112" type="line"/>
      <point x="544" y="1336" type="line"/>
      <point x="988" y="1336" type="line"/>
    </contour>
  </outline>
</glyph>
<glyph name="cstretch" format="2">
  <advance width="1568"/>
  <unicode hex="0297"/>
  <anchor x="812" y="2244" name="top"/>
  <anchor x="812" y="-616" name="bottom"/>
  <anchor x="1512" y="2244" name="top0315"/>
  <outline>
    <contour>
      <point x="812" y="-244" type="curve" smooth="yes"/>
      <point x="604" y="-244"/>
      <point x="568" y="-64"/>
      <point x="568" y="156" type="curve" smooth="yes"/>
      <point x="568" y="760" type="line" smooth="yes"/>
      <point x="568" y="976"/>
      <point x="604" y="1160"/>
      <point x="808" y="1160" type="curve"/>
      <point x="956" y="1160"/>
      <point x="1028" y="1052"/>
      <point x="1028" y="920" type="curve"/>
      <point x="1444" y="920" type="line"/>
      <point x="1444" y="1296"/>
      <point x="1188" y="1516"/>
      <point x="816" y="1516" type="curve" smooth="yes"/>
      <point x="356" y="1516"/>
      <point x="124" y="1188"/>
      <point x="124" y="760" type="curve" smooth="yes"/>
      <point x="124" y="156" type="line" smooth="yes"/>
      <point x="124" y="-276"/>
      <point x="356" y="-600"/>
      <point x="820" y="-600" type="curve"/>
      <point x="1172" y="-600"/>
      <point x="1444" y="-376"/>
      <point x="1444" y="-40" type="curve"/>
      <point x="1028" y="-40" type="line"/>
      <point x="1028" y="-168"/>
      <point x="944" y="-244"/>
    </contour>
  </outline>
</glyph>
<glyph name="Gsmallcaphook" format="2">
  <advance width="2080"/>
  <unicode hex="029B"/>
  <anchor x="892" y="1776" name="top"/>
  <anchor x="892" y="0" name="bottom"/>
  <anchor x="1924" y="1776" name="top0315"/>
  <outline>
    <contour>
      <point x="1636" y="984" type="line"/>
      <point x="1636" y="1184" type="line" smooth="yes"/>
      <point x="1636" y="1336"/>
      <point x="1712" y="1372"/>
      <point x="1816" y="1372" type="curve" smooth="yes"/>
      <point x="1856" y="1372"/>
      <point x="1888" y="1364"/>
      <point x="1924" y="1360" type="curve"/>
      <point x="1924" y="1656" type="line"/>
      <point x="1860" y="1672"/>
      <point x="1808" y="1680"/>
      <point x="1744" y="1680" type="curve" smooth="yes"/>
      <point x="1452" y="1680"/>
      <point x="1276" y="1504"/>
      <point x="1276" y="1184" type="curve" smooth="yes"/>
      <point x="1276" y="984" type="line"/>
    </contour>
    <component base="Gsmallcap" xOffset="16"/>
  </outline>
</glyph>
<glyph name="jcrosstail" format="2">
  <advance width="1568"/>
  <unicode hex="029D"/>
  <anchor x="908" y="2200" name="top"/>
  <anchor x="908" y="-616" name="bottom"/>
  <anchor x="1536" y="2200" name="top0315"/>
  <outline>
    <contour>
      <point x="1508" y="172" type="line"/>
      <point x="536" y="172" type="line" smooth="yes"/>
      <point x="228" y="172"/>
      <point x="64" y="24"/>
      <point x="64" y="-208" type="curve" smooth="yes"/>
      <point x="64" y="-440"/>
      <point x="228" y="-600"/>
      <point x="576" y="-600" type="curve" smooth="yes"/>
      <point x="1008" y="-600"/>
      <point x="1132" y="-352"/>
      <point x="1132" y="-52" type="curve" smooth="yes"/>
      <point x="1132" y="344" type="line"/>
      <point x="688" y="344" type="line"/>
      <point x="688" y="-168" type="line" smooth="yes"/>
      <point x="688" y="-264"/>
      <point x="660" y="-324"/>
      <point x="568" y="-324" type="curve" smooth="yes"/>
      <point x="504" y="-324"/>
      <point x="444" y="-296"/>
      <point x="444" y="-220" type="curve" smooth="yes"/>
      <point x="444" y="-156"/>
      <point x="500" y="-124"/>
      <point x="584" y="-124" type="curve" smooth="yes"/>
      <point x="1508" y="-124" type="line"/>
    </contour>
    <component base="i" xOffset="512"/>
  </outline>
</glyph>
<glyph name="Lsmallcap" format="2">
  <advance width="1312"/>
  <unicode hex="029F"/>
  <anchor x="336" y="1776" name="top"/>
  <anchor x="708" y="0" name="bottom"/>
  <anchor x="1244" y="1776" name="top0315"/>
  <outline>
    <contour>
      <point x="1200" y="356" type="line"/>
      <point x="388" y="356" type="line"/>
      <point x="388" y="0" type="line"/>
      <point x="1200" y="0" type="line"/>
    </contour>
    <contour>
      <point x="556" y="1488" type="line"/>
      <point x="112" y="1488" type="line"/>
      <point x="112" y="0" type="line"/>
      <point x="556" y="0" type="line"/>
    </contour>
  </outline>
</glyph>
<glyph name="glottalstopbar" format="2">
  <advance width="1568"/>
  <unicode hex="02A1"/>
  <guideline x="737" y="0" angle="90" identifier="67Q3tooUYJ"/>
  <anchor x="748" y="2244" name="top"/>
  <anchor x="788" y="0" name="bottom"/>
  <anchor x="1524" y="2244" name="top0315"/>
  <outline>
    <contour>
      <point x="1288" y="444" type="line"/>
      <point x="300" y="444" type="line"/>
      <point x="300" y="180" type="line"/>
      <point x="1288" y="180" type="line"/>
    </contour>
    <contour>
      <point x="596" y="780" type="line" name="hr01"/>
      <point x="596" y="424" type="line"/>
      <point x="760" y="424" type="line" smooth="yes"/>
      <point x="1212" y="424"/>
      <point x="1444" y="748"/>
      <point x="1444" y="1180" type="curve" smooth="yes"/>
      <point x="1444" y="1388" type="line" smooth="yes"/>
      <point x="1444" y="1816"/>
      <point x="1212" y="2140"/>
      <point x="748" y="2140" type="curve" smooth="yes"/>
      <point x="396" y="2140"/>
      <point x="124" y="1920"/>
      <point x="124" y="1584" type="curve"/>
      <point x="540" y="1584" type="line"/>
      <point x="540" y="1708"/>
      <point x="624" y="1784"/>
      <point x="760" y="1784" type="curve" smooth="yes"/>
      <point x="968" y="1784"/>
      <point x="1000" y="1608"/>
      <point x="1000" y="1388" type="curve" smooth="yes"/>
      <point x="1000" y="1180" type="line" smooth="yes"/>
      <point x="1000" y="964"/>
      <point x="964" y="780"/>
      <point x="760" y="780" type="curve" smooth="yes"/>
    </contour>
    <contour>
      <point x="1016" y="780" type="line"/>
      <point x="572" y="780" type="line"/>
      <point x="572" y="0" type="line"/>
      <point x="1016" y="0" type="line"/>
    </contour>
  </outline>
</glyph>
<glyph name="tesh" format="2">
  <advance width="2080"/>
  <unicode hex="02A7"/>
  <anchor x="980" y="2340" name="top"/>
  <anchor x="980" y="-616" name="bottom"/>
  <anchor x="1956" y="2340" name="top0315"/>
  <outline>
    <contour>
      <point x="1316" y="1488" type="line"/>
      <point x="152" y="1488" type="line"/>
      <point x="152" y="1168" type="line"/>
      <point x="1316" y="1168" type="line"/>
    </contour>
    <contour>
      <point x="352" y="1860" type="line"/>
      <point x="352" y="484" type="line"/>
      <point x="352" y="176"/>
      <point x="440" y="-28"/>
      <point x="808" y="-28" type="curve" smooth="yes"/>
      <point x="976" y="-28"/>
      <point x="1148" y="16"/>
      <point x="1224" y="40" type="curve"/>
      <point x="1224" y="372" type="line"/>
      <point x="1196" y="368"/>
      <point x="1064" y="336"/>
      <point x="944" y="336" type="curve" smooth="yes"/>
      <point x="836" y="336"/>
      <point x="792" y="372"/>
      <point x="792" y="484" type="curve"/>
      <point x="792" y="1860" type="line"/>
    </contour>
    <component base="esh" xOffset="776"/>
  </outline>
</glyph>
<glyph name="uni02AB" format="2">
  <advance width="2184"/>
  <unicode hex="02AB"/>
  <anchor x="1172" y="2200" name="top"/>
  <anchor x="1172" y="0" name="bottom"/>
  <anchor x="1984" y="2200" name="top0315"/>
  <outline>
    <contour>
      <point x="2040" y="360" type="line"/>
      <point x="896" y="360" type="line"/>
      <point x="896" y="0" type="line"/>
      <point x="2040" y="0" type="line"/>
    </contour>
    <contour>
      <point x="2024" y="1276" type="line"/>
      <point x="2024" y="1536" type="line"/>
      <point x="1720" y="1536" type="line"/>
      <point x="784" y="260" type="line"/>
      <point x="784" y="0" type="line"/>
      <point x="1088" y="0" type="line"/>
    </contour>
    <contour>
      <point x="1876" y="1536" type="line"/>
      <point x="364" y="1536" type="line"/>
      <point x="364" y="1176" type="line"/>
      <point x="1876" y="1176" type="line"/>
    </contour>
    <component base="l"/>
  </outline>
</glyph>
<glyph name="ringhalfright" format="2">
  <advance width="544"/>
  <unicode hex="02BE"/>
  <anchor x="188" y="1652" name="_top"/>
  <anchor x="260" y="1624" name="_rhalfring"/>
  <outline>
    <contour>
      <point x="128" y="1576" type="line"/>
      <point x="292" y="1576"/>
      <point x="416" y="1684"/>
      <point x="416" y="1836" type="curve" smooth="yes"/>
      <point x="416" y="1984"/>
      <point x="292" y="2100"/>
      <point x="128" y="2100" type="curve"/>
      <point x="128" y="1968" type="line"/>
      <point x="204" y="1968"/>
      <point x="252" y="1916"/>
      <point x="252" y="1836" type="curve" smooth="yes"/>
      <point x="252" y="1756"/>
      <point x="204" y="1704"/>
      <point x="128" y="1704" type="curve"/>
    </contour>
  </outline>
</glyph>
<glyph name="arrowheadleftmod" format="2">
  <advance width="1568"/>
  <unicode hex="02C2"/>
  <outline>
    <contour>
      <point x="712" y="1308" type="line"/>
      <point x="252" y="1396" type="line"/>
      <point x="252" y="1172" type="line"/>
      <point x="1316" y="800" type="line"/>
      <point x="1316" y="1108" type="line"/>
    </contour>
    <contour>
      <point x="1316" y="1536" type="line"/>
      <point x="1316" y="1840" type="line"/>
      <point x="252" y="1468" type="line"/>
      <point x="252" y="1244" type="line"/>
      <point x="712" y="1328" type="line"/>
    </contour>
  </outline>
</glyph>
<glyph name="arrowheadrightmod" format="2">
  <advance width="1568"/>
  <unicode hex="02C3"/>
  <outline>
    <contour>
      <point x="856" y="1308" type="line"/>
      <point x="1316" y="1396" type="line"/>
      <point x="1316" y="1172" type="line"/>
      <point x="252" y="800" type="line"/>
      <point x="252" y="1108" type="line"/>
    </contour>
    <contour>
      <point x="252" y="1536" type="line"/>
      <point x="252" y="1840" type="line"/>
      <point x="1316" y="1468" type="line"/>
      <point x="1316" y="1244" type="line"/>
      <point x="856" y="1328" type="line"/>
    </contour>
  </outline>
</glyph>
<glyph name="arrowheaddownmod" format="2">
  <advance width="1312"/>
  <unicode hex="02C5"/>
  <outline>
    <contour>
      <point x="644" y="1248" type="line"/>
      <point x="732" y="788" type="line"/>
      <point x="508" y="788" type="line"/>
      <point x="136" y="1852" type="line"/>
      <point x="444" y="1852" type="line"/>
    </contour>
    <contour>
      <point x="872" y="1852" type="line"/>
      <point x="1176" y="1852" type="line"/>
      <point x="804" y="788" type="line"/>
      <point x="580" y="788" type="line"/>
      <point x="664" y="1248" type="line"/>
    </contour>
  </outline>
</glyph>
<glyph name="caron" format="2">
  <advance width="1568"/>
  <unicode hex="02C7"/>
  <anchor x="788" y="1712" name="_top"/>
  <anchor x="788" y="2204" name="mkmktop_acc"/>
  <outline>
    <contour>
      <point x="584" y="2048" type="line"/>
      <point x="204" y="2048" type="line"/>
      <point x="204" y="2036" type="line"/>
      <point x="644" y="1644" type="line"/>
      <point x="928" y="1644" type="line"/>
      <point x="1364" y="2036" type="line"/>
      <point x="1364" y="2048" type="line"/>
      <point x="988" y="2048" type="line"/>
      <point x="788" y="1864" type="line"/>
    </contour>
  </outline>
</glyph>
<glyph name="ringhalfleftcentered" format="2">
  <advance width="544"/>
  <unicode hex="02D3"/>
  <outline>
    <contour>
      <point x="416" y="372" type="line"/>
      <point x="344" y="372"/>
      <point x="292" y="424"/>
      <point x="292" y="500" type="curve" smooth="yes"/>
      <point x="292" y="580"/>
      <point x="344" y="632"/>
      <point x="416" y="632" type="curve"/>
      <point x="416" y="768" type="line"/>
      <point x="256" y="768"/>
      <point x="128" y="652"/>
      <point x="128" y="500" type="curve" smooth="yes"/>
      <point x="128" y="348"/>
      <point x="256" y="240"/>
      <point x="416" y="240" type="curve"/>
    </contour>
  </outline>
</glyph>
<glyph name="uptackmod" format="2">
  <advance width="1056"/>
  <unicode hex="02D4"/>
  <outline>
    <contour>
      <point x="668" y="808" type="line"/>
      <point x="388" y="808" type="line"/>
      <point x="388" y="204" type="line"/>
      <point x="668" y="204" type="line"/>
    </contour>
    <contour>
      <point x="184" y="468" type="line"/>
      <point x="184" y="204" type="line"/>
      <point x="872" y="204" type="line"/>
      <point x="872" y="468" type="line"/>
    </contour>
  </outline>
</glyph>
<glyph name="downtackmod" format="2">
  <advance width="1056"/>
  <unicode hex="02D5"/>
  <outline>
    <contour>
      <point x="668" y="204" type="line"/>
      <point x="388" y="204" type="line"/>
      <point x="388" y="808" type="line"/>
      <point x="668" y="808" type="line"/>
    </contour>
    <contour>
      <point x="184" y="544" type="line"/>
      <point x="184" y="808" type="line"/>
      <point x="872" y="808" type="line"/>
      <point x="872" y="544" type="line"/>
    </contour>
  </outline>
</glyph>
<glyph name="plusmod" format="2">
  <advance width="1056"/>
  <unicode hex="02D6"/>
  <outline>
    <contour>
      <point x="668" y="880" type="line"/>
      <point x="388" y="880" type="line"/>
      <point x="388" y="120" type="line"/>
      <point x="668" y="120" type="line"/>
    </contour>
    <contour>
      <point x="184" y="636" type="line"/>
      <point x="184" y="368" type="line"/>
      <point x="872" y="368" type="line"/>
      <point x="872" y="636" type="line"/>
    </contour>
  </outline>
</glyph>
<glyph name="minusmod" format="2">
  <advance width="1056"/>
  <unicode hex="02D7"/>
  <outline>
    <contour>
      <point x="160" y="636" type="line"/>
      <point x="160" y="368" type="line"/>
      <point x="900" y="368" type="line"/>
      <point x="900" y="636" type="line"/>
    </contour>
  </outline>
</glyph>
<glyph name="breve" format="2">
  <advance width="1312"/>
  <unicode hex="02D8"/>
  <anchor x="656" y="1776" name="_top"/>
  <anchor x="656" y="2248" name="mkmktop_acc"/>
  <outline>
    <contour>
      <point x="848" y="2116" type="line"/>
      <point x="848" y="2024"/>
      <point x="796" y="1940"/>
      <point x="656" y="1940" type="curve" smooth="yes"/>
      <point x="516" y="1940"/>
      <point x="464" y="2024"/>
      <point x="464" y="2116" type="curve"/>
      <point x="160" y="2116" type="line"/>
      <point x="160" y="1868"/>
      <point x="352" y="1692"/>
      <point x="656" y="1692" type="curve" smooth="yes"/>
      <point x="964" y="1692"/>
      <point x="1156" y="1868"/>
      <point x="1156" y="2116" type="curve"/>
    </contour>
  </outline>
</glyph>
<glyph name="dotaccent" format="2">
  <advance width="800"/>
  <unicode hex="02D9"/>
  <anchor x="400" y="1744" name="_top"/>
  <anchor x="184" y="1908" name="_dot"/>
  <anchor x="400" y="2264" name="mkmktop_acc"/>
  <outline>
    <contour>
      <point x="180" y="1896" type="curve" smooth="yes"/>
      <point x="180" y="1780"/>
      <point x="268" y="1696"/>
      <point x="400" y="1696" type="curve" smooth="yes"/>
      <point x="532" y="1696"/>
      <point x="620" y="1780"/>
      <point x="620" y="1896" type="curve" smooth="yes"/>
      <point x="620" y="2012"/>
      <point x="532" y="2096"/>
      <point x="400" y="2096" type="curve" smooth="yes"/>
      <point x="268" y="2096"/>
      <point x="180" y="2012"/>
    </contour>
  </outline>
</glyph>
<glyph name="ring" format="2">
  <advance width="1056"/>
  <unicode hex="02DA"/>
  <anchor x="524" y="1604" name="_top"/>
  <anchor x="524" y="2160" name="mkmktop_acc"/>
  <outline>
    <contour>
      <point x="220" y="1780" type="curve"/>
      <point x="220" y="1628"/>
      <point x="348" y="1508"/>
      <point x="528" y="1508" type="curve" smooth="yes"/>
      <point x="708" y="1508"/>
      <point x="836" y="1628"/>
      <point x="836" y="1780" type="curve" smooth="yes"/>
      <point x="836" y="1932"/>
      <point x="708" y="2060"/>
      <point x="528" y="2060" type="curve" smooth="yes"/>
      <point x="348" y="2060"/>
      <point x="220" y="1932"/>
    </contour>
    <contour>
      <point x="384" y="1780" type="curve"/>
      <point x="384" y="1860"/>
      <point x="440" y="1924"/>
      <point x="528" y="1924" type="curve" smooth="yes"/>
      <point x="616" y="1924"/>
      <point x="672" y="1860"/>
      <point x="672" y="1780" type="curve" smooth="yes"/>
      <point x="672" y="1700"/>
      <point x="616" y="1636"/>
      <point x="528" y="1636" type="curve" smooth="yes"/>
      <point x="440" y="1636"/>
      <point x="384" y="1700"/>
    </contour>
  </outline>
</glyph>
<glyph name="ogonek" format="2">
  <advance width="800"/>
  <unicode hex="02DB"/>
  <anchor x="648" y="0" name="_ogonek"/>
  <anchor x="648" y="0" name="_right"/>
  <anchor x="512" y="0" name="_bottom"/>
  <anchor x="512" y="-572" name="mkmkbottom_acc"/>
  <outline>
    <contour>
      <point x="408" y="84" type="line"/>
      <point x="184" y="-20"/>
      <point x="124" y="-148"/>
      <point x="124" y="-280" type="curve" smooth="yes"/>
      <point x="124" y="-472"/>
      <point x="268" y="-572"/>
      <point x="452" y="-572" type="curve" smooth="yes"/>
      <point x="560" y="-572"/>
      <point x="632" y="-540"/>
      <point x="680" y="-512" type="curve"/>
      <point x="628" y="-284" type="line"/>
      <point x="604" y="-292"/>
      <point x="580" y="-308"/>
      <point x="532" y="-308" type="curve" smooth="yes"/>
      <point x="468" y="-308"/>
      <point x="444" y="-272"/>
      <point x="444" y="-220" type="curve" smooth="yes"/>
      <point x="444" y="-132"/>
      <point x="504" y="-76"/>
      <point x="648" y="0" type="curve"/>
    </contour>
  </outline>
</glyph>
<glyph name="tilde" format="2">
  <advance width="1312"/>
  <unicode hex="02DC"/>
  <anchor x="656" y="1780" name="_top"/>
  <anchor x="656" y="2304" name="mkmktop_acc"/>
  <outline>
    <contour>
      <point x="936" y="2124" type="line"/>
      <point x="936" y="2040"/>
      <point x="884" y="2000"/>
      <point x="824" y="2000" type="curve" smooth="yes"/>
      <point x="692" y="2000"/>
      <point x="588" y="2112"/>
      <point x="444" y="2112" type="curve" smooth="yes"/>
      <point x="260" y="2112"/>
      <point x="128" y="1932"/>
      <point x="128" y="1736" type="curve"/>
      <point x="380" y="1724" type="line"/>
      <point x="380" y="1808"/>
      <point x="428" y="1848"/>
      <point x="488" y="1848" type="curve" smooth="yes"/>
      <point x="628" y="1848"/>
      <point x="696" y="1732"/>
      <point x="868" y="1732" type="curve" smooth="yes"/>
      <point x="1052" y="1732"/>
      <point x="1184" y="1908"/>
      <point x="1184" y="2108" type="curve"/>
    </contour>
  </outline>
</glyph>
<glyph name="hungarumlaut" format="2">
  <advance width="1312"/>
  <unicode hex="02DD"/>
  <guideline x="0" y="1238.875" angle="0" identifier="lWuUwQWTKe"/>
  <guideline x="0" y="763.125" angle="0" identifier="T5YfauqsAt"/>
  <anchor x="500" y="1776" name="_top"/>
  <anchor x="500" y="2256" name="mkmktop_acc"/>
  <outline>
    <contour>
      <point x="576" y="1700" type="line"/>
      <point x="892" y="1700" type="line"/>
      <point x="1256" y="2112" type="line"/>
      <point x="884" y="2112" type="line"/>
    </contour>
    <contour>
      <point x="56" y="1700" type="line"/>
      <point x="372" y="1700" type="line"/>
      <point x="696" y="2112" type="line"/>
      <point x="324" y="2112" type="line"/>
    </contour>
  </outline>
</glyph>
<glyph name="rhotichookmod" format="2">
  <advance width="800"/>
  <unicode hex="02DE"/>
  <anchor x="-44" y="892" name="_markrhotichook"/>
  <outline>
    <contour>
      <point x="-52" y="728" type="line"/>
      <point x="244" y="804" type="line"/>
      <point x="308" y="564"/>
      <point x="364" y="388"/>
      <point x="624" y="388" type="curve" smooth="yes"/>
      <point x="708" y="388"/>
      <point x="788" y="412"/>
      <point x="852" y="448" type="curve"/>
      <point x="792" y="736" type="line"/>
      <point x="768" y="732"/>
      <point x="744" y="732"/>
      <point x="716" y="732" type="curve" smooth="yes"/>
      <point x="564" y="732"/>
      <point x="560" y="888"/>
      <point x="516" y="1176" type="curve"/>
      <point x="-52" y="1044" type="line"/>
    </contour>
  </outline>
</glyph>
<glyph name="qofdagesh" format="2">
  <advance width="1056"/>
  <unicode hex="02DF"/>
  <anchor x="532" y="1596" name="_top"/>
  <outline>
    <contour>
      <point x="320" y="1580" type="line"/>
      <point x="920" y="2188" type="line"/>
      <point x="740" y="2368" type="line"/>
      <point x="140" y="1764" type="line"/>
    </contour>
    <contour>
      <point x="736" y="1576" type="line"/>
      <point x="916" y="1760" type="line"/>
      <point x="320" y="2372" type="line"/>
      <point x="140" y="2188" type="line"/>
    </contour>
  </outline>
</glyph>
<glyph name="tonebarhighmod" format="2">
  <advance width="1056"/>
  <unicode hex="02E6"/>
  <outline>
    <contour>
      <point x="948" y="2004" type="line"/>
      <point x="504" y="2004" type="line"/>
      <point x="504" y="0" type="line"/>
      <point x="948" y="0" type="line"/>
    </contour>
    <contour>
      <point x="900" y="1680" type="line"/>
      <point x="112" y="1680" type="line"/>
      <point x="112" y="1320" type="line"/>
      <point x="900" y="1320" type="line"/>
    </contour>
  </outline>
</glyph>
<glyph name="tonebarlowmod" format="2">
  <advance width="1056"/>
  <unicode hex="02E8"/>
  <outline>
    <contour>
      <point x="948" y="2004" type="line"/>
      <point x="504" y="2004" type="line"/>
      <point x="504" y="0" type="line"/>
      <point x="948" y="0" type="line"/>
    </contour>
    <contour>
      <point x="900" y="680" type="line"/>
      <point x="112" y="680" type="line"/>
      <point x="112" y="324" type="line"/>
      <point x="900" y="324" type="line"/>
    </contour>
  </outline>
</glyph>
<glyph name="tonebarextralowmod" format="2">
  <advance width="1056"/>
  <unicode hex="02E9"/>
  <outline>
    <contour>
      <point x="948" y="2004" type="line"/>
      <point x="504" y="2004" type="line"/>
      <point x="504" y="0" type="line"/>
      <point x="948" y="0" type="line"/>
    </contour>
    <contour>
      <point x="900" y="360" type="line"/>
      <point x="112" y="360" type="line"/>
      <point x="112" y="0" type="line"/>
      <point x="900" y="0" type="line"/>
    </contour>
  </outline>
</glyph>
<glyph name="uni02EA" format="2">
  <advance width="1312"/>
  <unicode hex="02EA"/>
  <outline>
    <contour>
      <point x="1148" y="360" type="line"/>
      <point x="444" y="360" type="line"/>
      <point x="444" y="0" type="line"/>
      <point x="1148" y="0" type="line"/>
    </contour>
    <contour>
      <point x="612" y="1248" type="line"/>
      <point x="168" y="1248" type="line"/>
      <point x="168" y="0" type="line"/>
      <point x="612" y="0" type="line"/>
    </contour>
  </outline>
</glyph>
<glyph name="uni02EB" format="2">
  <advance width="1312"/>
  <unicode hex="02EB"/>
  <guideline x="0" y="624.25" angle="0" identifier="to4D4MZ8oy"/>
  <outline>
    <contour>
      <point x="1148" y="804" type="line"/>
      <point x="444" y="804" type="line"/>
      <point x="444" y="444" type="line"/>
      <point x="1148" y="444" type="line"/>
    </contour>
    <contour>
      <point x="612" y="1248" type="line"/>
      <point x="168" y="1248" type="line"/>
      <point x="168" y="0" type="line"/>
      <point x="612" y="0" type="line"/>
    </contour>
  </outline>
</glyph>
<glyph name="uni02ED" format="2">
  <advance width="1312"/>
  <unicode hex="02ED"/>
  <outline>
    <contour>
      <point x="1112" y="2176" type="line"/>
      <point x="200" y="2176" type="line"/>
      <point x="200" y="1920" type="line"/>
      <point x="1112" y="1920" type="line"/>
    </contour>
    <contour>
      <point x="1112" y="1832" type="line"/>
      <point x="200" y="1832" type="line"/>
      <point x="200" y="1576" type="line"/>
      <point x="1112" y="1576" type="line"/>
    </contour>
  </outline>
</glyph>
<glyph name="uni02EF" format="2">
  <advance width="1056"/>
  <unicode hex="02EF"/>
  <outline>
    <contour>
      <point x="520" y="-472" type="line"/>
      <point x="584" y="-760" type="line"/>
      <point x="424" y="-760" type="line"/>
      <point x="164" y="-100" type="line"/>
      <point x="380" y="-100" type="line"/>
    </contour>
    <contour>
      <point x="680" y="-100" type="line"/>
      <point x="892" y="-100" type="line"/>
      <point x="632" y="-760" type="line"/>
      <point x="476" y="-760" type="line"/>
      <point x="536" y="-472" type="line"/>
    </contour>
  </outline>
</glyph>
<glyph name="uni02F0" format="2">
  <advance width="1056"/>
  <unicode hex="02F0"/>
  <outline>
    <contour>
      <point x="520" y="-384" type="line"/>
      <point x="584" y="-100" type="line"/>
      <point x="424" y="-100" type="line"/>
      <point x="164" y="-760" type="line"/>
      <point x="380" y="-760" type="line"/>
    </contour>
    <contour>
      <point x="680" y="-760" type="line"/>
      <point x="892" y="-760" type="line"/>
      <point x="632" y="-100" type="line"/>
      <point x="476" y="-100" type="line"/>
      <point x="536" y="-384" type="line"/>
    </contour>
  </outline>
</glyph>
<glyph name="uni02F2" format="2">
  <advance width="1056"/>
  <unicode hex="02F2"/>
  <outline>
    <contour>
      <point x="580" y="-432" type="line"/>
      <point x="900" y="-372" type="line"/>
      <point x="900" y="-520" type="line"/>
      <point x="156" y="-760" type="line"/>
      <point x="156" y="-560" type="line"/>
    </contour>
    <contour>
      <point x="156" y="-284" type="line"/>
      <point x="156" y="-84" type="line"/>
      <point x="900" y="-328" type="line"/>
      <point x="900" y="-472" type="line"/>
      <point x="580" y="-416" type="line"/>
    </contour>
  </outline>
</glyph>
<glyph name="uni02F3" format="2">
  <advance width="1056"/>
  <unicode hex="02F3"/>
  <anchor x="536" y="0" name="_bottom"/>
  <outline>
    <contour>
      <point x="268" y="-308" type="curve" smooth="yes"/>
      <point x="268" y="-444"/>
      <point x="380" y="-544"/>
      <point x="532" y="-544" type="curve" smooth="yes"/>
      <point x="676" y="-544"/>
      <point x="792" y="-448"/>
      <point x="792" y="-308" type="curve" smooth="yes"/>
      <point x="792" y="-176"/>
      <point x="676" y="-72"/>
      <point x="532" y="-72" type="curve" smooth="yes"/>
      <point x="380" y="-72"/>
      <point x="268" y="-176"/>
    </contour>
    <contour>
      <point x="432" y="-308" type="curve" smooth="yes"/>
      <point x="432" y="-252"/>
      <point x="472" y="-212"/>
      <point x="532" y="-212" type="curve" smooth="yes"/>
      <point x="584" y="-212"/>
      <point x="624" y="-252"/>
      <point x="624" y="-308" type="curve" smooth="yes"/>
      <point x="624" y="-368"/>
      <point x="584" y="-408"/>
      <point x="532" y="-408" type="curve" smooth="yes"/>
      <point x="472" y="-408"/>
      <point x="432" y="-368"/>
    </contour>
  </outline>
</glyph>
<glyph name="uni02F9" format="2">
  <advance width="1056"/>
  <unicode hex="02F9"/>
  <outline>
    <contour>
      <point x="516" y="2112" type="line"/>
      <point x="240" y="2112" type="line"/>
      <point x="240" y="1556" type="line"/>
      <point x="516" y="1556" type="line"/>
    </contour>
    <contour>
      <point x="240" y="2112" type="line"/>
      <point x="240" y="1852" type="line"/>
      <point x="816" y="1852" type="line"/>
      <point x="816" y="2112" type="line"/>
    </contour>
  </outline>
</glyph>
<glyph name="uni02FB" format="2">
  <advance width="1056"/>
  <unicode hex="02FB"/>
  <outline>
    <contour>
      <point x="516" y="-628" type="line"/>
      <point x="240" y="-628" type="line"/>
      <point x="240" y="-68" type="line"/>
      <point x="516" y="-68" type="line"/>
    </contour>
    <contour>
      <point x="240" y="-628" type="line"/>
      <point x="240" y="-368" type="line"/>
      <point x="816" y="-368" type="line"/>
      <point x="816" y="-628" type="line"/>
    </contour>
  </outline>
</glyph>
<glyph name="uni02FD" format="2">
  <advance width="1312"/>
  <unicode hex="02FD"/>
  <outline>
    <contour>
      <point x="896" y="-352" type="line"/>
      <point x="344" y="-352" type="line"/>
      <point x="344" y="-612" type="line"/>
      <point x="896" y="-612" type="line"/>
    </contour>
    <contour>
      <point x="436" y="-84" type="line"/>
      <point x="160" y="-84" type="line"/>
      <point x="160" y="-612" type="line"/>
      <point x="436" y="-612" type="line"/>
    </contour>
    <contour>
      <point x="1152" y="-84" type="line"/>
      <point x="876" y="-84" type="line"/>
      <point x="876" y="-612" type="line"/>
      <point x="1152" y="-612" type="line"/>
    </contour>
  </outline>
</glyph>
<glyph name="uni02FE" format="2">
  <advance width="1312"/>
  <unicode hex="02FE"/>
  <outline>
    <contour>
      <point x="1092" y="-368" type="line"/>
      <point x="404" y="-368" type="line"/>
      <point x="404" y="-628" type="line"/>
      <point x="1092" y="-628" type="line"/>
    </contour>
    <contour>
      <point x="496" y="-68" type="line"/>
      <point x="220" y="-68" type="line"/>
      <point x="220" y="-628" type="line"/>
      <point x="496" y="-628" type="line"/>
    </contour>
  </outline>
</glyph>
<glyph name="uni02FF" format="2">
  <advance width="1568"/>
  <unicode hex="02FF"/>
  <outline>
    <contour>
      <point x="1316" y="-44" type="line"/>
      <point x="424" y="-44" type="line"/>
      <point x="424" y="-324" type="line"/>
      <point x="1316" y="-324" type="line"/>
    </contour>
    <contour>
      <point x="668" y="232" type="line"/>
      <point x="252" y="-184" type="line"/>
      <point x="468" y="-292" type="line"/>
      <point x="988" y="232" type="line"/>
    </contour>
    <contour>
      <point x="988" y="-600" type="line"/>
      <point x="476" y="-84" type="line"/>
      <point x="252" y="-184" type="line"/>
      <point x="668" y="-600" type="line"/>
    </contour>
  </outline>
</glyph>
<glyph name="gravecomb" format="2">
  <unicode hex="0300"/>
  <anchor x="-751" y="1774" name="_top"/>
  <anchor x="-751" y="1774" name="_marktop"/>
  <anchor x="-751" y="2296" name="mkmktop"/>
  <anchor x="-873" y="1896" name="parent_top"/>
  <outline>
    <contour>
      <point x="-774" y="2112" type="line"/>
      <point x="-1246" y="2112" type="line"/>
      <point x="-861" y="1680" type="line"/>
      <point x="-501" y="1680" type="line"/>
    </contour>
  </outline>
</glyph>
<glyph name="acutecomb" format="2">
  <unicode hex="0301"/>
  <anchor x="-726" y="1774" name="_top"/>
  <anchor x="-726" y="1774" name="_marktop"/>
  <anchor x="-726" y="2296" name="mkmktop"/>
  <anchor x="-575" y="1896" name="parent_top"/>
  <outline>
    <contour>
      <point x="-946" y="1680" type="line"/>
      <point x="-586" y="1680" type="line"/>
      <point x="-204" y="2112" type="line"/>
      <point x="-675" y="2112" type="line"/>
    </contour>
  </outline>
</glyph>
<glyph name="macroncomb" format="2">
  <unicode hex="0304"/>
  <anchor x="-799" y="1774" name="_marktop"/>
  <anchor x="-799" y="2214" name="mkmktop"/>
  <anchor x="-792" y="1885" name="parent_top"/>
  <outline>
    <contour>
      <point x="-316" y="2005" type="line"/>
      <point x="-1269" y="2005" type="line"/>
      <point x="-1269" y="1767" type="line"/>
      <point x="-316" y="1767" type="line"/>
    </contour>
  </outline>
</glyph>
<glyph name="brevenosp" format="2">
  <unicode hex="0306"/>
  <anchor x="-781" y="1642" name="_marktop"/>
  <anchor x="-781" y="2247" name="mkmktop"/>
  <anchor x="-792" y="1903" name="parent_top"/>
  <outline>
    <contour>
      <point x="-601" y="2115" type="line"/>
      <point x="-601" y="2024"/>
      <point x="-652" y="1940"/>
      <point x="-792" y="1940" type="curve" smooth="yes"/>
      <point x="-934" y="1940"/>
      <point x="-986" y="2024"/>
      <point x="-986" y="2115" type="curve"/>
      <point x="-1291" y="2115" type="line"/>
      <point x="-1291" y="1866"/>
      <point x="-1099" y="1693"/>
      <point x="-792" y="1693" type="curve" smooth="yes"/>
      <point x="-487" y="1693"/>
      <point x="-294" y="1866"/>
      <point x="-294" y="2115" type="curve"/>
    </contour>
  </outline>
</glyph>
<glyph name="dotnosp" format="2">
  <unicode hex="0307"/>
  <anchor x="-792" y="1774" name="_marktop"/>
  <anchor x="-792" y="2255" name="mkmktop"/>
  <anchor x="-792" y="1871" name="parent_top"/>
  <outline>
    <contour>
      <point x="-1038" y="1871" type="curve" smooth="yes"/>
      <point x="-1038" y="1739"/>
      <point x="-939" y="1646"/>
      <point x="-792" y="1646" type="curve" smooth="yes"/>
      <point x="-645" y="1646"/>
      <point x="-546" y="1739"/>
      <point x="-546" y="1871" type="curve" smooth="yes"/>
      <point x="-546" y="2003"/>
      <point x="-645" y="2097"/>
      <point x="-792" y="2097" type="curve" smooth="yes"/>
      <point x="-939" y="2097"/>
      <point x="-1038" y="2003"/>
    </contour>
  </outline>
</glyph>
<glyph name="hook" format="2">
  <unicode hex="0309"/>
  <anchor x="-847" y="1786" name="_top"/>
  <anchor x="-847" y="1786" name="_marktop"/>
  <anchor x="-847" y="2405" name="mkmktop"/>
  <anchor x="-847" y="2405" name="mkmktop_acc"/>
  <anchor x="-760" y="2030" name="parent_top"/>
  <outline>
    <contour>
      <point x="-682" y="1755" type="line"/>
      <point x="-682" y="1840" type="line"/>
      <point x="-580" y="1854"/>
      <point x="-476" y="1913"/>
      <point x="-476" y="2034" type="curve" smooth="yes"/>
      <point x="-476" y="2203"/>
      <point x="-668" y="2305"/>
      <point x="-1035" y="2305" type="curve"/>
      <point x="-1045" y="2105" type="line"/>
      <point x="-935" y="2105"/>
      <point x="-857" y="2087"/>
      <point x="-857" y="2014" type="curve" smooth="yes"/>
      <point x="-857" y="1961"/>
      <point x="-912" y="1933"/>
      <point x="-1045" y="1928" type="curve"/>
      <point x="-1018" y="1755" type="line"/>
    </contour>
  </outline>
</glyph>
<glyph name="caroncmb" format="2">
  <unicode hex="030C"/>
  <anchor x="-803" y="1774" name="_top"/>
  <anchor x="-803" y="1774" name="_marktop"/>
  <anchor x="-803" y="2269" name="mkmktop"/>
  <anchor x="-792" y="1910" name="parent_top"/>
  <outline>
    <contour>
      <point x="-668" y="1708" type="line"/>
      <point x="-923" y="1708" type="line"/>
      <point x="-1354" y="2089" type="line"/>
      <point x="-1354" y="2112" type="line"/>
      <point x="-1012" y="2112" type="line"/>
      <point x="-796" y="1925" type="line"/>
      <point x="-579" y="2112" type="line"/>
      <point x="-230" y="2112" type="line"/>
      <point x="-230" y="2094" type="line"/>
    </contour>
  </outline>
</glyph>
<glyph name="dblgravecmb" format="2">
  <unicode hex="030F"/>
  <anchor x="-648" y="1774" name="_top"/>
  <anchor x="-648" y="1774" name="_marktop"/>
  <anchor x="-648" y="2255" name="mkmktop"/>
  <anchor x="-648" y="2255" name="mkmktop_acc"/>
  <anchor x="-829" y="1904" name="parent_top"/>
  <outline>
    <contour>
      <point x="-705" y="1722" type="line"/>
      <point x="-1064" y="1722" type="line"/>
      <point x="-1458" y="2087" type="line"/>
      <point x="-1042" y="2087" type="line"/>
    </contour>
    <contour>
      <point x="-201" y="1722" type="line"/>
      <point x="-560" y="1722" type="line"/>
      <point x="-897" y="2087" type="line"/>
      <point x="-481" y="2087" type="line"/>
    </contour>
  </outline>
</glyph>
<glyph name="candrabindunosp" format="2">
  <unicode hex="0310"/>
  <anchor x="-792" y="1595" name="_top"/>
  <anchor x="-792" y="1595" name="_marktop"/>
  <anchor x="-792" y="2626" name="mkmktop"/>
  <anchor x="-792" y="2097" name="parent_top"/>
  <outline>
    <contour>
      <point x="-601" y="2115" type="line"/>
      <point x="-601" y="2024"/>
      <point x="-652" y="1940"/>
      <point x="-792" y="1940" type="curve" smooth="yes"/>
      <point x="-934" y="1940"/>
      <point x="-986" y="2024"/>
      <point x="-986" y="2115" type="curve"/>
      <point x="-1291" y="2115" type="line"/>
      <point x="-1291" y="1866"/>
      <point x="-1099" y="1693"/>
      <point x="-792" y="1693" type="curve" smooth="yes"/>
      <point x="-487" y="1693"/>
      <point x="-294" y="1866"/>
      <point x="-294" y="2115" type="curve"/>
    </contour>
    <contour>
      <point x="-1038" y="2296" type="curve" smooth="yes"/>
      <point x="-1038" y="2179"/>
      <point x="-939" y="2091"/>
      <point x="-792" y="2091" type="curve" smooth="yes"/>
      <point x="-645" y="2091"/>
      <point x="-546" y="2179"/>
      <point x="-546" y="2296" type="curve" smooth="yes"/>
      <point x="-546" y="2413"/>
      <point x="-645" y="2501"/>
      <point x="-792" y="2501" type="curve" smooth="yes"/>
      <point x="-939" y="2501"/>
      <point x="-1038" y="2413"/>
    </contour>
  </outline>
</glyph>
<glyph name="breveinvnosp" format="2">
  <unicode hex="0311"/>
  <anchor x="-792" y="1595" name="_top"/>
  <anchor x="-792" y="1595" name="_marktop"/>
  <anchor x="-792" y="2145" name="mkmktop"/>
  <anchor x="-792" y="2145" name="mkmktop_acc"/>
  <anchor x="-792" y="1790" name="parent_top"/>
  <outline>
    <contour>
      <point x="-294" y="1580" type="line"/>
      <point x="-294" y="1829"/>
      <point x="-487" y="2002"/>
      <point x="-792" y="2002" type="curve" smooth="yes"/>
      <point x="-1099" y="2002"/>
      <point x="-1291" y="1829"/>
      <point x="-1291" y="1580" type="curve"/>
      <point x="-986" y="1580" type="line"/>
      <point x="-986" y="1671"/>
      <point x="-934" y="1755"/>
      <point x="-792" y="1755" type="curve" smooth="yes"/>
      <point x="-652" y="1755"/>
      <point x="-601" y="1671"/>
      <point x="-601" y="1580" type="curve"/>
    </contour>
  </outline>
</glyph>
<glyph name="commaturnsupnosp" format="2">
  <unicode hex="0312"/>
  <anchor x="-791" y="1470" name="_marktop"/>
  <anchor x="-791" y="2316" name="mkmktop"/>
  <anchor x="-743" y="1792" name="parent_top"/>
  <outline>
    <contour>
      <point x="-975" y="1383" type="line"/>
      <point x="-616" y="1383" type="line"/>
      <point x="-616" y="1660" type="line" smooth="yes"/>
      <point x="-616" y="1851"/>
      <point x="-572" y="1979"/>
      <point x="-512" y="2090" type="curve"/>
      <point x="-723" y="2200" type="line"/>
      <point x="-854" y="2079"/>
      <point x="-975" y="1855"/>
      <point x="-975" y="1661" type="curve" smooth="yes"/>
    </contour>
  </outline>
</glyph>
<glyph name="commasuprevnosp" format="2">
  <unicode hex="0314"/>
  <anchor x="-765" y="1470" name="_marktop"/>
  <anchor x="-765" y="2316" name="mkmktop"/>
  <anchor x="-792" y="1792" name="parent_top"/>
  <outline>
    <contour>
      <point x="-1024" y="2200" type="line"/>
      <point x="-666" y="2200" type="line"/>
      <point x="-666" y="1924" type="line" smooth="yes"/>
      <point x="-666" y="1733"/>
      <point x="-622" y="1605"/>
      <point x="-561" y="1493" type="curve"/>
      <point x="-773" y="1383" type="line"/>
      <point x="-903" y="1504"/>
      <point x="-1024" y="1728"/>
      <point x="-1024" y="1922" type="curve" smooth="yes"/>
    </contour>
  </outline>
</glyph>
<glyph name="tackleftsubnosp" format="2">
  <unicode hex="0318"/>
  <anchor x="-755" y="-17" name="_markbottom"/>
  <anchor x="-755" y="-732" name="mkmkbottom_acc"/>
  <outline>
    <contour>
      <point x="-435" y="-91" type="line"/>
      <point x="-711" y="-91" type="line"/>
      <point x="-711" y="-732" type="line"/>
      <point x="-435" y="-732" type="line"/>
    </contour>
    <contour>
      <point x="-1152" y="-281" type="line"/>
      <point x="-1152" y="-542" type="line"/>
      <point x="-461" y="-542" type="line"/>
      <point x="-461" y="-281" type="line"/>
    </contour>
  </outline>
</glyph>
<glyph name="tackrightsubnosp" format="2">
  <unicode hex="0319"/>
  <anchor x="-829" y="0" name="_markbottom"/>
  <anchor x="-829" y="-732" name="mkmkbottom_acc"/>
  <outline>
    <contour>
      <point x="-1152" y="-91" type="line"/>
      <point x="-876" y="-91" type="line"/>
      <point x="-876" y="-732" type="line"/>
      <point x="-1152" y="-732" type="line"/>
    </contour>
    <contour>
      <point x="-435" y="-281" type="line"/>
      <point x="-435" y="-542" type="line"/>
      <point x="-1126" y="-542" type="line"/>
      <point x="-1126" y="-281" type="line"/>
    </contour>
  </outline>
</glyph>
<glyph name="anglesupnosp" format="2">
  <unicode hex="031A"/>
  <anchor x="-708" y="1737" name="_marktop"/>
  <anchor x="-708" y="2338" name="mkmktop"/>
  <outline>
    <contour>
      <point x="-1176" y="2020" type="line"/>
      <point x="-421" y="2020" type="line"/>
      <point x="-421" y="2281" type="line"/>
      <point x="-1176" y="2281" type="line"/>
    </contour>
    <contour>
      <point x="-514" y="1764" type="line"/>
      <point x="-239" y="1764" type="line"/>
      <point x="-239" y="2281" type="line"/>
      <point x="-514" y="2281" type="line"/>
    </contour>
  </outline>
</glyph>
<glyph name="hornnosp" format="2">
  <unicode hex="031B"/>
  <outline>
    <contour>
      <point x="-162" y="2200" type="line"/>
      <point x="-521" y="2200" type="line"/>
      <point x="-521" y="1786"/>
      <point x="-549" y="1683"/>
      <point x="-626" y="1493" type="curve"/>
      <point x="-414" y="1383" type="line"/>
      <point x="-283" y="1504"/>
      <point x="-162" y="1728"/>
      <point x="-162" y="1922" type="curve" smooth="yes"/>
    </contour>
  </outline>
</glyph>
<glyph name="ringlefthalfsubnosp" format="2">
  <unicode hex="031C"/>
  <anchor x="-806" y="0" name="_markbottom"/>
  <anchor x="-806" y="-616" name="mkmkbottom_acc"/>
  <outline>
    <contour>
      <point x="-681" y="-616" type="line"/>
      <point x="-844" y="-616"/>
      <point x="-971" y="-507"/>
      <point x="-971" y="-356" type="curve" smooth="yes"/>
      <point x="-971" y="-206"/>
      <point x="-844" y="-91"/>
      <point x="-681" y="-91" type="curve"/>
      <point x="-681" y="-224" type="line"/>
      <point x="-756" y="-224"/>
      <point x="-806" y="-276"/>
      <point x="-806" y="-356" type="curve" smooth="yes"/>
      <point x="-806" y="-433"/>
      <point x="-756" y="-485"/>
      <point x="-681" y="-485" type="curve"/>
    </contour>
  </outline>
</glyph>
<glyph name="tackdownsubnosp" format="2">
  <unicode hex="031E"/>
  <anchor x="-795" y="0" name="_markbottom"/>
  <anchor x="-795" y="-677" name="mkmkbottom_acc"/>
  <outline>
    <contour>
      <point x="-655" y="-718" type="line"/>
      <point x="-934" y="-718" type="line"/>
      <point x="-934" y="-114" type="line"/>
      <point x="-655" y="-114" type="line"/>
    </contour>
    <contour>
      <point x="-1137" y="-380" type="line"/>
      <point x="-1137" y="-114" type="line"/>
      <point x="-451" y="-114" type="line"/>
      <point x="-451" y="-380" type="line"/>
    </contour>
  </outline>
</glyph>
<glyph name="minussubnosp" format="2">
  <unicode hex="0320"/>
  <anchor x="-793" y="0" name="_markbottom"/>
  <anchor x="-788" y="-524" name="mkmkbottom_acc"/>
  <outline>
    <contour>
      <point x="-1192" y="-260" type="line"/>
      <point x="-1192" y="-525" type="line"/>
      <point x="-396" y="-525" type="line"/>
      <point x="-396" y="-260" type="line"/>
    </contour>
  </outline>
</glyph>
